%TF.GenerationSoftware,KiCad,Pcbnew,9.0.7*%
%TF.CreationDate,2026-03-14T17:50:52-05:00*%
%TF.ProjectId,board,626f6172-642e-46b6-9963-61645f706362,rev?*%
%TF.SameCoordinates,Original*%
%TF.FileFunction,Copper,L1,Top*%
%TF.FilePolarity,Positive*%
%FSLAX46Y46*%
G04 Gerber Fmt 4.6, Leading zero omitted, Abs format (unit mm)*
G04 Created by KiCad (PCBNEW 9.0.7) date 2026-03-14 17:50:52*
%MOMM*%
%LPD*%
G01*
G04 APERTURE LIST*
G04 Aperture macros list*
%AMRoundRect*
0 Rectangle with rounded corners*
0 $1 Rounding radius*
0 $2 $3 $4 $5 $6 $7 $8 $9 X,Y pos of 4 corners*
0 Add a 4 corners polygon primitive as box body*
4,1,4,$2,$3,$4,$5,$6,$7,$8,$9,$2,$3,0*
0 Add four circle primitives for the rounded corners*
1,1,$1+$1,$2,$3*
1,1,$1+$1,$4,$5*
1,1,$1+$1,$6,$7*
1,1,$1+$1,$8,$9*
0 Add four rect primitives between the rounded corners*
20,1,$1+$1,$2,$3,$4,$5,0*
20,1,$1+$1,$4,$5,$6,$7,0*
20,1,$1+$1,$6,$7,$8,$9,0*
20,1,$1+$1,$8,$9,$2,$3,0*%
G04 Aperture macros list end*
%TA.AperFunction,ComponentPad*%
%ADD10R,1.700000X1.700000*%
%TD*%
%TA.AperFunction,ComponentPad*%
%ADD11C,1.700000*%
%TD*%
%TA.AperFunction,ComponentPad*%
%ADD12R,3.500000X3.500000*%
%TD*%
%TA.AperFunction,ComponentPad*%
%ADD13RoundRect,0.750000X-1.000000X0.750000X-1.000000X-0.750000X1.000000X-0.750000X1.000000X0.750000X0*%
%TD*%
%TA.AperFunction,ComponentPad*%
%ADD14RoundRect,0.875000X-0.875000X0.875000X-0.875000X-0.875000X0.875000X-0.875000X0.875000X0.875000X0*%
%TD*%
%TA.AperFunction,ViaPad*%
%ADD15C,0.600000*%
%TD*%
%TA.AperFunction,Conductor*%
%ADD16C,1.270000*%
%TD*%
G04 APERTURE END LIST*
D10*
%TO.P,U1,1,GND*%
%TO.N,GND*%
X157480000Y-134620000D03*
D11*
%TO.P,U1,2,VBUS*%
%TO.N,+5V*%
X157480000Y-132080000D03*
%TO.P,U1,3,GPIO9/BOOT*%
%TO.N,unconnected-(U1-GPIO9{slash}BOOT-Pad3)*%
X157480000Y-129540000D03*
%TO.P,U1,4,GPIO8/PWM*%
%TO.N,unconnected-(U1-GPIO8{slash}PWM-Pad4)*%
X157480000Y-127000000D03*
%TO.P,U1,5,GPIO4/ADC1/SDA*%
%TO.N,Net-(J4-Pin_4)*%
X157480000Y-124460000D03*
%TO.P,U1,6,GPIO5/ADC2/SCL*%
%TO.N,Net-(J4-Pin_3)*%
X157480000Y-121920000D03*
%TO.P,U1,7,+3V3*%
%TO.N,unconnected-(U1-+3V3-Pad7)*%
X157480000Y-119380000D03*
%TO.P,U1,8,GND*%
%TO.N,unconnected-(U1-GND-Pad8)*%
X157480000Y-116840000D03*
%TO.P,U1,9,VDD_SPI/GPIO11*%
%TO.N,unconnected-(U1-VDD_SPI{slash}GPIO11-Pad9)*%
X157480000Y-114300000D03*
%TO.P,U1,10,GPIO7*%
%TO.N,Net-(J6-Pin_3)*%
X157480000Y-111760000D03*
%TO.P,U1,11,GPIO6*%
%TO.N,Net-(J8-Pin_3)*%
X157480000Y-109220000D03*
%TO.P,U1,12,GPIO10*%
%TO.N,Net-(J7-Pin_3)*%
X157480000Y-106680000D03*
%TO.P,U1,13,GPIO3*%
%TO.N,Net-(J3-Pin_3)*%
X157480000Y-104140000D03*
%TO.P,U1,14,GPIO2*%
%TO.N,Net-(J11-Pin_3)*%
X157480000Y-101600000D03*
%TO.P,U1,15,+3V3*%
%TO.N,+3.3V*%
X157480000Y-99060000D03*
%TO.P,U1,16,GND*%
%TO.N,GND*%
X157480000Y-96520000D03*
%TO.P,U1,17,VBUS*%
%TO.N,unconnected-(U1-VBUS-Pad17)*%
X139700000Y-134620000D03*
%TO.P,U1,18,PWB*%
%TO.N,unconnected-(U1-PWB-Pad18)*%
X139700000Y-132080000D03*
%TO.P,U1,19,GND*%
%TO.N,GND*%
X139700000Y-129540000D03*
%TO.P,U1,20,+3V3*%
%TO.N,+3.3V*%
X139700000Y-127000000D03*
%TO.P,U1,21,CHIP_EN*%
%TO.N,unconnected-(U1-CHIP_EN-Pad21)*%
X139700000Y-124460000D03*
%TO.P,U1,22,NC*%
%TO.N,unconnected-(U1-NC-Pad22)*%
X139700000Y-121920000D03*
%TO.P,U1,23,SPIWP/GPIO13*%
%TO.N,unconnected-(U1-SPIWP{slash}GPIO13-Pad23)*%
X139700000Y-119380000D03*
%TO.P,U1,24,U0TXD*%
%TO.N,unconnected-(U1-U0TXD-Pad24)*%
X139700000Y-116840000D03*
%TO.P,U1,25,U0RXD*%
%TO.N,Net-(J10-Pin_3)*%
X139700000Y-114300000D03*
%TO.P,U1,26,GND*%
%TO.N,unconnected-(U1-GND-Pad26)*%
X139700000Y-111760000D03*
%TO.P,U1,27,GPIO19/USB_D+*%
%TO.N,unconnected-(U1-GPIO19{slash}USB_D+-Pad27)*%
X139700000Y-109220000D03*
%TO.P,U1,28,GPIO18/USB_D-*%
%TO.N,unconnected-(U1-GPIO18{slash}USB_D--Pad28)*%
X139700000Y-106680000D03*
%TO.P,U1,29,SPIHD/GPIO12*%
%TO.N,unconnected-(U1-SPIHD{slash}GPIO12-Pad29)*%
X139700000Y-104140000D03*
%TO.P,U1,30,GPIO01/U1RXD*%
%TO.N,Net-(J2-Pin_3)*%
X139700000Y-101600000D03*
%TO.P,U1,31,GPIO00/U1TXD*%
%TO.N,Net-(J1-Pin_3)*%
X139700000Y-99060000D03*
%TO.P,U1,32,GND*%
%TO.N,GND*%
X139700000Y-96520000D03*
%TD*%
D10*
%TO.P,J3,1,Pin_1*%
%TO.N,GND*%
X106680000Y-127000000D03*
D11*
%TO.P,J3,2,Pin_2*%
%TO.N,+3.3V*%
X106680000Y-124460000D03*
%TO.P,J3,3,Pin_3*%
%TO.N,Net-(J3-Pin_3)*%
X106680000Y-121920000D03*
%TD*%
D10*
%TO.P,J7,1,Pin_1*%
%TO.N,+12V*%
X193040000Y-99060000D03*
D11*
%TO.P,J7,2,Pin_2*%
%TO.N,GND*%
X193040000Y-101600000D03*
%TO.P,J7,3,Pin_3*%
%TO.N,Net-(J7-Pin_3)*%
X193040000Y-104140000D03*
%TD*%
D10*
%TO.P,J2,1,Pin_1*%
%TO.N,GND*%
X106680000Y-106680000D03*
D11*
%TO.P,J2,2,Pin_2*%
%TO.N,+3.3V*%
X106680000Y-104140000D03*
%TO.P,J2,3,Pin_3*%
%TO.N,Net-(J2-Pin_3)*%
X106680000Y-101600000D03*
%TD*%
D10*
%TO.P,J10,1,Pin_1*%
%TO.N,+12V*%
X193040000Y-129540000D03*
D11*
%TO.P,J10,2,Pin_2*%
%TO.N,GND*%
X193040000Y-132080000D03*
%TO.P,J10,3,Pin_3*%
%TO.N,Net-(J10-Pin_3)*%
X193040000Y-134620000D03*
%TD*%
D10*
%TO.P,J5,1,Pin_1*%
%TO.N,+12V*%
X187960000Y-139700000D03*
D11*
%TO.P,J5,2,Pin_2*%
%TO.N,GND*%
X185420000Y-139700000D03*
%TO.P,J5,3,Pin_3*%
X182880000Y-139700000D03*
%TO.P,J5,4,Pin_4*%
%TO.N,+5V*%
X180340000Y-139700000D03*
%TD*%
D10*
%TO.P,J6,1,Pin_1*%
%TO.N,+12V*%
X193040000Y-119380000D03*
D11*
%TO.P,J6,2,Pin_2*%
%TO.N,GND*%
X193040000Y-121920000D03*
%TO.P,J6,3,Pin_3*%
%TO.N,Net-(J6-Pin_3)*%
X193040000Y-124460000D03*
%TD*%
D10*
%TO.P,J4,1,Pin_1*%
%TO.N,GND*%
X175260000Y-132080000D03*
D11*
%TO.P,J4,2,Pin_2*%
%TO.N,+3.3V*%
X172720000Y-132080000D03*
%TO.P,J4,3,Pin_3*%
%TO.N,Net-(J4-Pin_3)*%
X170180000Y-132080000D03*
%TO.P,J4,4,Pin_4*%
%TO.N,Net-(J4-Pin_4)*%
X167640000Y-132080000D03*
%TD*%
D12*
%TO.P,J9,1*%
%TO.N,+12V*%
X175260000Y-94900000D03*
D13*
%TO.P,J9,2*%
%TO.N,GND*%
X175260000Y-88900000D03*
D14*
%TO.P,J9,3*%
%TO.N,N/C*%
X170560000Y-91900000D03*
%TD*%
D10*
%TO.P,J8,1,Pin_1*%
%TO.N,+12V*%
X193040000Y-109220000D03*
D11*
%TO.P,J8,2,Pin_2*%
%TO.N,GND*%
X193040000Y-111760000D03*
%TO.P,J8,3,Pin_3*%
%TO.N,Net-(J8-Pin_3)*%
X193040000Y-114300000D03*
%TD*%
D10*
%TO.P,J11,1,Pin_1*%
%TO.N,GND*%
X106680000Y-116840000D03*
D11*
%TO.P,J11,2,Pin_2*%
%TO.N,+3.3V*%
X106680000Y-114300000D03*
%TO.P,J11,3,Pin_3*%
%TO.N,Net-(J11-Pin_3)*%
X106680000Y-111760000D03*
%TD*%
D10*
%TO.P,J1,1,Pin_1*%
%TO.N,GND*%
X106680000Y-96520000D03*
D11*
%TO.P,J1,2,Pin_2*%
%TO.N,+3.3V*%
X106680000Y-93980000D03*
%TO.P,J1,3,Pin_3*%
%TO.N,Net-(J1-Pin_3)*%
X106680000Y-91440000D03*
%TD*%
D15*
%TO.N,Net-(J10-Pin_3)*%
X185420000Y-134620000D03*
X185420000Y-134620000D03*
X132080000Y-114300000D03*
%TO.N,+3.3V*%
X172720000Y-116840000D03*
X167640000Y-99060000D03*
%TD*%
D16*
%TO.N,+3.3V*%
X144780000Y-86360000D02*
X144780000Y-99060000D01*
X157480000Y-99060000D02*
X144780000Y-99060000D01*
X144780000Y-99060000D02*
X144780000Y-127000000D01*
X144780000Y-127000000D02*
X139700000Y-127000000D01*
X104140000Y-93980000D02*
X104140000Y-86360000D01*
X104140000Y-86360000D02*
X144780000Y-86360000D01*
X104140000Y-104140000D02*
X104140000Y-93980000D01*
X104140000Y-93980000D02*
X106680000Y-93980000D01*
X104140000Y-114300000D02*
X104140000Y-104140000D01*
X104140000Y-104140000D02*
X106680000Y-104140000D01*
X104140000Y-121920000D02*
X104140000Y-114300000D01*
X106680000Y-124460000D02*
X104140000Y-121920000D01*
X104140000Y-114300000D02*
X106680000Y-114300000D01*
%TO.N,Net-(J10-Pin_3)*%
X139700000Y-114300000D02*
X132080000Y-114300000D01*
X193040000Y-134620000D02*
X185420000Y-134620000D01*
%TO.N,Net-(J11-Pin_3)*%
X114300000Y-119380000D02*
X139700000Y-144780000D01*
X106680000Y-111760000D02*
X114300000Y-111760000D01*
X149860000Y-144780000D02*
X149860000Y-101600000D01*
X114300000Y-111760000D02*
X114300000Y-119380000D01*
X139700000Y-144780000D02*
X149860000Y-144780000D01*
X149860000Y-101600000D02*
X157480000Y-101600000D01*
%TO.N,Net-(J3-Pin_3)*%
X152400000Y-147320000D02*
X152400000Y-104140000D01*
X106680000Y-121920000D02*
X114300000Y-121920000D01*
X114300000Y-121920000D02*
X139700000Y-147320000D01*
X139700000Y-147320000D02*
X152400000Y-147320000D01*
X152400000Y-104140000D02*
X157480000Y-104140000D01*
%TO.N,Net-(J7-Pin_3)*%
X157480000Y-106680000D02*
X190500000Y-106680000D01*
X190500000Y-106680000D02*
X193040000Y-104140000D01*
%TO.N,+3.3V*%
X172720000Y-132080000D02*
X172720000Y-116840000D01*
X162560000Y-99060000D02*
X167640000Y-99060000D01*
X157480000Y-99060000D02*
X162560000Y-99060000D01*
%TO.N,+12V*%
X190500000Y-99060000D02*
X186340000Y-94900000D01*
X186340000Y-94900000D02*
X175260000Y-94900000D01*
%TO.N,Net-(J2-Pin_3)*%
X106680000Y-101600000D02*
X139700000Y-101600000D01*
%TO.N,Net-(J1-Pin_3)*%
X127000000Y-91440000D02*
X134620000Y-99060000D01*
X134620000Y-99060000D02*
X139700000Y-99060000D01*
X106680000Y-91440000D02*
X127000000Y-91440000D01*
%TO.N,Net-(J6-Pin_3)*%
X193040000Y-124460000D02*
X180340000Y-111760000D01*
X180340000Y-111760000D02*
X157480000Y-111760000D01*
%TO.N,Net-(J8-Pin_3)*%
X190500000Y-114300000D02*
X185420000Y-109220000D01*
X193040000Y-114300000D02*
X190500000Y-114300000D01*
X185420000Y-109220000D02*
X157480000Y-109220000D01*
%TO.N,Net-(J4-Pin_3)*%
X157480000Y-121920000D02*
X160020000Y-121920000D01*
X160020000Y-121920000D02*
X170180000Y-132080000D01*
%TO.N,Net-(J4-Pin_4)*%
X167640000Y-132080000D02*
X160020000Y-124460000D01*
X160020000Y-124460000D02*
X157480000Y-124460000D01*
%TO.N,+5V*%
X170180000Y-139700000D02*
X162560000Y-132080000D01*
X162560000Y-132080000D02*
X157480000Y-132080000D01*
X180340000Y-139700000D02*
X170180000Y-139700000D01*
%TO.N,+12V*%
X195580000Y-119380000D02*
X195580000Y-129540000D01*
X193040000Y-129540000D02*
X195580000Y-129540000D01*
X195580000Y-129540000D02*
X195580000Y-139700000D01*
X195580000Y-139700000D02*
X187960000Y-139700000D01*
X195580000Y-109220000D02*
X195580000Y-119380000D01*
X195580000Y-119380000D02*
X193040000Y-119380000D01*
X195580000Y-99060000D02*
X195580000Y-109220000D01*
X193040000Y-99060000D02*
X195580000Y-99060000D01*
X195580000Y-109220000D02*
X193040000Y-109220000D01*
X190500000Y-99060000D02*
X193040000Y-99060000D01*
%TD*%
%TA.AperFunction,Conductor*%
%TO.N,GND*%
G36*
X200603039Y-83839685D02*
G01*
X200648794Y-83892489D01*
X200660000Y-83944000D01*
X200660000Y-151204000D01*
X200640315Y-151271039D01*
X200587511Y-151316794D01*
X200536000Y-151328000D01*
X103113500Y-151328000D01*
X103046461Y-151308315D01*
X103000706Y-151255511D01*
X102989500Y-151204000D01*
X102989500Y-122649933D01*
X103009185Y-122582894D01*
X103061989Y-122537139D01*
X103131147Y-122527195D01*
X103194703Y-122556220D01*
X103213814Y-122577043D01*
X103273889Y-122659728D01*
X103273891Y-122659730D01*
X105329289Y-124715129D01*
X105360975Y-124771698D01*
X105361249Y-124771610D01*
X105361695Y-124772982D01*
X105362178Y-124773845D01*
X105362753Y-124776239D01*
X105428444Y-124978414D01*
X105524951Y-125167820D01*
X105649890Y-125339786D01*
X105763818Y-125453714D01*
X105797303Y-125515037D01*
X105792319Y-125584729D01*
X105750447Y-125640662D01*
X105719471Y-125657577D01*
X105587912Y-125706646D01*
X105587906Y-125706649D01*
X105472812Y-125792809D01*
X105472809Y-125792812D01*
X105386649Y-125907906D01*
X105386645Y-125907913D01*
X105336403Y-126042620D01*
X105336401Y-126042627D01*
X105330000Y-126102155D01*
X105330000Y-126750000D01*
X106246988Y-126750000D01*
X106214075Y-126807007D01*
X106180000Y-126934174D01*
X106180000Y-127065826D01*
X106214075Y-127192993D01*
X106246988Y-127250000D01*
X105330000Y-127250000D01*
X105330000Y-127897844D01*
X105336401Y-127957372D01*
X105336403Y-127957379D01*
X105386645Y-128092086D01*
X105386649Y-128092093D01*
X105472809Y-128207187D01*
X105472812Y-128207190D01*
X105587906Y-128293350D01*
X105587913Y-128293354D01*
X105722620Y-128343596D01*
X105722627Y-128343598D01*
X105782155Y-128349999D01*
X105782172Y-128350000D01*
X106430000Y-128350000D01*
X106430000Y-127433012D01*
X106487007Y-127465925D01*
X106614174Y-127500000D01*
X106745826Y-127500000D01*
X106872993Y-127465925D01*
X106930000Y-127433012D01*
X106930000Y-128350000D01*
X107577828Y-128350000D01*
X107577844Y-128349999D01*
X107637372Y-128343598D01*
X107637379Y-128343596D01*
X107772086Y-128293354D01*
X107772093Y-128293350D01*
X107887187Y-128207190D01*
X107887190Y-128207187D01*
X107973350Y-128092093D01*
X107973354Y-128092086D01*
X108023596Y-127957379D01*
X108023598Y-127957372D01*
X108029999Y-127897844D01*
X108030000Y-127897827D01*
X108030000Y-127250000D01*
X107113012Y-127250000D01*
X107145925Y-127192993D01*
X107180000Y-127065826D01*
X107180000Y-126934174D01*
X107145925Y-126807007D01*
X107113012Y-126750000D01*
X108030000Y-126750000D01*
X108030000Y-126102172D01*
X108029999Y-126102155D01*
X108023598Y-126042627D01*
X108023596Y-126042620D01*
X107973354Y-125907913D01*
X107973350Y-125907906D01*
X107887190Y-125792812D01*
X107887187Y-125792809D01*
X107772093Y-125706649D01*
X107772088Y-125706646D01*
X107640528Y-125657577D01*
X107584595Y-125615705D01*
X107560178Y-125550241D01*
X107575030Y-125481968D01*
X107596175Y-125453720D01*
X107710104Y-125339792D01*
X107835051Y-125167816D01*
X107931557Y-124978412D01*
X107997246Y-124776243D01*
X108030500Y-124566287D01*
X108030500Y-124353713D01*
X107997246Y-124143757D01*
X107931557Y-123941588D01*
X107835051Y-123752184D01*
X107835049Y-123752181D01*
X107835048Y-123752179D01*
X107710109Y-123580213D01*
X107559786Y-123429890D01*
X107387820Y-123304951D01*
X107387115Y-123304591D01*
X107379054Y-123300485D01*
X107371072Y-123292945D01*
X107360793Y-123289083D01*
X107346118Y-123269379D01*
X107328259Y-123252512D01*
X107325619Y-123241853D01*
X107319060Y-123233046D01*
X107317367Y-123208535D01*
X107311463Y-123184692D01*
X107315004Y-123174299D01*
X107314248Y-123163342D01*
X107326075Y-123141808D01*
X107333999Y-123118556D01*
X107343480Y-123110121D01*
X107347885Y-123102102D01*
X107372746Y-123084086D01*
X107376192Y-123081021D01*
X107377611Y-123080250D01*
X107387816Y-123075051D01*
X107389666Y-123073706D01*
X107395535Y-123070521D01*
X107420334Y-123065190D01*
X107454692Y-123055500D01*
X113778299Y-123055500D01*
X113845338Y-123075185D01*
X113865979Y-123091818D01*
X138960271Y-148186111D01*
X139021118Y-148230319D01*
X139104868Y-148291167D01*
X139264119Y-148372309D01*
X139264121Y-148372310D01*
X139422670Y-148423825D01*
X139434103Y-148427540D01*
X139610634Y-148455500D01*
X139610635Y-148455500D01*
X152489365Y-148455500D01*
X152489366Y-148455500D01*
X152665897Y-148427540D01*
X152665900Y-148427539D01*
X152665901Y-148427539D01*
X152835878Y-148372310D01*
X152835878Y-148372309D01*
X152835881Y-148372309D01*
X152995132Y-148291167D01*
X153139728Y-148186111D01*
X153266111Y-148059728D01*
X153371167Y-147915132D01*
X153452309Y-147755881D01*
X153507540Y-147585897D01*
X153535500Y-147409366D01*
X153535500Y-105399500D01*
X153555185Y-105332461D01*
X153607989Y-105286706D01*
X153659500Y-105275500D01*
X156705308Y-105275500D01*
X156719632Y-105279137D01*
X156731369Y-105278269D01*
X156757653Y-105288791D01*
X156764468Y-105290522D01*
X156770331Y-105293704D01*
X156772184Y-105295051D01*
X156782392Y-105300252D01*
X156783810Y-105301022D01*
X156807481Y-105324577D01*
X156831742Y-105347491D01*
X156832145Y-105349121D01*
X156833336Y-105350306D01*
X156840509Y-105382896D01*
X156848536Y-105415312D01*
X156847993Y-105416902D01*
X156848355Y-105418543D01*
X156836768Y-105449841D01*
X156825998Y-105481447D01*
X156824630Y-105482632D01*
X156824099Y-105484067D01*
X156815554Y-105490495D01*
X156780946Y-105520484D01*
X156772182Y-105524949D01*
X156600213Y-105649890D01*
X156449890Y-105800213D01*
X156324951Y-105972179D01*
X156228444Y-106161585D01*
X156162753Y-106363760D01*
X156161291Y-106372993D01*
X156129500Y-106573713D01*
X156129500Y-106786287D01*
X156139534Y-106849644D01*
X156162753Y-106996239D01*
X156228444Y-107198414D01*
X156324951Y-107387820D01*
X156449890Y-107559786D01*
X156600213Y-107710109D01*
X156772182Y-107835050D01*
X156780946Y-107839516D01*
X156831742Y-107887491D01*
X156848536Y-107955312D01*
X156825998Y-108021447D01*
X156780946Y-108060484D01*
X156772182Y-108064949D01*
X156600213Y-108189890D01*
X156449890Y-108340213D01*
X156324951Y-108512179D01*
X156228444Y-108701585D01*
X156162753Y-108903760D01*
X156129500Y-109113713D01*
X156129500Y-109326286D01*
X156162753Y-109536239D01*
X156228444Y-109738414D01*
X156324951Y-109927820D01*
X156449890Y-110099786D01*
X156600213Y-110250109D01*
X156772182Y-110375050D01*
X156780946Y-110379516D01*
X156831742Y-110427491D01*
X156848536Y-110495312D01*
X156825998Y-110561447D01*
X156780946Y-110600484D01*
X156772182Y-110604949D01*
X156600213Y-110729890D01*
X156449890Y-110880213D01*
X156324951Y-111052179D01*
X156228444Y-111241585D01*
X156162753Y-111443760D01*
X156129500Y-111653713D01*
X156129500Y-111866286D01*
X156162753Y-112076239D01*
X156228444Y-112278414D01*
X156324951Y-112467820D01*
X156449890Y-112639786D01*
X156600213Y-112790109D01*
X156772182Y-112915050D01*
X156780946Y-112919516D01*
X156831742Y-112967491D01*
X156848536Y-113035312D01*
X156825998Y-113101447D01*
X156780946Y-113140484D01*
X156772182Y-113144949D01*
X156600213Y-113269890D01*
X156449890Y-113420213D01*
X156324951Y-113592179D01*
X156228444Y-113781585D01*
X156162753Y-113983760D01*
X156129500Y-114193713D01*
X156129500Y-114406286D01*
X156162753Y-114616239D01*
X156228444Y-114818414D01*
X156324951Y-115007820D01*
X156449890Y-115179786D01*
X156600213Y-115330109D01*
X156772182Y-115455050D01*
X156780946Y-115459516D01*
X156831742Y-115507491D01*
X156848536Y-115575312D01*
X156825998Y-115641447D01*
X156780946Y-115680484D01*
X156772182Y-115684949D01*
X156600213Y-115809890D01*
X156449890Y-115960213D01*
X156324951Y-116132179D01*
X156228444Y-116321585D01*
X156162753Y-116523760D01*
X156154780Y-116574101D01*
X156129500Y-116733713D01*
X156129500Y-116946287D01*
X156139534Y-117009644D01*
X156162753Y-117156239D01*
X156228444Y-117358414D01*
X156324951Y-117547820D01*
X156449890Y-117719786D01*
X156600213Y-117870109D01*
X156772182Y-117995050D01*
X156780946Y-117999516D01*
X156831742Y-118047491D01*
X156848536Y-118115312D01*
X156825998Y-118181447D01*
X156780946Y-118220484D01*
X156772182Y-118224949D01*
X156600213Y-118349890D01*
X156449890Y-118500213D01*
X156324951Y-118672179D01*
X156228444Y-118861585D01*
X156162753Y-119063760D01*
X156129500Y-119273713D01*
X156129500Y-119486287D01*
X156162754Y-119696243D01*
X156201628Y-119815885D01*
X156228444Y-119898414D01*
X156324951Y-120087820D01*
X156449890Y-120259786D01*
X156600213Y-120410109D01*
X156772182Y-120535050D01*
X156780946Y-120539516D01*
X156831742Y-120587491D01*
X156848536Y-120655312D01*
X156825998Y-120721447D01*
X156780946Y-120760484D01*
X156772182Y-120764949D01*
X156600213Y-120889890D01*
X156449890Y-121040213D01*
X156324951Y-121212179D01*
X156228444Y-121401585D01*
X156162753Y-121603760D01*
X156129500Y-121813713D01*
X156129500Y-122026286D01*
X156162753Y-122236239D01*
X156228444Y-122438414D01*
X156324951Y-122627820D01*
X156449890Y-122799786D01*
X156600213Y-122950109D01*
X156772182Y-123075050D01*
X156780946Y-123079516D01*
X156831742Y-123127491D01*
X156848536Y-123195312D01*
X156825998Y-123261447D01*
X156780946Y-123300484D01*
X156772182Y-123304949D01*
X156600213Y-123429890D01*
X156449890Y-123580213D01*
X156324951Y-123752179D01*
X156228444Y-123941585D01*
X156162753Y-124143760D01*
X156129500Y-124353713D01*
X156129500Y-124566286D01*
X156162753Y-124776239D01*
X156228444Y-124978414D01*
X156324951Y-125167820D01*
X156449890Y-125339786D01*
X156600213Y-125490109D01*
X156772182Y-125615050D01*
X156780946Y-125619516D01*
X156831742Y-125667491D01*
X156848536Y-125735312D01*
X156825998Y-125801447D01*
X156780946Y-125840484D01*
X156772182Y-125844949D01*
X156600213Y-125969890D01*
X156449890Y-126120213D01*
X156324951Y-126292179D01*
X156228444Y-126481585D01*
X156162753Y-126683760D01*
X156129500Y-126893713D01*
X156129500Y-127106286D01*
X156162753Y-127316239D01*
X156228444Y-127518414D01*
X156324951Y-127707820D01*
X156449890Y-127879786D01*
X156600213Y-128030109D01*
X156772182Y-128155050D01*
X156780946Y-128159516D01*
X156831742Y-128207491D01*
X156848536Y-128275312D01*
X156825998Y-128341447D01*
X156780946Y-128380484D01*
X156772182Y-128384949D01*
X156600213Y-128509890D01*
X156449890Y-128660213D01*
X156324951Y-128832179D01*
X156228444Y-129021585D01*
X156162753Y-129223760D01*
X156129500Y-129433713D01*
X156129500Y-129646286D01*
X156162753Y-129856239D01*
X156228444Y-130058414D01*
X156324951Y-130247820D01*
X156449890Y-130419786D01*
X156600213Y-130570109D01*
X156772182Y-130695050D01*
X156780946Y-130699516D01*
X156831742Y-130747491D01*
X156848536Y-130815312D01*
X156825998Y-130881447D01*
X156780946Y-130920484D01*
X156772182Y-130924949D01*
X156600213Y-131049890D01*
X156449890Y-131200213D01*
X156324951Y-131372179D01*
X156228444Y-131561585D01*
X156162753Y-131763760D01*
X156129500Y-131973713D01*
X156129500Y-132186286D01*
X156162753Y-132396239D01*
X156228444Y-132598414D01*
X156324951Y-132787820D01*
X156449890Y-132959786D01*
X156563818Y-133073714D01*
X156597303Y-133135037D01*
X156592319Y-133204729D01*
X156550447Y-133260662D01*
X156519471Y-133277577D01*
X156387912Y-133326646D01*
X156387906Y-133326649D01*
X156272812Y-133412809D01*
X156272809Y-133412812D01*
X156186649Y-133527906D01*
X156186645Y-133527913D01*
X156136403Y-133662620D01*
X156136401Y-133662627D01*
X156130000Y-133722155D01*
X156130000Y-134370000D01*
X157046988Y-134370000D01*
X157014075Y-134427007D01*
X156980000Y-134554174D01*
X156980000Y-134685826D01*
X157014075Y-134812993D01*
X157046988Y-134870000D01*
X156130000Y-134870000D01*
X156130000Y-135517844D01*
X156136401Y-135577372D01*
X156136403Y-135577379D01*
X156186645Y-135712086D01*
X156186649Y-135712093D01*
X156272809Y-135827187D01*
X156272812Y-135827190D01*
X156387906Y-135913350D01*
X156387913Y-135913354D01*
X156522620Y-135963596D01*
X156522627Y-135963598D01*
X156582155Y-135969999D01*
X156582172Y-135970000D01*
X157230000Y-135970000D01*
X157230000Y-135053012D01*
X157287007Y-135085925D01*
X157414174Y-135120000D01*
X157545826Y-135120000D01*
X157672993Y-135085925D01*
X157730000Y-135053012D01*
X157730000Y-135970000D01*
X158377828Y-135970000D01*
X158377844Y-135969999D01*
X158437372Y-135963598D01*
X158437379Y-135963596D01*
X158572086Y-135913354D01*
X158572093Y-135913350D01*
X158687187Y-135827190D01*
X158687190Y-135827187D01*
X158773350Y-135712093D01*
X158773354Y-135712086D01*
X158823596Y-135577379D01*
X158823598Y-135577372D01*
X158829999Y-135517844D01*
X158830000Y-135517827D01*
X158830000Y-134870000D01*
X157913012Y-134870000D01*
X157945925Y-134812993D01*
X157980000Y-134685826D01*
X157980000Y-134554174D01*
X157945925Y-134427007D01*
X157913012Y-134370000D01*
X158830000Y-134370000D01*
X158830000Y-133722172D01*
X158829999Y-133722155D01*
X158823598Y-133662627D01*
X158823596Y-133662620D01*
X158773354Y-133527913D01*
X158773350Y-133527906D01*
X158687938Y-133413811D01*
X158663520Y-133348347D01*
X158678371Y-133280074D01*
X158727776Y-133230668D01*
X158787204Y-133215500D01*
X162038299Y-133215500D01*
X162105338Y-133235185D01*
X162125979Y-133251818D01*
X169440271Y-140566111D01*
X169483987Y-140597872D01*
X169584868Y-140671167D01*
X169744119Y-140752309D01*
X169744121Y-140752310D01*
X169902670Y-140803825D01*
X169914103Y-140807540D01*
X170090634Y-140835500D01*
X179565308Y-140835500D01*
X179627709Y-140853100D01*
X179627843Y-140852839D01*
X179629156Y-140853508D01*
X179630099Y-140853774D01*
X179632175Y-140855046D01*
X179632182Y-140855049D01*
X179632184Y-140855051D01*
X179821588Y-140951557D01*
X180023757Y-141017246D01*
X180233713Y-141050500D01*
X180233714Y-141050500D01*
X180446286Y-141050500D01*
X180446287Y-141050500D01*
X180656243Y-141017246D01*
X180858412Y-140951557D01*
X181047816Y-140855051D01*
X181134138Y-140792335D01*
X181219786Y-140730109D01*
X181219788Y-140730106D01*
X181219792Y-140730104D01*
X181370104Y-140579792D01*
X181370106Y-140579788D01*
X181370109Y-140579786D01*
X181455890Y-140461717D01*
X181495051Y-140407816D01*
X181499793Y-140398508D01*
X181547763Y-140347711D01*
X181615583Y-140330911D01*
X181681719Y-140353445D01*
X181720763Y-140398500D01*
X181725373Y-140407547D01*
X181764728Y-140461716D01*
X182397037Y-139829408D01*
X182414075Y-139892993D01*
X182479901Y-140007007D01*
X182572993Y-140100099D01*
X182687007Y-140165925D01*
X182750590Y-140182962D01*
X182118282Y-140815269D01*
X182118282Y-140815270D01*
X182172449Y-140854624D01*
X182361782Y-140951095D01*
X182563870Y-141016757D01*
X182773754Y-141050000D01*
X182986246Y-141050000D01*
X183196127Y-141016757D01*
X183196130Y-141016757D01*
X183398217Y-140951095D01*
X183587554Y-140854622D01*
X183641716Y-140815270D01*
X183641717Y-140815270D01*
X183009408Y-140182962D01*
X183072993Y-140165925D01*
X183187007Y-140100099D01*
X183280099Y-140007007D01*
X183345925Y-139892993D01*
X183362962Y-139829409D01*
X183995270Y-140461717D01*
X183995270Y-140461716D01*
X184034622Y-140407554D01*
X184039514Y-140397954D01*
X184087488Y-140347157D01*
X184155308Y-140330361D01*
X184221444Y-140352897D01*
X184260486Y-140397954D01*
X184265375Y-140407550D01*
X184304728Y-140461716D01*
X184937037Y-139829408D01*
X184954075Y-139892993D01*
X185019901Y-140007007D01*
X185112993Y-140100099D01*
X185227007Y-140165925D01*
X185290590Y-140182962D01*
X184658282Y-140815269D01*
X184658282Y-140815270D01*
X184712449Y-140854624D01*
X184901782Y-140951095D01*
X185103870Y-141016757D01*
X185313754Y-141050000D01*
X185526246Y-141050000D01*
X185736127Y-141016757D01*
X185736130Y-141016757D01*
X185938217Y-140951095D01*
X186127554Y-140854622D01*
X186181716Y-140815270D01*
X186181717Y-140815270D01*
X185549408Y-140182962D01*
X185612993Y-140165925D01*
X185727007Y-140100099D01*
X185820099Y-140007007D01*
X185885925Y-139892993D01*
X185902962Y-139829409D01*
X186573181Y-140499628D01*
X186606666Y-140560951D01*
X186609500Y-140587300D01*
X186609500Y-140597865D01*
X186609501Y-140597873D01*
X186615908Y-140657483D01*
X186666202Y-140792328D01*
X186666206Y-140792335D01*
X186752452Y-140907544D01*
X186752455Y-140907547D01*
X186867664Y-140993793D01*
X186867671Y-140993797D01*
X187002517Y-141044091D01*
X187002516Y-141044091D01*
X187009444Y-141044835D01*
X187062127Y-141050500D01*
X188857872Y-141050499D01*
X188917483Y-141044091D01*
X189052331Y-140993796D01*
X189167546Y-140907546D01*
X189184282Y-140885190D01*
X189240215Y-140843318D01*
X189283549Y-140835500D01*
X195669365Y-140835500D01*
X195669366Y-140835500D01*
X195845897Y-140807540D01*
X195845900Y-140807539D01*
X195845901Y-140807539D01*
X196015878Y-140752310D01*
X196015878Y-140752309D01*
X196015881Y-140752309D01*
X196175132Y-140671167D01*
X196319728Y-140566111D01*
X196446111Y-140439728D01*
X196551167Y-140295132D01*
X196632309Y-140135881D01*
X196687540Y-139965897D01*
X196715500Y-139789366D01*
X196715500Y-129450634D01*
X196715500Y-119290634D01*
X196715500Y-109130634D01*
X196715500Y-98970634D01*
X196687540Y-98794103D01*
X196687539Y-98794099D01*
X196687539Y-98794098D01*
X196632310Y-98624121D01*
X196632308Y-98624118D01*
X196590258Y-98541588D01*
X196551167Y-98464868D01*
X196446111Y-98320272D01*
X196319728Y-98193889D01*
X196175132Y-98088833D01*
X196015881Y-98007691D01*
X196015878Y-98007689D01*
X195845899Y-97952460D01*
X195728209Y-97933820D01*
X195669366Y-97924500D01*
X195669365Y-97924500D01*
X194363549Y-97924500D01*
X194296510Y-97904815D01*
X194264282Y-97874810D01*
X194247550Y-97852458D01*
X194247547Y-97852455D01*
X194247546Y-97852454D01*
X194199975Y-97816842D01*
X194132335Y-97766206D01*
X194132328Y-97766202D01*
X193997482Y-97715908D01*
X193997483Y-97715908D01*
X193937883Y-97709501D01*
X193937881Y-97709500D01*
X193937873Y-97709500D01*
X193937864Y-97709500D01*
X192142129Y-97709500D01*
X192142123Y-97709501D01*
X192082516Y-97715908D01*
X191947671Y-97766202D01*
X191947664Y-97766206D01*
X191832457Y-97852451D01*
X191832449Y-97852458D01*
X191815718Y-97874810D01*
X191759785Y-97916682D01*
X191716451Y-97924500D01*
X191021702Y-97924500D01*
X190954663Y-97904815D01*
X190934021Y-97888181D01*
X187079730Y-94033891D01*
X187079729Y-94033890D01*
X187061401Y-94020574D01*
X186935132Y-93928833D01*
X186775881Y-93847691D01*
X186775875Y-93847688D01*
X186734194Y-93834146D01*
X186667453Y-93812460D01*
X186605897Y-93792459D01*
X186605895Y-93792458D01*
X186605894Y-93792458D01*
X186429370Y-93764500D01*
X186429366Y-93764500D01*
X177634499Y-93764500D01*
X177567460Y-93744815D01*
X177521705Y-93692011D01*
X177510499Y-93640500D01*
X177510499Y-93102129D01*
X177510498Y-93102123D01*
X177510292Y-93100208D01*
X177504091Y-93042517D01*
X177492288Y-93010872D01*
X177453797Y-92907671D01*
X177453793Y-92907664D01*
X177367547Y-92792455D01*
X177367544Y-92792452D01*
X177252335Y-92706206D01*
X177252328Y-92706202D01*
X177117482Y-92655908D01*
X177117483Y-92655908D01*
X177057883Y-92649501D01*
X177057881Y-92649500D01*
X177057873Y-92649500D01*
X177057864Y-92649500D01*
X173462129Y-92649500D01*
X173462123Y-92649501D01*
X173402516Y-92655908D01*
X173267671Y-92706202D01*
X173267664Y-92706206D01*
X173152455Y-92792452D01*
X173152452Y-92792455D01*
X173066206Y-92907664D01*
X173066203Y-92907669D01*
X173048573Y-92954939D01*
X173006701Y-93010872D01*
X172941237Y-93035289D01*
X172872964Y-93020437D01*
X172823559Y-92971032D01*
X172808566Y-92905025D01*
X172810499Y-92868650D01*
X172810500Y-92868613D01*
X172810500Y-90931386D01*
X172810498Y-90931347D01*
X172808833Y-90899998D01*
X172807705Y-90878759D01*
X172763245Y-90648874D01*
X172680574Y-90429810D01*
X172562070Y-90227868D01*
X172562065Y-90227861D01*
X172411143Y-90048858D01*
X172411141Y-90048856D01*
X172232138Y-89897934D01*
X172232131Y-89897929D01*
X172030189Y-89779425D01*
X171939832Y-89745326D01*
X171811126Y-89696755D01*
X171811121Y-89696754D01*
X171581243Y-89652295D01*
X171528652Y-89649501D01*
X171528629Y-89649500D01*
X171528622Y-89649500D01*
X169591378Y-89649500D01*
X169591370Y-89649500D01*
X169591347Y-89649501D01*
X169538756Y-89652295D01*
X169538755Y-89652295D01*
X169308878Y-89696754D01*
X169308876Y-89696754D01*
X169308874Y-89696755D01*
X169262656Y-89714197D01*
X169089810Y-89779425D01*
X168887868Y-89897929D01*
X168887861Y-89897934D01*
X168708858Y-90048856D01*
X168708856Y-90048858D01*
X168557934Y-90227861D01*
X168557929Y-90227868D01*
X168439425Y-90429810D01*
X168390216Y-90560208D01*
X168356755Y-90648874D01*
X168356754Y-90648876D01*
X168356754Y-90648878D01*
X168312295Y-90878755D01*
X168312295Y-90878756D01*
X168309501Y-90931347D01*
X168309500Y-90931386D01*
X168309500Y-92868613D01*
X168309501Y-92868652D01*
X168312295Y-92921243D01*
X168312295Y-92921244D01*
X168347279Y-93102128D01*
X168356755Y-93151126D01*
X168402438Y-93272179D01*
X168439425Y-93370189D01*
X168557929Y-93572131D01*
X168557934Y-93572138D01*
X168708856Y-93751141D01*
X168708858Y-93751143D01*
X168887861Y-93902065D01*
X168887868Y-93902070D01*
X169089810Y-94020574D01*
X169308874Y-94103245D01*
X169538759Y-94147705D01*
X169591378Y-94150500D01*
X169591386Y-94150500D01*
X171528614Y-94150500D01*
X171528622Y-94150500D01*
X171581241Y-94147705D01*
X171811126Y-94103245D01*
X172030190Y-94020574D01*
X172232132Y-93902070D01*
X172296629Y-93847691D01*
X172411141Y-93751143D01*
X172411143Y-93751141D01*
X172562065Y-93572138D01*
X172562065Y-93572137D01*
X172562070Y-93572132D01*
X172680574Y-93370190D01*
X172763245Y-93151126D01*
X172763756Y-93148485D01*
X172764281Y-93147467D01*
X172764683Y-93146050D01*
X172764971Y-93146131D01*
X172795812Y-93086403D01*
X172856343Y-93051507D01*
X172926131Y-93054876D01*
X172983019Y-93095440D01*
X173008946Y-93160322D01*
X173009500Y-93172030D01*
X173009500Y-96697870D01*
X173009501Y-96697876D01*
X173015908Y-96757483D01*
X173066202Y-96892328D01*
X173066206Y-96892335D01*
X173152452Y-97007544D01*
X173152455Y-97007547D01*
X173267664Y-97093793D01*
X173267671Y-97093797D01*
X173402517Y-97144091D01*
X173402516Y-97144091D01*
X173409444Y-97144835D01*
X173462127Y-97150500D01*
X177057872Y-97150499D01*
X177117483Y-97144091D01*
X177252331Y-97093796D01*
X177367546Y-97007546D01*
X177453796Y-96892331D01*
X177504091Y-96757483D01*
X177510500Y-96697873D01*
X177510500Y-96159500D01*
X177530185Y-96092461D01*
X177582989Y-96046706D01*
X177634500Y-96035500D01*
X185818299Y-96035500D01*
X185885338Y-96055185D01*
X185905979Y-96071818D01*
X189760271Y-99926111D01*
X189803987Y-99957872D01*
X189904868Y-100031167D01*
X190064119Y-100112309D01*
X190064121Y-100112310D01*
X190222670Y-100163825D01*
X190234103Y-100167540D01*
X190410634Y-100195500D01*
X191716451Y-100195500D01*
X191783490Y-100215185D01*
X191815718Y-100245190D01*
X191832449Y-100267541D01*
X191832452Y-100267544D01*
X191832454Y-100267546D01*
X191846615Y-100278147D01*
X191947664Y-100353793D01*
X191947671Y-100353797D01*
X191955334Y-100356655D01*
X192082517Y-100404091D01*
X192142127Y-100410500D01*
X192152685Y-100410499D01*
X192219723Y-100430179D01*
X192240372Y-100446818D01*
X192910591Y-101117037D01*
X192847007Y-101134075D01*
X192732993Y-101199901D01*
X192639901Y-101292993D01*
X192574075Y-101407007D01*
X192557037Y-101470591D01*
X191924728Y-100838282D01*
X191924727Y-100838282D01*
X191885380Y-100892439D01*
X191788904Y-101081782D01*
X191723242Y-101283869D01*
X191723242Y-101283872D01*
X191690000Y-101493753D01*
X191690000Y-101706246D01*
X191723242Y-101916127D01*
X191723242Y-101916130D01*
X191788904Y-102118217D01*
X191885375Y-102307550D01*
X191924728Y-102361716D01*
X192557037Y-101729408D01*
X192574075Y-101792993D01*
X192639901Y-101907007D01*
X192732993Y-102000099D01*
X192847007Y-102065925D01*
X192910590Y-102082962D01*
X192278282Y-102715269D01*
X192278282Y-102715270D01*
X192332452Y-102754626D01*
X192332451Y-102754626D01*
X192341495Y-102759234D01*
X192392292Y-102807208D01*
X192409087Y-102875029D01*
X192386550Y-102941164D01*
X192341499Y-102980202D01*
X192332182Y-102984949D01*
X192160213Y-103109890D01*
X192009890Y-103260213D01*
X191884951Y-103432179D01*
X191788444Y-103621585D01*
X191722754Y-103823757D01*
X191722180Y-103826148D01*
X191721697Y-103827009D01*
X191721249Y-103828390D01*
X191720974Y-103828300D01*
X191689290Y-103884868D01*
X190065980Y-105508181D01*
X190004657Y-105541666D01*
X189978299Y-105544500D01*
X158254692Y-105544500D01*
X158240366Y-105540862D01*
X158228634Y-105541731D01*
X158202350Y-105531209D01*
X158195535Y-105529479D01*
X158189666Y-105526293D01*
X158187816Y-105524949D01*
X158177611Y-105519749D01*
X158176192Y-105518979D01*
X158152532Y-105495436D01*
X158128259Y-105472512D01*
X158127855Y-105470881D01*
X158126664Y-105469696D01*
X158119484Y-105437082D01*
X158111463Y-105404692D01*
X158112004Y-105403102D01*
X158111643Y-105401460D01*
X158123236Y-105370141D01*
X158133999Y-105338556D01*
X158135366Y-105337370D01*
X158135898Y-105335936D01*
X158144443Y-105329505D01*
X158179054Y-105299515D01*
X158187816Y-105295051D01*
X158277020Y-105230241D01*
X158359786Y-105170109D01*
X158359788Y-105170106D01*
X158359792Y-105170104D01*
X158510104Y-105019792D01*
X158510106Y-105019788D01*
X158510109Y-105019786D01*
X158635048Y-104847820D01*
X158635047Y-104847820D01*
X158635051Y-104847816D01*
X158731557Y-104658412D01*
X158797246Y-104456243D01*
X158830500Y-104246287D01*
X158830500Y-104033713D01*
X158797246Y-103823757D01*
X158731557Y-103621588D01*
X158635051Y-103432184D01*
X158635049Y-103432181D01*
X158635048Y-103432179D01*
X158510109Y-103260213D01*
X158359786Y-103109890D01*
X158187820Y-102984951D01*
X158187115Y-102984591D01*
X158179054Y-102980485D01*
X158128259Y-102932512D01*
X158111463Y-102864692D01*
X158133999Y-102798556D01*
X158179054Y-102759515D01*
X158187816Y-102755051D01*
X158242572Y-102715269D01*
X158359786Y-102630109D01*
X158359788Y-102630106D01*
X158359792Y-102630104D01*
X158510104Y-102479792D01*
X158510106Y-102479788D01*
X158510109Y-102479786D01*
X158635048Y-102307820D01*
X158635047Y-102307820D01*
X158635051Y-102307816D01*
X158731557Y-102118412D01*
X158797246Y-101916243D01*
X158830500Y-101706287D01*
X158830500Y-101493713D01*
X158797246Y-101283757D01*
X158731557Y-101081588D01*
X158635051Y-100892184D01*
X158635049Y-100892181D01*
X158635048Y-100892179D01*
X158510109Y-100720213D01*
X158359786Y-100569890D01*
X158187820Y-100444951D01*
X158187115Y-100444591D01*
X158179054Y-100440485D01*
X158171072Y-100432945D01*
X158160793Y-100429083D01*
X158146118Y-100409379D01*
X158128259Y-100392512D01*
X158125619Y-100381853D01*
X158119060Y-100373046D01*
X158117367Y-100348535D01*
X158111463Y-100324692D01*
X158115004Y-100314299D01*
X158114248Y-100303342D01*
X158126075Y-100281808D01*
X158133999Y-100258556D01*
X158143480Y-100250121D01*
X158147885Y-100242102D01*
X158172746Y-100224086D01*
X158176192Y-100221021D01*
X158177611Y-100220250D01*
X158187816Y-100215051D01*
X158189666Y-100213706D01*
X158195535Y-100210521D01*
X158220334Y-100205190D01*
X158254692Y-100195500D01*
X167729365Y-100195500D01*
X167729366Y-100195500D01*
X167905897Y-100167540D01*
X167905900Y-100167539D01*
X167905901Y-100167539D01*
X168075878Y-100112310D01*
X168075878Y-100112309D01*
X168075881Y-100112309D01*
X168235132Y-100031167D01*
X168379728Y-99926111D01*
X168506111Y-99799728D01*
X168611167Y-99655132D01*
X168692309Y-99495881D01*
X168747540Y-99325897D01*
X168775500Y-99149366D01*
X168775500Y-98970634D01*
X168747540Y-98794103D01*
X168747539Y-98794099D01*
X168747539Y-98794098D01*
X168692310Y-98624121D01*
X168692308Y-98624118D01*
X168650258Y-98541588D01*
X168611167Y-98464868D01*
X168506111Y-98320272D01*
X168379728Y-98193889D01*
X168235132Y-98088833D01*
X168075881Y-98007691D01*
X168075878Y-98007689D01*
X167905899Y-97952460D01*
X167788209Y-97933820D01*
X167729366Y-97924500D01*
X167729365Y-97924500D01*
X158254692Y-97924500D01*
X158240399Y-97920876D01*
X158228719Y-97921749D01*
X158202522Y-97911273D01*
X158195611Y-97909521D01*
X158189699Y-97906317D01*
X158187816Y-97904949D01*
X158177083Y-97899480D01*
X158175717Y-97898740D01*
X158151993Y-97875166D01*
X158127707Y-97852230D01*
X158127314Y-97850643D01*
X158126155Y-97849492D01*
X158118943Y-97816842D01*
X158110912Y-97784409D01*
X158111438Y-97782863D01*
X158111086Y-97781266D01*
X158122673Y-97749893D01*
X158133449Y-97718274D01*
X158134778Y-97717121D01*
X158135295Y-97715724D01*
X158143711Y-97709382D01*
X158178507Y-97679232D01*
X158187555Y-97674622D01*
X158241716Y-97635270D01*
X158241717Y-97635270D01*
X157609408Y-97002962D01*
X157672993Y-96985925D01*
X157787007Y-96920099D01*
X157880099Y-96827007D01*
X157945925Y-96712993D01*
X157962962Y-96649408D01*
X158595270Y-97281717D01*
X158595270Y-97281716D01*
X158634622Y-97227554D01*
X158731095Y-97038217D01*
X158796757Y-96836130D01*
X158796757Y-96836127D01*
X158830000Y-96626246D01*
X158830000Y-96413753D01*
X158796757Y-96203872D01*
X158796757Y-96203869D01*
X158731095Y-96001782D01*
X158634624Y-95812449D01*
X158595270Y-95758282D01*
X158595269Y-95758282D01*
X157962962Y-96390590D01*
X157945925Y-96327007D01*
X157880099Y-96212993D01*
X157787007Y-96119901D01*
X157672993Y-96054075D01*
X157609409Y-96037037D01*
X158241716Y-95404728D01*
X158187550Y-95365375D01*
X157998217Y-95268904D01*
X157796129Y-95203242D01*
X157586246Y-95170000D01*
X157373754Y-95170000D01*
X157163872Y-95203242D01*
X157163869Y-95203242D01*
X156961782Y-95268904D01*
X156772439Y-95365380D01*
X156718282Y-95404727D01*
X156718282Y-95404728D01*
X157350591Y-96037037D01*
X157287007Y-96054075D01*
X157172993Y-96119901D01*
X157079901Y-96212993D01*
X157014075Y-96327007D01*
X156997037Y-96390591D01*
X156364728Y-95758282D01*
X156364727Y-95758282D01*
X156325380Y-95812439D01*
X156228904Y-96001782D01*
X156163242Y-96203869D01*
X156163242Y-96203872D01*
X156130000Y-96413753D01*
X156130000Y-96626246D01*
X156163242Y-96836127D01*
X156163242Y-96836130D01*
X156228904Y-97038217D01*
X156325375Y-97227550D01*
X156364728Y-97281716D01*
X156997036Y-96649407D01*
X157014075Y-96712993D01*
X157079901Y-96827007D01*
X157172993Y-96920099D01*
X157287007Y-96985925D01*
X157350590Y-97002962D01*
X156718282Y-97635269D01*
X156718282Y-97635270D01*
X156772452Y-97674626D01*
X156772451Y-97674626D01*
X156781495Y-97679234D01*
X156789508Y-97686802D01*
X156799824Y-97690687D01*
X156814459Y-97710366D01*
X156832292Y-97727208D01*
X156834941Y-97737907D01*
X156841519Y-97746752D01*
X156843191Y-97771221D01*
X156849087Y-97795029D01*
X156845531Y-97805462D01*
X156846283Y-97816460D01*
X156834461Y-97837948D01*
X156826550Y-97861164D01*
X156817036Y-97869621D01*
X156812605Y-97877677D01*
X156787636Y-97895757D01*
X156784284Y-97898738D01*
X156782872Y-97899502D01*
X156772184Y-97904949D01*
X156770306Y-97906313D01*
X156764391Y-97909519D01*
X156739568Y-97914837D01*
X156705308Y-97924500D01*
X146039500Y-97924500D01*
X145972461Y-97904815D01*
X145926706Y-97852011D01*
X145915500Y-97800500D01*
X145915500Y-88085803D01*
X173010000Y-88085803D01*
X173010000Y-88650000D01*
X173826988Y-88650000D01*
X173794075Y-88707007D01*
X173760000Y-88834174D01*
X173760000Y-88965826D01*
X173794075Y-89092993D01*
X173826988Y-89150000D01*
X173010001Y-89150000D01*
X173010001Y-89714197D01*
X173020400Y-89846332D01*
X173075377Y-90064519D01*
X173168428Y-90269374D01*
X173168431Y-90269380D01*
X173296559Y-90454323D01*
X173296569Y-90454335D01*
X173455664Y-90613430D01*
X173455676Y-90613440D01*
X173640619Y-90741568D01*
X173640625Y-90741571D01*
X173845480Y-90834622D01*
X174063667Y-90889599D01*
X174195810Y-90899999D01*
X175009999Y-90899999D01*
X175010000Y-90899998D01*
X175010000Y-89400000D01*
X175510000Y-89400000D01*
X175510000Y-90899999D01*
X176324182Y-90899999D01*
X176324197Y-90899998D01*
X176456332Y-90889599D01*
X176674519Y-90834622D01*
X176879374Y-90741571D01*
X176879380Y-90741568D01*
X177064323Y-90613440D01*
X177064335Y-90613430D01*
X177223430Y-90454335D01*
X177223440Y-90454323D01*
X177351568Y-90269380D01*
X177351571Y-90269374D01*
X177444622Y-90064519D01*
X177499599Y-89846332D01*
X177509999Y-89714196D01*
X177510000Y-89714184D01*
X177510000Y-89150000D01*
X176693012Y-89150000D01*
X176725925Y-89092993D01*
X176760000Y-88965826D01*
X176760000Y-88834174D01*
X176725925Y-88707007D01*
X176693012Y-88650000D01*
X177509999Y-88650000D01*
X177509999Y-88085817D01*
X177509998Y-88085802D01*
X177499599Y-87953667D01*
X177444622Y-87735480D01*
X177351571Y-87530625D01*
X177351568Y-87530619D01*
X177223440Y-87345676D01*
X177223430Y-87345664D01*
X177064335Y-87186569D01*
X177064323Y-87186559D01*
X176879380Y-87058431D01*
X176879374Y-87058428D01*
X176674519Y-86965377D01*
X176456332Y-86910400D01*
X176324196Y-86900000D01*
X175510000Y-86900000D01*
X175510000Y-88400000D01*
X175010000Y-88400000D01*
X175010000Y-86900000D01*
X174195817Y-86900000D01*
X174195802Y-86900001D01*
X174063667Y-86910400D01*
X173845480Y-86965377D01*
X173640625Y-87058428D01*
X173640619Y-87058431D01*
X173455676Y-87186559D01*
X173455664Y-87186569D01*
X173296569Y-87345664D01*
X173296559Y-87345676D01*
X173168431Y-87530619D01*
X173168428Y-87530625D01*
X173075377Y-87735480D01*
X173020400Y-87953667D01*
X173010000Y-88085803D01*
X145915500Y-88085803D01*
X145915500Y-86270634D01*
X145887540Y-86094103D01*
X145887539Y-86094099D01*
X145887539Y-86094098D01*
X145832310Y-85924121D01*
X145832308Y-85924118D01*
X145751166Y-85764867D01*
X145706182Y-85702952D01*
X145646111Y-85620272D01*
X145519728Y-85493889D01*
X145375132Y-85388833D01*
X145215881Y-85307691D01*
X145215878Y-85307689D01*
X145045899Y-85252460D01*
X144928209Y-85233820D01*
X144869366Y-85224500D01*
X104229366Y-85224500D01*
X104050634Y-85224500D01*
X103991790Y-85233820D01*
X103874101Y-85252460D01*
X103874098Y-85252460D01*
X103704121Y-85307689D01*
X103704118Y-85307691D01*
X103544867Y-85388833D01*
X103400270Y-85493890D01*
X103273891Y-85620269D01*
X103273884Y-85620278D01*
X103213817Y-85702952D01*
X103158487Y-85745618D01*
X103088874Y-85751596D01*
X103027079Y-85718990D01*
X102992722Y-85658151D01*
X102989500Y-85630066D01*
X102989500Y-83944000D01*
X103009185Y-83876961D01*
X103061989Y-83831206D01*
X103113500Y-83820000D01*
X200536000Y-83820000D01*
X200603039Y-83839685D01*
G37*
%TD.AperFunction*%
%TA.AperFunction,Conductor*%
G36*
X156767711Y-100213100D02*
G01*
X156767844Y-100212840D01*
X156769153Y-100213507D01*
X156770099Y-100213774D01*
X156772180Y-100215049D01*
X156780946Y-100219516D01*
X156788927Y-100227054D01*
X156799204Y-100230916D01*
X156813878Y-100250620D01*
X156831742Y-100267491D01*
X156834380Y-100278147D01*
X156840938Y-100286952D01*
X156842630Y-100311463D01*
X156848536Y-100335312D01*
X156844994Y-100345703D01*
X156845751Y-100356655D01*
X156833924Y-100378188D01*
X156825998Y-100401447D01*
X156816518Y-100409880D01*
X156812116Y-100417896D01*
X156787262Y-100435906D01*
X156783810Y-100438978D01*
X156782392Y-100439747D01*
X156772184Y-100444949D01*
X156770331Y-100446295D01*
X156764468Y-100449478D01*
X156739666Y-100454809D01*
X156705308Y-100464500D01*
X149949366Y-100464500D01*
X149770634Y-100464500D01*
X149711790Y-100473820D01*
X149594101Y-100492460D01*
X149594098Y-100492460D01*
X149424121Y-100547689D01*
X149424118Y-100547691D01*
X149264867Y-100628833D01*
X149120270Y-100733890D01*
X148993890Y-100860270D01*
X148888833Y-101004867D01*
X148807691Y-101164118D01*
X148807689Y-101164121D01*
X148752460Y-101334098D01*
X148752460Y-101334101D01*
X148724500Y-101510634D01*
X148724500Y-143520500D01*
X148704815Y-143587539D01*
X148652011Y-143633294D01*
X148600500Y-143644500D01*
X140221702Y-143644500D01*
X140154663Y-143624815D01*
X140134021Y-143608181D01*
X115471819Y-118945979D01*
X115438334Y-118884656D01*
X115435500Y-118858298D01*
X115435500Y-111670634D01*
X115419087Y-111567007D01*
X115407540Y-111494103D01*
X115407539Y-111494099D01*
X115407539Y-111494098D01*
X115352310Y-111324121D01*
X115352308Y-111324118D01*
X115337001Y-111294075D01*
X115271167Y-111164868D01*
X115166111Y-111020272D01*
X115039728Y-110893889D01*
X114895132Y-110788833D01*
X114735881Y-110707691D01*
X114735878Y-110707689D01*
X114565899Y-110652460D01*
X114448209Y-110633820D01*
X114389366Y-110624500D01*
X114389365Y-110624500D01*
X107454692Y-110624500D01*
X107392290Y-110606899D01*
X107392157Y-110607161D01*
X107390843Y-110606491D01*
X107389901Y-110606226D01*
X107387824Y-110604953D01*
X107198414Y-110508444D01*
X107198413Y-110508443D01*
X107198412Y-110508443D01*
X106996243Y-110442754D01*
X106996241Y-110442753D01*
X106996240Y-110442753D01*
X106834957Y-110417208D01*
X106786287Y-110409500D01*
X106573713Y-110409500D01*
X106525042Y-110417208D01*
X106363760Y-110442753D01*
X106161585Y-110508444D01*
X105972179Y-110604951D01*
X105800213Y-110729890D01*
X105649890Y-110880213D01*
X105524949Y-111052182D01*
X105509984Y-111081553D01*
X105462009Y-111132348D01*
X105394188Y-111149143D01*
X105328054Y-111126605D01*
X105284603Y-111071889D01*
X105275500Y-111025257D01*
X105275500Y-107987203D01*
X105295185Y-107920164D01*
X105347989Y-107874409D01*
X105417147Y-107864465D01*
X105473812Y-107887937D01*
X105587910Y-107973352D01*
X105587913Y-107973354D01*
X105722620Y-108023596D01*
X105722627Y-108023598D01*
X105782155Y-108029999D01*
X105782172Y-108030000D01*
X106430000Y-108030000D01*
X106430000Y-107113012D01*
X106487007Y-107145925D01*
X106614174Y-107180000D01*
X106745826Y-107180000D01*
X106872993Y-107145925D01*
X106930000Y-107113012D01*
X106930000Y-108030000D01*
X107577828Y-108030000D01*
X107577844Y-108029999D01*
X107637372Y-108023598D01*
X107637379Y-108023596D01*
X107772086Y-107973354D01*
X107772093Y-107973350D01*
X107887187Y-107887190D01*
X107887190Y-107887187D01*
X107973350Y-107772093D01*
X107973354Y-107772086D01*
X108023596Y-107637379D01*
X108023598Y-107637372D01*
X108029999Y-107577844D01*
X108030000Y-107577827D01*
X108030000Y-106930000D01*
X107113012Y-106930000D01*
X107145925Y-106872993D01*
X107180000Y-106745826D01*
X107180000Y-106614174D01*
X107145925Y-106487007D01*
X107113012Y-106430000D01*
X108030000Y-106430000D01*
X108030000Y-105782172D01*
X108029999Y-105782155D01*
X108023598Y-105722627D01*
X108023596Y-105722620D01*
X107973354Y-105587913D01*
X107973350Y-105587906D01*
X107887190Y-105472812D01*
X107887187Y-105472809D01*
X107772093Y-105386649D01*
X107772088Y-105386646D01*
X107640528Y-105337577D01*
X107584595Y-105295705D01*
X107560178Y-105230241D01*
X107575030Y-105161968D01*
X107596175Y-105133720D01*
X107710104Y-105019792D01*
X107835051Y-104847816D01*
X107931557Y-104658412D01*
X107997246Y-104456243D01*
X108030500Y-104246287D01*
X108030500Y-104033713D01*
X107997246Y-103823757D01*
X107931557Y-103621588D01*
X107835051Y-103432184D01*
X107835049Y-103432181D01*
X107835048Y-103432179D01*
X107710109Y-103260213D01*
X107559786Y-103109890D01*
X107387820Y-102984951D01*
X107387115Y-102984591D01*
X107379054Y-102980485D01*
X107371072Y-102972945D01*
X107360793Y-102969083D01*
X107346118Y-102949379D01*
X107328259Y-102932512D01*
X107325619Y-102921853D01*
X107319060Y-102913046D01*
X107317367Y-102888535D01*
X107311463Y-102864692D01*
X107315004Y-102854299D01*
X107314248Y-102843342D01*
X107326075Y-102821808D01*
X107333999Y-102798556D01*
X107343480Y-102790121D01*
X107347885Y-102782102D01*
X107372746Y-102764086D01*
X107376192Y-102761021D01*
X107377611Y-102760250D01*
X107387816Y-102755051D01*
X107389666Y-102753706D01*
X107395535Y-102750521D01*
X107420334Y-102745190D01*
X107454692Y-102735500D01*
X138925308Y-102735500D01*
X138987711Y-102753100D01*
X138987844Y-102752840D01*
X138989153Y-102753507D01*
X138990099Y-102753774D01*
X138992180Y-102755049D01*
X139000946Y-102759516D01*
X139051742Y-102807491D01*
X139068536Y-102875312D01*
X139045998Y-102941447D01*
X139000946Y-102980484D01*
X138992182Y-102984949D01*
X138820213Y-103109890D01*
X138669890Y-103260213D01*
X138544951Y-103432179D01*
X138448444Y-103621585D01*
X138382753Y-103823760D01*
X138349500Y-104033713D01*
X138349500Y-104246286D01*
X138382753Y-104456239D01*
X138448444Y-104658414D01*
X138544951Y-104847820D01*
X138669890Y-105019786D01*
X138820213Y-105170109D01*
X138992182Y-105295050D01*
X139000946Y-105299516D01*
X139051742Y-105347491D01*
X139068536Y-105415312D01*
X139045998Y-105481447D01*
X139000946Y-105520484D01*
X138992182Y-105524949D01*
X138820213Y-105649890D01*
X138669890Y-105800213D01*
X138544951Y-105972179D01*
X138448444Y-106161585D01*
X138382753Y-106363760D01*
X138381291Y-106372993D01*
X138349500Y-106573713D01*
X138349500Y-106786287D01*
X138359534Y-106849644D01*
X138382753Y-106996239D01*
X138448444Y-107198414D01*
X138544951Y-107387820D01*
X138669890Y-107559786D01*
X138820213Y-107710109D01*
X138992182Y-107835050D01*
X139000946Y-107839516D01*
X139051742Y-107887491D01*
X139068536Y-107955312D01*
X139045998Y-108021447D01*
X139000946Y-108060484D01*
X138992182Y-108064949D01*
X138820213Y-108189890D01*
X138669890Y-108340213D01*
X138544951Y-108512179D01*
X138448444Y-108701585D01*
X138382753Y-108903760D01*
X138349500Y-109113713D01*
X138349500Y-109326286D01*
X138382753Y-109536239D01*
X138448444Y-109738414D01*
X138544951Y-109927820D01*
X138669890Y-110099786D01*
X138820213Y-110250109D01*
X138992182Y-110375050D01*
X139000946Y-110379516D01*
X139051742Y-110427491D01*
X139068536Y-110495312D01*
X139045998Y-110561447D01*
X139000946Y-110600484D01*
X138992182Y-110604949D01*
X138820213Y-110729890D01*
X138669890Y-110880213D01*
X138544951Y-111052179D01*
X138448444Y-111241585D01*
X138382753Y-111443760D01*
X138349500Y-111653713D01*
X138349500Y-111866286D01*
X138382753Y-112076239D01*
X138448444Y-112278414D01*
X138544951Y-112467820D01*
X138669890Y-112639786D01*
X138820213Y-112790109D01*
X138992182Y-112915050D01*
X139000946Y-112919516D01*
X139008927Y-112927054D01*
X139019204Y-112930916D01*
X139033878Y-112950620D01*
X139051742Y-112967491D01*
X139054380Y-112978147D01*
X139060938Y-112986952D01*
X139062630Y-113011463D01*
X139068536Y-113035312D01*
X139064994Y-113045703D01*
X139065751Y-113056655D01*
X139053924Y-113078188D01*
X139045998Y-113101447D01*
X139036518Y-113109880D01*
X139032116Y-113117896D01*
X139007262Y-113135906D01*
X139003810Y-113138978D01*
X139002392Y-113139747D01*
X138992184Y-113144949D01*
X138990331Y-113146295D01*
X138984468Y-113149478D01*
X138959666Y-113154809D01*
X138925308Y-113164500D01*
X131990634Y-113164500D01*
X131931790Y-113173820D01*
X131814101Y-113192460D01*
X131814098Y-113192460D01*
X131644121Y-113247689D01*
X131644118Y-113247691D01*
X131484867Y-113328833D01*
X131340270Y-113433890D01*
X131213890Y-113560270D01*
X131108833Y-113704867D01*
X131027691Y-113864118D01*
X131027689Y-113864121D01*
X130972460Y-114034098D01*
X130972460Y-114034101D01*
X130944500Y-114210634D01*
X130944500Y-114389365D01*
X130972460Y-114565898D01*
X130972460Y-114565901D01*
X131027689Y-114735878D01*
X131027691Y-114735881D01*
X131108833Y-114895132D01*
X131213889Y-115039728D01*
X131340272Y-115166111D01*
X131484868Y-115271167D01*
X131644119Y-115352309D01*
X131644121Y-115352310D01*
X131760862Y-115390241D01*
X131814103Y-115407540D01*
X131990634Y-115435500D01*
X138925308Y-115435500D01*
X138939632Y-115439137D01*
X138951369Y-115438269D01*
X138977653Y-115448791D01*
X138984468Y-115450522D01*
X138990331Y-115453704D01*
X138992184Y-115455051D01*
X139002392Y-115460252D01*
X139003810Y-115461022D01*
X139027481Y-115484577D01*
X139051742Y-115507491D01*
X139052145Y-115509121D01*
X139053336Y-115510306D01*
X139060509Y-115542896D01*
X139068536Y-115575312D01*
X139067993Y-115576902D01*
X139068355Y-115578543D01*
X139056768Y-115609841D01*
X139045998Y-115641447D01*
X139044630Y-115642632D01*
X139044099Y-115644067D01*
X139035554Y-115650495D01*
X139000946Y-115680484D01*
X138992182Y-115684949D01*
X138820213Y-115809890D01*
X138669890Y-115960213D01*
X138544951Y-116132179D01*
X138448444Y-116321585D01*
X138382753Y-116523760D01*
X138374780Y-116574101D01*
X138349500Y-116733713D01*
X138349500Y-116946287D01*
X138359534Y-117009644D01*
X138382753Y-117156239D01*
X138448444Y-117358414D01*
X138544951Y-117547820D01*
X138669890Y-117719786D01*
X138820213Y-117870109D01*
X138992182Y-117995050D01*
X139000946Y-117999516D01*
X139051742Y-118047491D01*
X139068536Y-118115312D01*
X139045998Y-118181447D01*
X139000946Y-118220484D01*
X138992182Y-118224949D01*
X138820213Y-118349890D01*
X138669890Y-118500213D01*
X138544951Y-118672179D01*
X138448444Y-118861585D01*
X138382753Y-119063760D01*
X138349500Y-119273713D01*
X138349500Y-119486287D01*
X138382754Y-119696243D01*
X138421628Y-119815885D01*
X138448444Y-119898414D01*
X138544951Y-120087820D01*
X138669890Y-120259786D01*
X138820213Y-120410109D01*
X138992182Y-120535050D01*
X139000946Y-120539516D01*
X139051742Y-120587491D01*
X139068536Y-120655312D01*
X139045998Y-120721447D01*
X139000946Y-120760484D01*
X138992182Y-120764949D01*
X138820213Y-120889890D01*
X138669890Y-121040213D01*
X138544951Y-121212179D01*
X138448444Y-121401585D01*
X138382753Y-121603760D01*
X138349500Y-121813713D01*
X138349500Y-122026286D01*
X138382753Y-122236239D01*
X138448444Y-122438414D01*
X138544951Y-122627820D01*
X138669890Y-122799786D01*
X138820213Y-122950109D01*
X138992182Y-123075050D01*
X139000946Y-123079516D01*
X139051742Y-123127491D01*
X139068536Y-123195312D01*
X139045998Y-123261447D01*
X139000946Y-123300484D01*
X138992182Y-123304949D01*
X138820213Y-123429890D01*
X138669890Y-123580213D01*
X138544951Y-123752179D01*
X138448444Y-123941585D01*
X138382753Y-124143760D01*
X138349500Y-124353713D01*
X138349500Y-124566286D01*
X138382753Y-124776239D01*
X138448444Y-124978414D01*
X138544951Y-125167820D01*
X138669890Y-125339786D01*
X138820213Y-125490109D01*
X138992182Y-125615050D01*
X139000946Y-125619516D01*
X139051742Y-125667491D01*
X139068536Y-125735312D01*
X139045998Y-125801447D01*
X139000946Y-125840484D01*
X138992182Y-125844949D01*
X138820213Y-125969890D01*
X138669890Y-126120213D01*
X138544951Y-126292179D01*
X138448444Y-126481585D01*
X138382753Y-126683760D01*
X138349500Y-126893713D01*
X138349500Y-127106286D01*
X138382753Y-127316239D01*
X138448444Y-127518414D01*
X138544951Y-127707820D01*
X138669890Y-127879786D01*
X138820213Y-128030109D01*
X138992179Y-128155048D01*
X138992181Y-128155049D01*
X138992184Y-128155051D01*
X139001493Y-128159794D01*
X139052290Y-128207766D01*
X139069087Y-128275587D01*
X139046552Y-128341722D01*
X139001505Y-128380760D01*
X138992446Y-128385376D01*
X138992440Y-128385380D01*
X138938282Y-128424727D01*
X138938282Y-128424728D01*
X139570591Y-129057037D01*
X139507007Y-129074075D01*
X139392993Y-129139901D01*
X139299901Y-129232993D01*
X139234075Y-129347007D01*
X139217037Y-129410591D01*
X138584728Y-128778282D01*
X138584727Y-128778282D01*
X138545380Y-128832439D01*
X138448904Y-129021782D01*
X138383242Y-129223869D01*
X138383242Y-129223872D01*
X138350000Y-129433753D01*
X138350000Y-129646246D01*
X138383242Y-129856127D01*
X138383242Y-129856130D01*
X138448904Y-130058217D01*
X138545375Y-130247550D01*
X138584728Y-130301716D01*
X139217037Y-129669408D01*
X139234075Y-129732993D01*
X139299901Y-129847007D01*
X139392993Y-129940099D01*
X139507007Y-130005925D01*
X139570590Y-130022962D01*
X138938282Y-130655269D01*
X138938282Y-130655270D01*
X138992452Y-130694626D01*
X138992451Y-130694626D01*
X139001495Y-130699234D01*
X139052292Y-130747208D01*
X139069087Y-130815029D01*
X139046550Y-130881164D01*
X139001499Y-130920202D01*
X138992182Y-130924949D01*
X138820213Y-131049890D01*
X138669890Y-131200213D01*
X138544951Y-131372179D01*
X138448444Y-131561585D01*
X138382753Y-131763760D01*
X138349500Y-131973713D01*
X138349500Y-132186286D01*
X138382753Y-132396239D01*
X138448444Y-132598414D01*
X138544951Y-132787820D01*
X138669890Y-132959786D01*
X138820213Y-133110109D01*
X138992182Y-133235050D01*
X139000946Y-133239516D01*
X139051742Y-133287491D01*
X139068536Y-133355312D01*
X139045998Y-133421447D01*
X139000946Y-133460484D01*
X138992182Y-133464949D01*
X138820213Y-133589890D01*
X138669890Y-133740213D01*
X138544951Y-133912179D01*
X138448444Y-134101585D01*
X138382753Y-134303760D01*
X138349500Y-134513713D01*
X138349500Y-134726286D01*
X138382753Y-134936239D01*
X138448444Y-135138414D01*
X138544951Y-135327820D01*
X138669890Y-135499786D01*
X138820213Y-135650109D01*
X138992179Y-135775048D01*
X138992181Y-135775049D01*
X138992184Y-135775051D01*
X139181588Y-135871557D01*
X139383757Y-135937246D01*
X139593713Y-135970500D01*
X139593714Y-135970500D01*
X139806286Y-135970500D01*
X139806287Y-135970500D01*
X140016243Y-135937246D01*
X140218412Y-135871557D01*
X140407816Y-135775051D01*
X140494471Y-135712093D01*
X140579786Y-135650109D01*
X140579788Y-135650106D01*
X140579792Y-135650104D01*
X140730104Y-135499792D01*
X140730106Y-135499788D01*
X140730109Y-135499786D01*
X140855048Y-135327820D01*
X140855047Y-135327820D01*
X140855051Y-135327816D01*
X140951557Y-135138412D01*
X141017246Y-134936243D01*
X141050500Y-134726287D01*
X141050500Y-134513713D01*
X141017246Y-134303757D01*
X140951557Y-134101588D01*
X140855051Y-133912184D01*
X140855049Y-133912181D01*
X140855048Y-133912179D01*
X140730109Y-133740213D01*
X140579786Y-133589890D01*
X140407820Y-133464951D01*
X140407115Y-133464591D01*
X140399054Y-133460485D01*
X140348259Y-133412512D01*
X140331463Y-133344692D01*
X140353999Y-133278556D01*
X140399054Y-133239515D01*
X140407816Y-133235051D01*
X140494478Y-133172088D01*
X140579786Y-133110109D01*
X140579788Y-133110106D01*
X140579792Y-133110104D01*
X140730104Y-132959792D01*
X140730106Y-132959788D01*
X140730109Y-132959786D01*
X140855048Y-132787820D01*
X140855047Y-132787820D01*
X140855051Y-132787816D01*
X140951557Y-132598412D01*
X141017246Y-132396243D01*
X141050500Y-132186287D01*
X141050500Y-131973713D01*
X141017246Y-131763757D01*
X140951557Y-131561588D01*
X140855051Y-131372184D01*
X140855049Y-131372181D01*
X140855048Y-131372179D01*
X140730109Y-131200213D01*
X140579786Y-131049890D01*
X140407817Y-130924949D01*
X140398504Y-130920204D01*
X140347707Y-130872230D01*
X140330912Y-130804409D01*
X140353449Y-130738274D01*
X140398507Y-130699232D01*
X140407555Y-130694622D01*
X140461716Y-130655270D01*
X140461717Y-130655270D01*
X139829408Y-130022962D01*
X139892993Y-130005925D01*
X140007007Y-129940099D01*
X140100099Y-129847007D01*
X140165925Y-129732993D01*
X140182962Y-129669409D01*
X140815270Y-130301717D01*
X140815270Y-130301716D01*
X140854622Y-130247554D01*
X140951095Y-130058217D01*
X141016757Y-129856130D01*
X141016757Y-129856127D01*
X141050000Y-129646246D01*
X141050000Y-129433753D01*
X141016757Y-129223872D01*
X141016757Y-129223869D01*
X140951095Y-129021782D01*
X140854624Y-128832449D01*
X140815270Y-128778282D01*
X140815269Y-128778282D01*
X140182962Y-129410590D01*
X140165925Y-129347007D01*
X140100099Y-129232993D01*
X140007007Y-129139901D01*
X139892993Y-129074075D01*
X139829409Y-129057037D01*
X140461716Y-128424728D01*
X140407547Y-128385373D01*
X140407547Y-128385372D01*
X140398500Y-128380763D01*
X140390486Y-128373193D01*
X140380169Y-128369308D01*
X140365533Y-128349626D01*
X140347706Y-128332788D01*
X140345056Y-128322088D01*
X140338477Y-128313240D01*
X140336805Y-128288768D01*
X140330912Y-128264966D01*
X140334468Y-128254531D01*
X140333717Y-128243532D01*
X140345540Y-128222044D01*
X140353451Y-128198832D01*
X140362965Y-128190374D01*
X140367399Y-128182317D01*
X140392364Y-128164241D01*
X140395722Y-128161257D01*
X140397076Y-128160523D01*
X140407816Y-128155051D01*
X140409697Y-128153684D01*
X140415616Y-128150477D01*
X140440442Y-128145160D01*
X140474692Y-128135500D01*
X144869365Y-128135500D01*
X144869366Y-128135500D01*
X145045897Y-128107540D01*
X145045900Y-128107539D01*
X145045901Y-128107539D01*
X145215878Y-128052310D01*
X145215878Y-128052309D01*
X145215881Y-128052309D01*
X145375132Y-127971167D01*
X145519728Y-127866111D01*
X145646111Y-127739728D01*
X145751167Y-127595132D01*
X145832309Y-127435881D01*
X145887540Y-127265897D01*
X145915500Y-127089366D01*
X145915500Y-100319500D01*
X145935185Y-100252461D01*
X145987989Y-100206706D01*
X146039500Y-100195500D01*
X156705308Y-100195500D01*
X156767711Y-100213100D01*
G37*
%TD.AperFunction*%
%TA.AperFunction,Conductor*%
G36*
X179885338Y-112915185D02*
G01*
X179905980Y-112931819D01*
X191689289Y-124715129D01*
X191720975Y-124771698D01*
X191721249Y-124771610D01*
X191721695Y-124772982D01*
X191722178Y-124773845D01*
X191722753Y-124776239D01*
X191788444Y-124978414D01*
X191884951Y-125167820D01*
X192009890Y-125339786D01*
X192160213Y-125490109D01*
X192332179Y-125615048D01*
X192332181Y-125615049D01*
X192332184Y-125615051D01*
X192521588Y-125711557D01*
X192723757Y-125777246D01*
X192933713Y-125810500D01*
X192933714Y-125810500D01*
X193146286Y-125810500D01*
X193146287Y-125810500D01*
X193356243Y-125777246D01*
X193558412Y-125711557D01*
X193747816Y-125615051D01*
X193837020Y-125550241D01*
X193919786Y-125490109D01*
X193919788Y-125490106D01*
X193919792Y-125490104D01*
X194070104Y-125339792D01*
X194070106Y-125339788D01*
X194070109Y-125339786D01*
X194195048Y-125167820D01*
X194195047Y-125167820D01*
X194195051Y-125167816D01*
X194210015Y-125138446D01*
X194257989Y-125087651D01*
X194325810Y-125070856D01*
X194391945Y-125093393D01*
X194435397Y-125148108D01*
X194444500Y-125194742D01*
X194444500Y-128232171D01*
X194424815Y-128299210D01*
X194372011Y-128344965D01*
X194302853Y-128354909D01*
X194246189Y-128331438D01*
X194188755Y-128288443D01*
X194132331Y-128246204D01*
X194132329Y-128246203D01*
X194132328Y-128246202D01*
X193997482Y-128195908D01*
X193997483Y-128195908D01*
X193937883Y-128189501D01*
X193937881Y-128189500D01*
X193937873Y-128189500D01*
X193937864Y-128189500D01*
X192142129Y-128189500D01*
X192142123Y-128189501D01*
X192082516Y-128195908D01*
X191947671Y-128246202D01*
X191947664Y-128246206D01*
X191832455Y-128332452D01*
X191832452Y-128332455D01*
X191746206Y-128447664D01*
X191746202Y-128447671D01*
X191695908Y-128582517D01*
X191689501Y-128642116D01*
X191689500Y-128642135D01*
X191689500Y-130437870D01*
X191689501Y-130437876D01*
X191695908Y-130497483D01*
X191746202Y-130632328D01*
X191746206Y-130632335D01*
X191832452Y-130747544D01*
X191832455Y-130747547D01*
X191947664Y-130833793D01*
X191947671Y-130833797D01*
X191956479Y-130837082D01*
X192082517Y-130884091D01*
X192142127Y-130890500D01*
X192152685Y-130890499D01*
X192219723Y-130910179D01*
X192240372Y-130926818D01*
X192910591Y-131597037D01*
X192847007Y-131614075D01*
X192732993Y-131679901D01*
X192639901Y-131772993D01*
X192574075Y-131887007D01*
X192557037Y-131950591D01*
X191924728Y-131318282D01*
X191924727Y-131318282D01*
X191885380Y-131372439D01*
X191788904Y-131561782D01*
X191723242Y-131763869D01*
X191723242Y-131763872D01*
X191690000Y-131973753D01*
X191690000Y-132186246D01*
X191723242Y-132396127D01*
X191723242Y-132396130D01*
X191788904Y-132598217D01*
X191885375Y-132787550D01*
X191924728Y-132841716D01*
X192557037Y-132209408D01*
X192574075Y-132272993D01*
X192639901Y-132387007D01*
X192732993Y-132480099D01*
X192847007Y-132545925D01*
X192910590Y-132562962D01*
X192278282Y-133195269D01*
X192278282Y-133195270D01*
X192332452Y-133234626D01*
X192332451Y-133234626D01*
X192341495Y-133239234D01*
X192349508Y-133246802D01*
X192359824Y-133250687D01*
X192374459Y-133270366D01*
X192392292Y-133287208D01*
X192394941Y-133297907D01*
X192401519Y-133306752D01*
X192403191Y-133331221D01*
X192409087Y-133355029D01*
X192405531Y-133365462D01*
X192406283Y-133376460D01*
X192394461Y-133397948D01*
X192386550Y-133421164D01*
X192377036Y-133429621D01*
X192372605Y-133437677D01*
X192347636Y-133455757D01*
X192344284Y-133458738D01*
X192342872Y-133459502D01*
X192332184Y-133464949D01*
X192330306Y-133466313D01*
X192324391Y-133469519D01*
X192299568Y-133474837D01*
X192265308Y-133484500D01*
X185330634Y-133484500D01*
X185271790Y-133493820D01*
X185154101Y-133512460D01*
X185154098Y-133512460D01*
X184984121Y-133567689D01*
X184984118Y-133567691D01*
X184824867Y-133648833D01*
X184680270Y-133753890D01*
X184553890Y-133880270D01*
X184448833Y-134024867D01*
X184367691Y-134184118D01*
X184367689Y-134184121D01*
X184312460Y-134354098D01*
X184312460Y-134354101D01*
X184284500Y-134530634D01*
X184284500Y-134709365D01*
X184312460Y-134885898D01*
X184312460Y-134885901D01*
X184367689Y-135055878D01*
X184367691Y-135055881D01*
X184448833Y-135215132D01*
X184553889Y-135359728D01*
X184680272Y-135486111D01*
X184824868Y-135591167D01*
X184984119Y-135672309D01*
X184984121Y-135672310D01*
X185106540Y-135712086D01*
X185154103Y-135727540D01*
X185330634Y-135755500D01*
X192265308Y-135755500D01*
X192327709Y-135773100D01*
X192327843Y-135772839D01*
X192329156Y-135773508D01*
X192330099Y-135773774D01*
X192332175Y-135775046D01*
X192332182Y-135775049D01*
X192332184Y-135775051D01*
X192521588Y-135871557D01*
X192723757Y-135937246D01*
X192933713Y-135970500D01*
X192933714Y-135970500D01*
X193146286Y-135970500D01*
X193146287Y-135970500D01*
X193356243Y-135937246D01*
X193558412Y-135871557D01*
X193747816Y-135775051D01*
X193834471Y-135712093D01*
X193919786Y-135650109D01*
X193919788Y-135650106D01*
X193919792Y-135650104D01*
X194070104Y-135499792D01*
X194070106Y-135499788D01*
X194070109Y-135499786D01*
X194195048Y-135327820D01*
X194195047Y-135327820D01*
X194195051Y-135327816D01*
X194210015Y-135298446D01*
X194257989Y-135247651D01*
X194325810Y-135230856D01*
X194391945Y-135253393D01*
X194435397Y-135308108D01*
X194444500Y-135354742D01*
X194444500Y-138440500D01*
X194424815Y-138507539D01*
X194372011Y-138553294D01*
X194320500Y-138564500D01*
X189283549Y-138564500D01*
X189216510Y-138544815D01*
X189184282Y-138514810D01*
X189167550Y-138492458D01*
X189167547Y-138492455D01*
X189167546Y-138492454D01*
X189109371Y-138448904D01*
X189052335Y-138406206D01*
X189052328Y-138406202D01*
X188917482Y-138355908D01*
X188917483Y-138355908D01*
X188857883Y-138349501D01*
X188857881Y-138349500D01*
X188857873Y-138349500D01*
X188857864Y-138349500D01*
X187062129Y-138349500D01*
X187062123Y-138349501D01*
X187002516Y-138355908D01*
X186867671Y-138406202D01*
X186867664Y-138406206D01*
X186752455Y-138492452D01*
X186752452Y-138492455D01*
X186666206Y-138607664D01*
X186666202Y-138607671D01*
X186615908Y-138742517D01*
X186609501Y-138802116D01*
X186609500Y-138802135D01*
X186609500Y-138812690D01*
X186589815Y-138879729D01*
X186573181Y-138900371D01*
X185902962Y-139570590D01*
X185885925Y-139507007D01*
X185820099Y-139392993D01*
X185727007Y-139299901D01*
X185612993Y-139234075D01*
X185549409Y-139217037D01*
X186181716Y-138584728D01*
X186127550Y-138545375D01*
X185938217Y-138448904D01*
X185736129Y-138383242D01*
X185526246Y-138350000D01*
X185313754Y-138350000D01*
X185103872Y-138383242D01*
X185103869Y-138383242D01*
X184901782Y-138448904D01*
X184712439Y-138545380D01*
X184658282Y-138584727D01*
X184658282Y-138584728D01*
X185290591Y-139217037D01*
X185227007Y-139234075D01*
X185112993Y-139299901D01*
X185019901Y-139392993D01*
X184954075Y-139507007D01*
X184937037Y-139570591D01*
X184304728Y-138938282D01*
X184304727Y-138938282D01*
X184265380Y-138992440D01*
X184260483Y-139002051D01*
X184212506Y-139052845D01*
X184144684Y-139069638D01*
X184078550Y-139047098D01*
X184039516Y-139002048D01*
X184034626Y-138992452D01*
X183995270Y-138938282D01*
X183995269Y-138938282D01*
X183362962Y-139570590D01*
X183345925Y-139507007D01*
X183280099Y-139392993D01*
X183187007Y-139299901D01*
X183072993Y-139234075D01*
X183009409Y-139217037D01*
X183641716Y-138584728D01*
X183587550Y-138545375D01*
X183398217Y-138448904D01*
X183196129Y-138383242D01*
X182986246Y-138350000D01*
X182773754Y-138350000D01*
X182563872Y-138383242D01*
X182563869Y-138383242D01*
X182361782Y-138448904D01*
X182172439Y-138545380D01*
X182118282Y-138584727D01*
X182118282Y-138584728D01*
X182750591Y-139217037D01*
X182687007Y-139234075D01*
X182572993Y-139299901D01*
X182479901Y-139392993D01*
X182414075Y-139507007D01*
X182397037Y-139570591D01*
X181764728Y-138938282D01*
X181764727Y-138938282D01*
X181725380Y-138992440D01*
X181725376Y-138992446D01*
X181720760Y-139001505D01*
X181672781Y-139052297D01*
X181604959Y-139069087D01*
X181538826Y-139046543D01*
X181499794Y-139001493D01*
X181495051Y-138992184D01*
X181495049Y-138992181D01*
X181495048Y-138992179D01*
X181370109Y-138820213D01*
X181219786Y-138669890D01*
X181047820Y-138544951D01*
X180858414Y-138448444D01*
X180858413Y-138448443D01*
X180858412Y-138448443D01*
X180656243Y-138382754D01*
X180656241Y-138382753D01*
X180656240Y-138382753D01*
X180494957Y-138357208D01*
X180446287Y-138349500D01*
X180233713Y-138349500D01*
X180185042Y-138357208D01*
X180023760Y-138382753D01*
X179821585Y-138448444D01*
X179632175Y-138544953D01*
X179630099Y-138546226D01*
X179629156Y-138546491D01*
X179627843Y-138547161D01*
X179627709Y-138546899D01*
X179565308Y-138564500D01*
X170701702Y-138564500D01*
X170634663Y-138544815D01*
X170614021Y-138528181D01*
X163299726Y-131213887D01*
X163280904Y-131200213D01*
X163271483Y-131193368D01*
X163155132Y-131108833D01*
X162995881Y-131027691D01*
X162995875Y-131027688D01*
X162954194Y-131014146D01*
X162873437Y-130987906D01*
X162825897Y-130972459D01*
X162825895Y-130972458D01*
X162825894Y-130972458D01*
X162649370Y-130944500D01*
X162649366Y-130944500D01*
X158254692Y-130944500D01*
X158240366Y-130940862D01*
X158228634Y-130941731D01*
X158202350Y-130931209D01*
X158195535Y-130929479D01*
X158189666Y-130926293D01*
X158187816Y-130924949D01*
X158177611Y-130919749D01*
X158176192Y-130918979D01*
X158152532Y-130895436D01*
X158128259Y-130872512D01*
X158127855Y-130870881D01*
X158126664Y-130869696D01*
X158119484Y-130837082D01*
X158111463Y-130804692D01*
X158112004Y-130803102D01*
X158111643Y-130801460D01*
X158123236Y-130770141D01*
X158133999Y-130738556D01*
X158135366Y-130737370D01*
X158135898Y-130735936D01*
X158144443Y-130729505D01*
X158179054Y-130699515D01*
X158187816Y-130695051D01*
X158274138Y-130632335D01*
X158359786Y-130570109D01*
X158359788Y-130570106D01*
X158359792Y-130570104D01*
X158510104Y-130419792D01*
X158510106Y-130419788D01*
X158510109Y-130419786D01*
X158635048Y-130247820D01*
X158635047Y-130247820D01*
X158635051Y-130247816D01*
X158731557Y-130058412D01*
X158797246Y-129856243D01*
X158830500Y-129646287D01*
X158830500Y-129433713D01*
X158797246Y-129223757D01*
X158731557Y-129021588D01*
X158635051Y-128832184D01*
X158635049Y-128832181D01*
X158635048Y-128832179D01*
X158510109Y-128660213D01*
X158359786Y-128509890D01*
X158187820Y-128384951D01*
X158179600Y-128380763D01*
X158179054Y-128380485D01*
X158128259Y-128332512D01*
X158111463Y-128264692D01*
X158133999Y-128198556D01*
X158179054Y-128159515D01*
X158187816Y-128155051D01*
X158274471Y-128092093D01*
X158359786Y-128030109D01*
X158359788Y-128030106D01*
X158359792Y-128030104D01*
X158510104Y-127879792D01*
X158510106Y-127879788D01*
X158510109Y-127879786D01*
X158635048Y-127707820D01*
X158635047Y-127707820D01*
X158635051Y-127707816D01*
X158731557Y-127518412D01*
X158797246Y-127316243D01*
X158830500Y-127106287D01*
X158830500Y-126893713D01*
X158797246Y-126683757D01*
X158731557Y-126481588D01*
X158635051Y-126292184D01*
X158635049Y-126292181D01*
X158635048Y-126292179D01*
X158510109Y-126120213D01*
X158359786Y-125969890D01*
X158187820Y-125844951D01*
X158187115Y-125844591D01*
X158179054Y-125840485D01*
X158171072Y-125832945D01*
X158160793Y-125829083D01*
X158146118Y-125809379D01*
X158128259Y-125792512D01*
X158125619Y-125781853D01*
X158119060Y-125773046D01*
X158117367Y-125748535D01*
X158111463Y-125724692D01*
X158115004Y-125714299D01*
X158114248Y-125703342D01*
X158126075Y-125681808D01*
X158133999Y-125658556D01*
X158143480Y-125650121D01*
X158147885Y-125642102D01*
X158172746Y-125624086D01*
X158176192Y-125621021D01*
X158177611Y-125620250D01*
X158187816Y-125615051D01*
X158189666Y-125613706D01*
X158195535Y-125610521D01*
X158220334Y-125605190D01*
X158254692Y-125595500D01*
X159498299Y-125595500D01*
X159565338Y-125615185D01*
X159585980Y-125631819D01*
X166289289Y-132335129D01*
X166320975Y-132391698D01*
X166321249Y-132391610D01*
X166321695Y-132392982D01*
X166322178Y-132393845D01*
X166322753Y-132396239D01*
X166388444Y-132598414D01*
X166484951Y-132787820D01*
X166609890Y-132959786D01*
X166760213Y-133110109D01*
X166932179Y-133235048D01*
X166932181Y-133235049D01*
X166932184Y-133235051D01*
X167121588Y-133331557D01*
X167323757Y-133397246D01*
X167533713Y-133430500D01*
X167533714Y-133430500D01*
X167746286Y-133430500D01*
X167746287Y-133430500D01*
X167956243Y-133397246D01*
X168158412Y-133331557D01*
X168347816Y-133235051D01*
X168434478Y-133172088D01*
X168519786Y-133110109D01*
X168519788Y-133110106D01*
X168519792Y-133110104D01*
X168670104Y-132959792D01*
X168670106Y-132959788D01*
X168670109Y-132959786D01*
X168795048Y-132787820D01*
X168795047Y-132787820D01*
X168795051Y-132787816D01*
X168799514Y-132779054D01*
X168847488Y-132728259D01*
X168915308Y-132711463D01*
X168981444Y-132733999D01*
X169020486Y-132779056D01*
X169024951Y-132787820D01*
X169149890Y-132959786D01*
X169300213Y-133110109D01*
X169472179Y-133235048D01*
X169472181Y-133235049D01*
X169472184Y-133235051D01*
X169661588Y-133331557D01*
X169863757Y-133397246D01*
X170073713Y-133430500D01*
X170073714Y-133430500D01*
X170286286Y-133430500D01*
X170286287Y-133430500D01*
X170496243Y-133397246D01*
X170698412Y-133331557D01*
X170887816Y-133235051D01*
X170974478Y-133172088D01*
X171059786Y-133110109D01*
X171059788Y-133110106D01*
X171059792Y-133110104D01*
X171210104Y-132959792D01*
X171210106Y-132959788D01*
X171210109Y-132959786D01*
X171335048Y-132787820D01*
X171335047Y-132787820D01*
X171335051Y-132787816D01*
X171339514Y-132779054D01*
X171387488Y-132728259D01*
X171455308Y-132711463D01*
X171521444Y-132733999D01*
X171560486Y-132779056D01*
X171564951Y-132787820D01*
X171689890Y-132959786D01*
X171840213Y-133110109D01*
X172012179Y-133235048D01*
X172012181Y-133235049D01*
X172012184Y-133235051D01*
X172201588Y-133331557D01*
X172403757Y-133397246D01*
X172613713Y-133430500D01*
X172613714Y-133430500D01*
X172826286Y-133430500D01*
X172826287Y-133430500D01*
X173036243Y-133397246D01*
X173238412Y-133331557D01*
X173427816Y-133235051D01*
X173514478Y-133172088D01*
X173599784Y-133110110D01*
X173599784Y-133110109D01*
X173599792Y-133110104D01*
X173713717Y-132996178D01*
X173775036Y-132962696D01*
X173844728Y-132967680D01*
X173900662Y-133009551D01*
X173917577Y-133040528D01*
X173966646Y-133172088D01*
X173966649Y-133172093D01*
X174052809Y-133287187D01*
X174052812Y-133287190D01*
X174167906Y-133373350D01*
X174167913Y-133373354D01*
X174302620Y-133423596D01*
X174302627Y-133423598D01*
X174362155Y-133429999D01*
X174362172Y-133430000D01*
X175010000Y-133430000D01*
X175010000Y-132513012D01*
X175067007Y-132545925D01*
X175194174Y-132580000D01*
X175325826Y-132580000D01*
X175452993Y-132545925D01*
X175510000Y-132513012D01*
X175510000Y-133430000D01*
X176157828Y-133430000D01*
X176157844Y-133429999D01*
X176217372Y-133423598D01*
X176217379Y-133423596D01*
X176352086Y-133373354D01*
X176352093Y-133373350D01*
X176467187Y-133287190D01*
X176467190Y-133287187D01*
X176553350Y-133172093D01*
X176553354Y-133172086D01*
X176603596Y-133037379D01*
X176603598Y-133037372D01*
X176609999Y-132977844D01*
X176610000Y-132977827D01*
X176610000Y-132330000D01*
X175693012Y-132330000D01*
X175725925Y-132272993D01*
X175760000Y-132145826D01*
X175760000Y-132014174D01*
X175725925Y-131887007D01*
X175693012Y-131830000D01*
X176610000Y-131830000D01*
X176610000Y-131182172D01*
X176609999Y-131182155D01*
X176603598Y-131122627D01*
X176603596Y-131122620D01*
X176553354Y-130987913D01*
X176553350Y-130987906D01*
X176467190Y-130872812D01*
X176467187Y-130872809D01*
X176352093Y-130786649D01*
X176352086Y-130786645D01*
X176217379Y-130736403D01*
X176217372Y-130736401D01*
X176157844Y-130730000D01*
X175510000Y-130730000D01*
X175510000Y-131646988D01*
X175452993Y-131614075D01*
X175325826Y-131580000D01*
X175194174Y-131580000D01*
X175067007Y-131614075D01*
X175010000Y-131646988D01*
X175010000Y-130730000D01*
X174362155Y-130730000D01*
X174302627Y-130736401D01*
X174302620Y-130736403D01*
X174167913Y-130786645D01*
X174167906Y-130786649D01*
X174053811Y-130872062D01*
X173988347Y-130896480D01*
X173920074Y-130881629D01*
X173870668Y-130832224D01*
X173855500Y-130772796D01*
X173855500Y-116750634D01*
X173839087Y-116647007D01*
X173827540Y-116574103D01*
X173827539Y-116574099D01*
X173827539Y-116574098D01*
X173772310Y-116404121D01*
X173772308Y-116404118D01*
X173757001Y-116374075D01*
X173691167Y-116244868D01*
X173586111Y-116100272D01*
X173459728Y-115973889D01*
X173315132Y-115868833D01*
X173155881Y-115787691D01*
X173155878Y-115787689D01*
X172985899Y-115732460D01*
X172868209Y-115713820D01*
X172809366Y-115704500D01*
X172630634Y-115704500D01*
X172571790Y-115713820D01*
X172454101Y-115732460D01*
X172454098Y-115732460D01*
X172284121Y-115787689D01*
X172284118Y-115787691D01*
X172124867Y-115868833D01*
X171980270Y-115973890D01*
X171853890Y-116100270D01*
X171748833Y-116244867D01*
X171667691Y-116404118D01*
X171667689Y-116404121D01*
X171612460Y-116574098D01*
X171612460Y-116574101D01*
X171584500Y-116750634D01*
X171584500Y-131305308D01*
X171580862Y-131319632D01*
X171581731Y-131331369D01*
X171571208Y-131357653D01*
X171569478Y-131364468D01*
X171566295Y-131370331D01*
X171564949Y-131372184D01*
X171559747Y-131382392D01*
X171558978Y-131383810D01*
X171535422Y-131407481D01*
X171512509Y-131431742D01*
X171510878Y-131432145D01*
X171509694Y-131433336D01*
X171477103Y-131440509D01*
X171444688Y-131448536D01*
X171443097Y-131447993D01*
X171441457Y-131448355D01*
X171410158Y-131436768D01*
X171378553Y-131425998D01*
X171377367Y-131424630D01*
X171375933Y-131424099D01*
X171369504Y-131415554D01*
X171339516Y-131380946D01*
X171335050Y-131372182D01*
X171210109Y-131200213D01*
X171059786Y-131049890D01*
X170887820Y-130924951D01*
X170698414Y-130828444D01*
X170698413Y-130828443D01*
X170698412Y-130828443D01*
X170496243Y-130762754D01*
X170496241Y-130762753D01*
X170496230Y-130762750D01*
X170493848Y-130762178D01*
X170492989Y-130761697D01*
X170491610Y-130761249D01*
X170491699Y-130760974D01*
X170435128Y-130729289D01*
X160759726Y-121053887D01*
X160740904Y-121040213D01*
X160731483Y-121033368D01*
X160615132Y-120948833D01*
X160455881Y-120867691D01*
X160455875Y-120867688D01*
X160414194Y-120854146D01*
X160347453Y-120832460D01*
X160285897Y-120812459D01*
X160285895Y-120812458D01*
X160285894Y-120812458D01*
X160109370Y-120784500D01*
X160109366Y-120784500D01*
X158254692Y-120784500D01*
X158240366Y-120780862D01*
X158228634Y-120781731D01*
X158202350Y-120771209D01*
X158195535Y-120769479D01*
X158189666Y-120766293D01*
X158187816Y-120764949D01*
X158177611Y-120759749D01*
X158176192Y-120758979D01*
X158152532Y-120735436D01*
X158128259Y-120712512D01*
X158127855Y-120710881D01*
X158126664Y-120709696D01*
X158119484Y-120677082D01*
X158111463Y-120644692D01*
X158112004Y-120643102D01*
X158111643Y-120641460D01*
X158123236Y-120610141D01*
X158133999Y-120578556D01*
X158135366Y-120577370D01*
X158135898Y-120575936D01*
X158144443Y-120569505D01*
X158179054Y-120539515D01*
X158187816Y-120535051D01*
X158274138Y-120472335D01*
X158359786Y-120410109D01*
X158359788Y-120410106D01*
X158359792Y-120410104D01*
X158510104Y-120259792D01*
X158510106Y-120259788D01*
X158510109Y-120259786D01*
X158635048Y-120087820D01*
X158635047Y-120087820D01*
X158635051Y-120087816D01*
X158731557Y-119898412D01*
X158797246Y-119696243D01*
X158830500Y-119486287D01*
X158830500Y-119273713D01*
X158797246Y-119063757D01*
X158731557Y-118861588D01*
X158635051Y-118672184D01*
X158635049Y-118672181D01*
X158635048Y-118672179D01*
X158510109Y-118500213D01*
X158359786Y-118349890D01*
X158187820Y-118224951D01*
X158187115Y-118224591D01*
X158179054Y-118220485D01*
X158128259Y-118172512D01*
X158111463Y-118104692D01*
X158133999Y-118038556D01*
X158179054Y-117999515D01*
X158187816Y-117995051D01*
X158274471Y-117932093D01*
X158359786Y-117870109D01*
X158359788Y-117870106D01*
X158359792Y-117870104D01*
X158510104Y-117719792D01*
X158510106Y-117719788D01*
X158510109Y-117719786D01*
X158635048Y-117547820D01*
X158635047Y-117547820D01*
X158635051Y-117547816D01*
X158731557Y-117358412D01*
X158797246Y-117156243D01*
X158830500Y-116946287D01*
X158830500Y-116733713D01*
X158797246Y-116523757D01*
X158731557Y-116321588D01*
X158635051Y-116132184D01*
X158635049Y-116132181D01*
X158635048Y-116132179D01*
X158510109Y-115960213D01*
X158359786Y-115809890D01*
X158187820Y-115684951D01*
X158187115Y-115684591D01*
X158179054Y-115680485D01*
X158128259Y-115632512D01*
X158111463Y-115564692D01*
X158133999Y-115498556D01*
X158179054Y-115459515D01*
X158187816Y-115455051D01*
X158214726Y-115435500D01*
X158359786Y-115330109D01*
X158359788Y-115330106D01*
X158359792Y-115330104D01*
X158510104Y-115179792D01*
X158510106Y-115179788D01*
X158510109Y-115179786D01*
X158635048Y-115007820D01*
X158635047Y-115007820D01*
X158635051Y-115007816D01*
X158731557Y-114818412D01*
X158797246Y-114616243D01*
X158830500Y-114406287D01*
X158830500Y-114193713D01*
X158797246Y-113983757D01*
X158731557Y-113781588D01*
X158635051Y-113592184D01*
X158635049Y-113592181D01*
X158635048Y-113592179D01*
X158510109Y-113420213D01*
X158359786Y-113269890D01*
X158187820Y-113144951D01*
X158187115Y-113144591D01*
X158179054Y-113140485D01*
X158171072Y-113132945D01*
X158160793Y-113129083D01*
X158146118Y-113109379D01*
X158128259Y-113092512D01*
X158125619Y-113081853D01*
X158119060Y-113073046D01*
X158117367Y-113048535D01*
X158111463Y-113024692D01*
X158115004Y-113014299D01*
X158114248Y-113003342D01*
X158126075Y-112981808D01*
X158133999Y-112958556D01*
X158143480Y-112950121D01*
X158147885Y-112942102D01*
X158172746Y-112924086D01*
X158176192Y-112921021D01*
X158177611Y-112920250D01*
X158187816Y-112915051D01*
X158189666Y-112913706D01*
X158195535Y-112910521D01*
X158220334Y-112905190D01*
X158254692Y-112895500D01*
X179818299Y-112895500D01*
X179885338Y-112915185D01*
G37*
%TD.AperFunction*%
%TA.AperFunction,Conductor*%
G36*
X194155270Y-132841717D02*
G01*
X194155270Y-132841716D01*
X194194622Y-132787554D01*
X194210015Y-132757345D01*
X194257989Y-132706549D01*
X194325810Y-132689754D01*
X194391945Y-132712291D01*
X194435397Y-132767006D01*
X194444500Y-132813640D01*
X194444500Y-133885257D01*
X194424815Y-133952296D01*
X194372011Y-133998051D01*
X194302853Y-134007995D01*
X194239297Y-133978970D01*
X194210016Y-133941553D01*
X194195050Y-133912182D01*
X194070109Y-133740213D01*
X193919786Y-133589890D01*
X193747817Y-133464949D01*
X193738504Y-133460204D01*
X193687707Y-133412230D01*
X193670912Y-133344409D01*
X193693449Y-133278274D01*
X193738507Y-133239232D01*
X193747555Y-133234622D01*
X193801716Y-133195270D01*
X193801717Y-133195270D01*
X193169408Y-132562962D01*
X193232993Y-132545925D01*
X193347007Y-132480099D01*
X193440099Y-132387007D01*
X193505925Y-132272993D01*
X193522962Y-132209409D01*
X194155270Y-132841717D01*
G37*
%TD.AperFunction*%
%TA.AperFunction,Conductor*%
G36*
X194379926Y-130738995D02*
G01*
X194429332Y-130788400D01*
X194444500Y-130847828D01*
X194444500Y-131346359D01*
X194424815Y-131413398D01*
X194372011Y-131459153D01*
X194302853Y-131469097D01*
X194239297Y-131440072D01*
X194210016Y-131402655D01*
X194194626Y-131372452D01*
X194155270Y-131318282D01*
X194155269Y-131318282D01*
X193522962Y-131950590D01*
X193505925Y-131887007D01*
X193440099Y-131772993D01*
X193347007Y-131679901D01*
X193232993Y-131614075D01*
X193169409Y-131597037D01*
X193839627Y-130926818D01*
X193900950Y-130893333D01*
X193927307Y-130890499D01*
X193937872Y-130890499D01*
X193997483Y-130884091D01*
X194132331Y-130833796D01*
X194195317Y-130786645D01*
X194246189Y-130748562D01*
X194311653Y-130724144D01*
X194379926Y-130738995D01*
G37*
%TD.AperFunction*%
%TA.AperFunction,Conductor*%
G36*
X143587539Y-87515185D02*
G01*
X143633294Y-87567989D01*
X143644500Y-87619500D01*
X143644500Y-125740500D01*
X143624815Y-125807539D01*
X143572011Y-125853294D01*
X143520500Y-125864500D01*
X140474692Y-125864500D01*
X140460366Y-125860862D01*
X140448634Y-125861731D01*
X140422350Y-125851209D01*
X140415535Y-125849479D01*
X140409666Y-125846293D01*
X140407816Y-125844949D01*
X140397611Y-125839749D01*
X140396192Y-125838979D01*
X140372532Y-125815436D01*
X140348259Y-125792512D01*
X140347855Y-125790881D01*
X140346664Y-125789696D01*
X140339484Y-125757082D01*
X140331463Y-125724692D01*
X140332004Y-125723102D01*
X140331643Y-125721460D01*
X140343236Y-125690141D01*
X140353999Y-125658556D01*
X140355366Y-125657370D01*
X140355898Y-125655936D01*
X140364443Y-125649505D01*
X140399054Y-125619515D01*
X140407816Y-125615051D01*
X140497020Y-125550241D01*
X140579786Y-125490109D01*
X140579788Y-125490106D01*
X140579792Y-125490104D01*
X140730104Y-125339792D01*
X140730106Y-125339788D01*
X140730109Y-125339786D01*
X140855048Y-125167820D01*
X140855047Y-125167820D01*
X140855051Y-125167816D01*
X140951557Y-124978412D01*
X141017246Y-124776243D01*
X141050500Y-124566287D01*
X141050500Y-124353713D01*
X141017246Y-124143757D01*
X140951557Y-123941588D01*
X140855051Y-123752184D01*
X140855049Y-123752181D01*
X140855048Y-123752179D01*
X140730109Y-123580213D01*
X140579786Y-123429890D01*
X140407820Y-123304951D01*
X140407115Y-123304591D01*
X140399054Y-123300485D01*
X140348259Y-123252512D01*
X140331463Y-123184692D01*
X140353999Y-123118556D01*
X140399054Y-123079515D01*
X140407816Y-123075051D01*
X140462570Y-123035270D01*
X140579786Y-122950109D01*
X140579788Y-122950106D01*
X140579792Y-122950104D01*
X140730104Y-122799792D01*
X140730106Y-122799788D01*
X140730109Y-122799786D01*
X140855048Y-122627820D01*
X140855047Y-122627820D01*
X140855051Y-122627816D01*
X140951557Y-122438412D01*
X141017246Y-122236243D01*
X141050500Y-122026287D01*
X141050500Y-121813713D01*
X141017246Y-121603757D01*
X140951557Y-121401588D01*
X140855051Y-121212184D01*
X140855049Y-121212181D01*
X140855048Y-121212179D01*
X140730109Y-121040213D01*
X140579786Y-120889890D01*
X140407820Y-120764951D01*
X140407115Y-120764591D01*
X140399054Y-120760485D01*
X140348259Y-120712512D01*
X140331463Y-120644692D01*
X140353999Y-120578556D01*
X140399054Y-120539515D01*
X140407816Y-120535051D01*
X140494138Y-120472335D01*
X140579786Y-120410109D01*
X140579788Y-120410106D01*
X140579792Y-120410104D01*
X140730104Y-120259792D01*
X140730106Y-120259788D01*
X140730109Y-120259786D01*
X140855048Y-120087820D01*
X140855047Y-120087820D01*
X140855051Y-120087816D01*
X140951557Y-119898412D01*
X141017246Y-119696243D01*
X141050500Y-119486287D01*
X141050500Y-119273713D01*
X141017246Y-119063757D01*
X140951557Y-118861588D01*
X140855051Y-118672184D01*
X140855049Y-118672181D01*
X140855048Y-118672179D01*
X140730109Y-118500213D01*
X140579786Y-118349890D01*
X140407820Y-118224951D01*
X140407115Y-118224591D01*
X140399054Y-118220485D01*
X140348259Y-118172512D01*
X140331463Y-118104692D01*
X140353999Y-118038556D01*
X140399054Y-117999515D01*
X140407816Y-117995051D01*
X140494471Y-117932093D01*
X140579786Y-117870109D01*
X140579788Y-117870106D01*
X140579792Y-117870104D01*
X140730104Y-117719792D01*
X140730106Y-117719788D01*
X140730109Y-117719786D01*
X140855048Y-117547820D01*
X140855047Y-117547820D01*
X140855051Y-117547816D01*
X140951557Y-117358412D01*
X141017246Y-117156243D01*
X141050500Y-116946287D01*
X141050500Y-116733713D01*
X141017246Y-116523757D01*
X140951557Y-116321588D01*
X140855051Y-116132184D01*
X140855049Y-116132181D01*
X140855048Y-116132179D01*
X140730109Y-115960213D01*
X140579786Y-115809890D01*
X140407820Y-115684951D01*
X140407115Y-115684591D01*
X140399054Y-115680485D01*
X140348259Y-115632512D01*
X140331463Y-115564692D01*
X140353999Y-115498556D01*
X140399054Y-115459515D01*
X140407816Y-115455051D01*
X140434726Y-115435500D01*
X140579786Y-115330109D01*
X140579788Y-115330106D01*
X140579792Y-115330104D01*
X140730104Y-115179792D01*
X140730106Y-115179788D01*
X140730109Y-115179786D01*
X140855048Y-115007820D01*
X140855047Y-115007820D01*
X140855051Y-115007816D01*
X140951557Y-114818412D01*
X141017246Y-114616243D01*
X141050500Y-114406287D01*
X141050500Y-114193713D01*
X141017246Y-113983757D01*
X140951557Y-113781588D01*
X140855051Y-113592184D01*
X140855049Y-113592181D01*
X140855048Y-113592179D01*
X140730109Y-113420213D01*
X140579786Y-113269890D01*
X140407820Y-113144951D01*
X140407115Y-113144591D01*
X140399054Y-113140485D01*
X140348259Y-113092512D01*
X140331463Y-113024692D01*
X140353999Y-112958556D01*
X140399054Y-112919515D01*
X140407816Y-112915051D01*
X140462572Y-112875269D01*
X140579786Y-112790109D01*
X140579788Y-112790106D01*
X140579792Y-112790104D01*
X140730104Y-112639792D01*
X140730106Y-112639788D01*
X140730109Y-112639786D01*
X140855048Y-112467820D01*
X140855047Y-112467820D01*
X140855051Y-112467816D01*
X140951557Y-112278412D01*
X141017246Y-112076243D01*
X141050500Y-111866287D01*
X141050500Y-111653713D01*
X141017246Y-111443757D01*
X140951557Y-111241588D01*
X140855051Y-111052184D01*
X140855049Y-111052181D01*
X140855048Y-111052179D01*
X140730109Y-110880213D01*
X140579786Y-110729890D01*
X140407820Y-110604951D01*
X140407115Y-110604591D01*
X140399054Y-110600485D01*
X140348259Y-110552512D01*
X140331463Y-110484692D01*
X140353999Y-110418556D01*
X140399054Y-110379515D01*
X140407816Y-110375051D01*
X140494138Y-110312335D01*
X140579786Y-110250109D01*
X140579788Y-110250106D01*
X140579792Y-110250104D01*
X140730104Y-110099792D01*
X140730106Y-110099788D01*
X140730109Y-110099786D01*
X140855048Y-109927820D01*
X140855047Y-109927820D01*
X140855051Y-109927816D01*
X140951557Y-109738412D01*
X141017246Y-109536243D01*
X141050500Y-109326287D01*
X141050500Y-109113713D01*
X141017246Y-108903757D01*
X140951557Y-108701588D01*
X140855051Y-108512184D01*
X140855049Y-108512181D01*
X140855048Y-108512179D01*
X140730109Y-108340213D01*
X140579786Y-108189890D01*
X140407820Y-108064951D01*
X140407115Y-108064591D01*
X140399054Y-108060485D01*
X140348259Y-108012512D01*
X140331463Y-107944692D01*
X140353999Y-107878556D01*
X140399054Y-107839515D01*
X140407816Y-107835051D01*
X140434726Y-107815500D01*
X140579786Y-107710109D01*
X140579788Y-107710106D01*
X140579792Y-107710104D01*
X140730104Y-107559792D01*
X140730106Y-107559788D01*
X140730109Y-107559786D01*
X140855048Y-107387820D01*
X140855047Y-107387820D01*
X140855051Y-107387816D01*
X140951557Y-107198412D01*
X141017246Y-106996243D01*
X141050500Y-106786287D01*
X141050500Y-106573713D01*
X141017246Y-106363757D01*
X140951557Y-106161588D01*
X140855051Y-105972184D01*
X140855049Y-105972181D01*
X140855048Y-105972179D01*
X140730109Y-105800213D01*
X140579786Y-105649890D01*
X140407820Y-105524951D01*
X140407115Y-105524591D01*
X140399054Y-105520485D01*
X140348259Y-105472512D01*
X140331463Y-105404692D01*
X140353999Y-105338556D01*
X140399054Y-105299515D01*
X140407816Y-105295051D01*
X140497020Y-105230241D01*
X140579786Y-105170109D01*
X140579788Y-105170106D01*
X140579792Y-105170104D01*
X140730104Y-105019792D01*
X140730106Y-105019788D01*
X140730109Y-105019786D01*
X140855048Y-104847820D01*
X140855047Y-104847820D01*
X140855051Y-104847816D01*
X140951557Y-104658412D01*
X141017246Y-104456243D01*
X141050500Y-104246287D01*
X141050500Y-104033713D01*
X141017246Y-103823757D01*
X140951557Y-103621588D01*
X140855051Y-103432184D01*
X140855049Y-103432181D01*
X140855048Y-103432179D01*
X140730109Y-103260213D01*
X140579786Y-103109890D01*
X140407820Y-102984951D01*
X140407115Y-102984591D01*
X140399054Y-102980485D01*
X140348259Y-102932512D01*
X140331463Y-102864692D01*
X140353999Y-102798556D01*
X140399054Y-102759515D01*
X140407816Y-102755051D01*
X140462572Y-102715269D01*
X140579786Y-102630109D01*
X140579788Y-102630106D01*
X140579792Y-102630104D01*
X140730104Y-102479792D01*
X140730106Y-102479788D01*
X140730109Y-102479786D01*
X140855048Y-102307820D01*
X140855047Y-102307820D01*
X140855051Y-102307816D01*
X140951557Y-102118412D01*
X141017246Y-101916243D01*
X141050500Y-101706287D01*
X141050500Y-101493713D01*
X141017246Y-101283757D01*
X140951557Y-101081588D01*
X140855051Y-100892184D01*
X140855049Y-100892181D01*
X140855048Y-100892179D01*
X140730109Y-100720213D01*
X140579786Y-100569890D01*
X140407820Y-100444951D01*
X140407115Y-100444591D01*
X140399054Y-100440485D01*
X140348259Y-100392512D01*
X140331463Y-100324692D01*
X140353999Y-100258556D01*
X140399054Y-100219515D01*
X140407816Y-100215051D01*
X140473211Y-100167539D01*
X140579786Y-100090109D01*
X140579788Y-100090106D01*
X140579792Y-100090104D01*
X140730104Y-99939792D01*
X140730106Y-99939788D01*
X140730109Y-99939786D01*
X140855048Y-99767820D01*
X140855047Y-99767820D01*
X140855051Y-99767816D01*
X140951557Y-99578412D01*
X141017246Y-99376243D01*
X141050500Y-99166287D01*
X141050500Y-98953713D01*
X141017246Y-98743757D01*
X140951557Y-98541588D01*
X140855051Y-98352184D01*
X140855049Y-98352181D01*
X140855048Y-98352179D01*
X140730109Y-98180213D01*
X140579786Y-98029890D01*
X140407817Y-97904949D01*
X140398504Y-97900204D01*
X140347707Y-97852230D01*
X140330912Y-97784409D01*
X140353449Y-97718274D01*
X140398507Y-97679232D01*
X140407555Y-97674622D01*
X140461716Y-97635270D01*
X140461717Y-97635270D01*
X139829408Y-97002962D01*
X139892993Y-96985925D01*
X140007007Y-96920099D01*
X140100099Y-96827007D01*
X140165925Y-96712993D01*
X140182962Y-96649409D01*
X140815270Y-97281717D01*
X140815270Y-97281716D01*
X140854622Y-97227554D01*
X140951095Y-97038217D01*
X141016757Y-96836130D01*
X141016757Y-96836127D01*
X141050000Y-96626246D01*
X141050000Y-96413753D01*
X141016757Y-96203872D01*
X141016757Y-96203869D01*
X140951095Y-96001782D01*
X140854624Y-95812449D01*
X140815270Y-95758282D01*
X140815269Y-95758282D01*
X140182962Y-96390590D01*
X140165925Y-96327007D01*
X140100099Y-96212993D01*
X140007007Y-96119901D01*
X139892993Y-96054075D01*
X139829409Y-96037037D01*
X140461716Y-95404728D01*
X140407550Y-95365375D01*
X140218217Y-95268904D01*
X140016129Y-95203242D01*
X139806246Y-95170000D01*
X139593754Y-95170000D01*
X139383872Y-95203242D01*
X139383869Y-95203242D01*
X139181782Y-95268904D01*
X138992439Y-95365380D01*
X138938282Y-95404727D01*
X138938282Y-95404728D01*
X139570591Y-96037037D01*
X139507007Y-96054075D01*
X139392993Y-96119901D01*
X139299901Y-96212993D01*
X139234075Y-96327007D01*
X139217037Y-96390591D01*
X138584728Y-95758282D01*
X138584727Y-95758282D01*
X138545380Y-95812439D01*
X138448904Y-96001782D01*
X138383242Y-96203869D01*
X138383242Y-96203872D01*
X138350000Y-96413753D01*
X138350000Y-96626246D01*
X138383242Y-96836127D01*
X138383242Y-96836130D01*
X138448904Y-97038217D01*
X138545375Y-97227550D01*
X138584728Y-97281716D01*
X139217037Y-96649408D01*
X139234075Y-96712993D01*
X139299901Y-96827007D01*
X139392993Y-96920099D01*
X139507007Y-96985925D01*
X139570590Y-97002962D01*
X138938282Y-97635269D01*
X138938282Y-97635270D01*
X138992452Y-97674626D01*
X138992451Y-97674626D01*
X139001495Y-97679234D01*
X139009508Y-97686802D01*
X139019824Y-97690687D01*
X139034459Y-97710366D01*
X139052292Y-97727208D01*
X139054941Y-97737907D01*
X139061519Y-97746752D01*
X139063191Y-97771221D01*
X139069087Y-97795029D01*
X139065531Y-97805462D01*
X139066283Y-97816460D01*
X139054461Y-97837948D01*
X139046550Y-97861164D01*
X139037036Y-97869621D01*
X139032605Y-97877677D01*
X139007636Y-97895757D01*
X139004284Y-97898738D01*
X139002872Y-97899502D01*
X138992184Y-97904949D01*
X138990306Y-97906313D01*
X138984391Y-97909519D01*
X138959568Y-97914837D01*
X138925308Y-97924500D01*
X135141702Y-97924500D01*
X135074663Y-97904815D01*
X135054021Y-97888181D01*
X132705508Y-95539668D01*
X127739726Y-90573887D01*
X127720904Y-90560213D01*
X127711483Y-90553368D01*
X127595132Y-90468833D01*
X127435881Y-90387691D01*
X127435875Y-90387688D01*
X127394194Y-90374146D01*
X127327453Y-90352460D01*
X127265897Y-90332459D01*
X127265895Y-90332458D01*
X127265894Y-90332458D01*
X127089370Y-90304500D01*
X127089366Y-90304500D01*
X107454692Y-90304500D01*
X107392290Y-90286899D01*
X107392157Y-90287161D01*
X107390843Y-90286491D01*
X107389901Y-90286226D01*
X107387824Y-90284953D01*
X107198414Y-90188444D01*
X107198413Y-90188443D01*
X107198412Y-90188443D01*
X106996243Y-90122754D01*
X106996241Y-90122753D01*
X106996240Y-90122753D01*
X106834957Y-90097208D01*
X106786287Y-90089500D01*
X106573713Y-90089500D01*
X106525042Y-90097208D01*
X106363760Y-90122753D01*
X106161585Y-90188444D01*
X105972179Y-90284951D01*
X105800213Y-90409890D01*
X105649890Y-90560213D01*
X105524949Y-90732182D01*
X105509984Y-90761553D01*
X105462009Y-90812348D01*
X105394188Y-90829143D01*
X105328054Y-90806605D01*
X105284603Y-90751889D01*
X105275500Y-90705257D01*
X105275500Y-87619500D01*
X105295185Y-87552461D01*
X105347989Y-87506706D01*
X105399500Y-87495500D01*
X143520500Y-87495500D01*
X143587539Y-87515185D01*
G37*
%TD.AperFunction*%
%TA.AperFunction,Conductor*%
G36*
X194155270Y-122681717D02*
G01*
X194155270Y-122681716D01*
X194194622Y-122627554D01*
X194210015Y-122597345D01*
X194257989Y-122546549D01*
X194325810Y-122529754D01*
X194391945Y-122552291D01*
X194435397Y-122607006D01*
X194444500Y-122653640D01*
X194444500Y-123725257D01*
X194424815Y-123792296D01*
X194372011Y-123838051D01*
X194302853Y-123847995D01*
X194239297Y-123818970D01*
X194210016Y-123781553D01*
X194195050Y-123752182D01*
X194070109Y-123580213D01*
X193919786Y-123429890D01*
X193747817Y-123304949D01*
X193738504Y-123300204D01*
X193687707Y-123252230D01*
X193670912Y-123184409D01*
X193693449Y-123118274D01*
X193738507Y-123079232D01*
X193747555Y-123074622D01*
X193801716Y-123035270D01*
X193801717Y-123035270D01*
X193169408Y-122402962D01*
X193232993Y-122385925D01*
X193347007Y-122320099D01*
X193440099Y-122227007D01*
X193505925Y-122112993D01*
X193522962Y-122049409D01*
X194155270Y-122681717D01*
G37*
%TD.AperFunction*%
%TA.AperFunction,Conductor*%
G36*
X184965338Y-110375185D02*
G01*
X184985980Y-110391819D01*
X189633889Y-115039728D01*
X189760272Y-115166111D01*
X189856669Y-115236148D01*
X189904869Y-115271168D01*
X189949117Y-115293713D01*
X190064119Y-115352309D01*
X190105802Y-115365851D01*
X190105804Y-115365853D01*
X190105805Y-115365853D01*
X190137880Y-115376275D01*
X190234103Y-115407541D01*
X190309759Y-115419523D01*
X190410630Y-115435500D01*
X190410634Y-115435500D01*
X192265308Y-115435500D01*
X192327709Y-115453100D01*
X192327843Y-115452839D01*
X192329156Y-115453508D01*
X192330099Y-115453774D01*
X192332175Y-115455046D01*
X192332182Y-115455049D01*
X192332184Y-115455051D01*
X192521588Y-115551557D01*
X192723757Y-115617246D01*
X192933713Y-115650500D01*
X192933714Y-115650500D01*
X193146286Y-115650500D01*
X193146287Y-115650500D01*
X193356243Y-115617246D01*
X193558412Y-115551557D01*
X193747816Y-115455051D01*
X193774726Y-115435500D01*
X193919786Y-115330109D01*
X193919788Y-115330106D01*
X193919792Y-115330104D01*
X194070104Y-115179792D01*
X194070106Y-115179788D01*
X194070109Y-115179786D01*
X194195048Y-115007820D01*
X194195047Y-115007820D01*
X194195051Y-115007816D01*
X194210015Y-114978446D01*
X194257989Y-114927651D01*
X194325810Y-114910856D01*
X194391945Y-114933393D01*
X194435397Y-114988108D01*
X194444500Y-115034742D01*
X194444500Y-118072171D01*
X194424815Y-118139210D01*
X194372011Y-118184965D01*
X194302853Y-118194909D01*
X194246189Y-118171438D01*
X194195315Y-118133354D01*
X194132331Y-118086204D01*
X194132329Y-118086203D01*
X194132328Y-118086202D01*
X193997482Y-118035908D01*
X193997483Y-118035908D01*
X193937883Y-118029501D01*
X193937881Y-118029500D01*
X193937873Y-118029500D01*
X193937864Y-118029500D01*
X192142129Y-118029500D01*
X192142123Y-118029501D01*
X192082516Y-118035908D01*
X191947671Y-118086202D01*
X191947664Y-118086206D01*
X191832455Y-118172452D01*
X191832452Y-118172455D01*
X191746206Y-118287664D01*
X191746202Y-118287671D01*
X191695908Y-118422517D01*
X191689501Y-118482116D01*
X191689500Y-118482135D01*
X191689500Y-120277870D01*
X191689501Y-120277876D01*
X191695908Y-120337483D01*
X191746202Y-120472328D01*
X191746206Y-120472335D01*
X191832452Y-120587544D01*
X191832455Y-120587547D01*
X191947664Y-120673793D01*
X191947671Y-120673797D01*
X191956479Y-120677082D01*
X192082517Y-120724091D01*
X192142127Y-120730500D01*
X192152685Y-120730499D01*
X192219723Y-120750179D01*
X192240372Y-120766818D01*
X192910591Y-121437037D01*
X192847007Y-121454075D01*
X192732993Y-121519901D01*
X192639901Y-121612993D01*
X192574075Y-121727007D01*
X192557037Y-121790591D01*
X191924728Y-121158282D01*
X191924727Y-121158282D01*
X191885380Y-121212440D01*
X191885378Y-121212443D01*
X191798445Y-121383055D01*
X191750470Y-121433851D01*
X191682649Y-121450645D01*
X191616514Y-121428107D01*
X191600280Y-121414440D01*
X181079726Y-110893887D01*
X181060904Y-110880213D01*
X181051483Y-110873368D01*
X180935132Y-110788833D01*
X180775881Y-110707691D01*
X180775875Y-110707688D01*
X180734194Y-110694146D01*
X180667453Y-110672460D01*
X180605897Y-110652459D01*
X180605895Y-110652458D01*
X180605894Y-110652458D01*
X180429370Y-110624500D01*
X180429366Y-110624500D01*
X158254692Y-110624500D01*
X158246006Y-110621949D01*
X158237045Y-110623238D01*
X158192211Y-110607059D01*
X158192159Y-110607162D01*
X158191343Y-110606746D01*
X158189901Y-110606226D01*
X158187825Y-110604953D01*
X158182796Y-110602391D01*
X158179054Y-110600485D01*
X158128259Y-110552512D01*
X158111463Y-110484692D01*
X158133999Y-110418556D01*
X158179054Y-110379515D01*
X158187816Y-110375051D01*
X158187817Y-110375049D01*
X158187825Y-110375046D01*
X158189901Y-110373774D01*
X158190843Y-110373508D01*
X158192159Y-110372838D01*
X158192292Y-110373099D01*
X158197496Y-110371631D01*
X158203181Y-110366706D01*
X158227211Y-110363250D01*
X158254692Y-110355500D01*
X184898299Y-110355500D01*
X184965338Y-110375185D01*
G37*
%TD.AperFunction*%
%TA.AperFunction,Conductor*%
G36*
X194379926Y-120578995D02*
G01*
X194429332Y-120628400D01*
X194444500Y-120687828D01*
X194444500Y-121186359D01*
X194424815Y-121253398D01*
X194372011Y-121299153D01*
X194302853Y-121309097D01*
X194239297Y-121280072D01*
X194210016Y-121242655D01*
X194194626Y-121212452D01*
X194155270Y-121158282D01*
X194155269Y-121158282D01*
X193522962Y-121790590D01*
X193505925Y-121727007D01*
X193440099Y-121612993D01*
X193347007Y-121519901D01*
X193232993Y-121454075D01*
X193169409Y-121437037D01*
X193839627Y-120766818D01*
X193900950Y-120733333D01*
X193927307Y-120730499D01*
X193937872Y-120730499D01*
X193997483Y-120724091D01*
X194132331Y-120673796D01*
X194246189Y-120588562D01*
X194311653Y-120564144D01*
X194379926Y-120578995D01*
G37*
%TD.AperFunction*%
%TA.AperFunction,Conductor*%
G36*
X113107539Y-112915185D02*
G01*
X113153294Y-112967989D01*
X113164500Y-113019500D01*
X113164500Y-119469370D01*
X113192458Y-119645894D01*
X113208818Y-119696243D01*
X113247692Y-119815885D01*
X113289742Y-119898412D01*
X113328833Y-119975132D01*
X113410706Y-120087820D01*
X113433890Y-120119729D01*
X113886980Y-120572819D01*
X113920465Y-120634142D01*
X113915481Y-120703834D01*
X113873609Y-120759767D01*
X113808145Y-120784184D01*
X113799299Y-120784500D01*
X107454692Y-120784500D01*
X107392290Y-120766899D01*
X107392157Y-120767161D01*
X107390843Y-120766491D01*
X107389901Y-120766226D01*
X107387824Y-120764953D01*
X107198414Y-120668444D01*
X107198413Y-120668443D01*
X107198412Y-120668443D01*
X106996243Y-120602754D01*
X106996241Y-120602753D01*
X106996240Y-120602753D01*
X106807242Y-120572819D01*
X106786287Y-120569500D01*
X106573713Y-120569500D01*
X106552758Y-120572819D01*
X106363760Y-120602753D01*
X106161585Y-120668444D01*
X105972179Y-120764951D01*
X105800213Y-120889890D01*
X105649890Y-121040213D01*
X105524949Y-121212182D01*
X105509984Y-121241553D01*
X105462009Y-121292348D01*
X105394188Y-121309143D01*
X105328054Y-121286605D01*
X105284603Y-121231889D01*
X105275500Y-121185257D01*
X105275500Y-118147203D01*
X105295185Y-118080164D01*
X105347989Y-118034409D01*
X105417147Y-118024465D01*
X105473812Y-118047937D01*
X105587910Y-118133352D01*
X105587913Y-118133354D01*
X105722620Y-118183596D01*
X105722627Y-118183598D01*
X105782155Y-118189999D01*
X105782172Y-118190000D01*
X106430000Y-118190000D01*
X106430000Y-117273012D01*
X106487007Y-117305925D01*
X106614174Y-117340000D01*
X106745826Y-117340000D01*
X106872993Y-117305925D01*
X106930000Y-117273012D01*
X106930000Y-118190000D01*
X107577828Y-118190000D01*
X107577844Y-118189999D01*
X107637372Y-118183598D01*
X107637379Y-118183596D01*
X107772086Y-118133354D01*
X107772093Y-118133350D01*
X107887187Y-118047190D01*
X107887190Y-118047187D01*
X107973350Y-117932093D01*
X107973354Y-117932086D01*
X108023596Y-117797379D01*
X108023598Y-117797372D01*
X108029999Y-117737844D01*
X108030000Y-117737827D01*
X108030000Y-117090000D01*
X107113012Y-117090000D01*
X107145925Y-117032993D01*
X107180000Y-116905826D01*
X107180000Y-116774174D01*
X107145925Y-116647007D01*
X107113012Y-116590000D01*
X108030000Y-116590000D01*
X108030000Y-115942172D01*
X108029999Y-115942155D01*
X108023598Y-115882627D01*
X108023596Y-115882620D01*
X107973354Y-115747913D01*
X107973350Y-115747906D01*
X107887190Y-115632812D01*
X107887187Y-115632809D01*
X107772093Y-115546649D01*
X107772088Y-115546646D01*
X107640528Y-115497577D01*
X107584595Y-115455705D01*
X107560178Y-115390241D01*
X107575030Y-115321968D01*
X107596175Y-115293720D01*
X107710104Y-115179792D01*
X107835051Y-115007816D01*
X107931557Y-114818412D01*
X107997246Y-114616243D01*
X108030500Y-114406287D01*
X108030500Y-114193713D01*
X107997246Y-113983757D01*
X107931557Y-113781588D01*
X107835051Y-113592184D01*
X107835049Y-113592181D01*
X107835048Y-113592179D01*
X107710109Y-113420213D01*
X107559786Y-113269890D01*
X107387820Y-113144951D01*
X107387115Y-113144591D01*
X107379054Y-113140485D01*
X107371072Y-113132945D01*
X107360793Y-113129083D01*
X107346118Y-113109379D01*
X107328259Y-113092512D01*
X107325619Y-113081853D01*
X107319060Y-113073046D01*
X107317367Y-113048535D01*
X107311463Y-113024692D01*
X107315004Y-113014299D01*
X107314248Y-113003342D01*
X107326075Y-112981808D01*
X107333999Y-112958556D01*
X107343480Y-112950121D01*
X107347885Y-112942102D01*
X107372746Y-112924086D01*
X107376192Y-112921021D01*
X107377611Y-112920250D01*
X107387816Y-112915051D01*
X107389666Y-112913706D01*
X107395535Y-112910521D01*
X107420334Y-112905190D01*
X107454692Y-112895500D01*
X113040500Y-112895500D01*
X113107539Y-112915185D01*
G37*
%TD.AperFunction*%
%TA.AperFunction,Conductor*%
G36*
X194155270Y-112521717D02*
G01*
X194155270Y-112521716D01*
X194194622Y-112467554D01*
X194210015Y-112437345D01*
X194257989Y-112386549D01*
X194325810Y-112369754D01*
X194391945Y-112392291D01*
X194435397Y-112447006D01*
X194444500Y-112493640D01*
X194444500Y-113565257D01*
X194424815Y-113632296D01*
X194372011Y-113678051D01*
X194302853Y-113687995D01*
X194239297Y-113658970D01*
X194210016Y-113621553D01*
X194195050Y-113592182D01*
X194070109Y-113420213D01*
X193919786Y-113269890D01*
X193747817Y-113144949D01*
X193738504Y-113140204D01*
X193687707Y-113092230D01*
X193670912Y-113024409D01*
X193693449Y-112958274D01*
X193738507Y-112919232D01*
X193747555Y-112914622D01*
X193801716Y-112875270D01*
X193801717Y-112875270D01*
X193169408Y-112242962D01*
X193232993Y-112225925D01*
X193347007Y-112160099D01*
X193440099Y-112067007D01*
X193505925Y-111952993D01*
X193522962Y-111889409D01*
X194155270Y-112521717D01*
G37*
%TD.AperFunction*%
%TA.AperFunction,Conductor*%
G36*
X194391945Y-104773393D02*
G01*
X194435397Y-104828108D01*
X194444500Y-104874742D01*
X194444500Y-107912171D01*
X194424815Y-107979210D01*
X194372011Y-108024965D01*
X194302853Y-108034909D01*
X194246189Y-108011438D01*
X194195315Y-107973354D01*
X194132331Y-107926204D01*
X194132329Y-107926203D01*
X194132328Y-107926202D01*
X193997482Y-107875908D01*
X193997483Y-107875908D01*
X193937883Y-107869501D01*
X193937881Y-107869500D01*
X193937873Y-107869500D01*
X193937864Y-107869500D01*
X192142129Y-107869500D01*
X192142123Y-107869501D01*
X192082516Y-107875908D01*
X191947671Y-107926202D01*
X191947664Y-107926206D01*
X191832455Y-108012452D01*
X191832452Y-108012455D01*
X191746206Y-108127664D01*
X191746202Y-108127671D01*
X191695908Y-108262517D01*
X191689501Y-108322116D01*
X191689500Y-108322127D01*
X191689500Y-110117870D01*
X191689501Y-110117876D01*
X191695908Y-110177483D01*
X191746202Y-110312328D01*
X191746206Y-110312335D01*
X191832452Y-110427544D01*
X191832455Y-110427547D01*
X191947664Y-110513793D01*
X191947671Y-110513797D01*
X191985291Y-110527828D01*
X192082517Y-110564091D01*
X192142127Y-110570500D01*
X192152685Y-110570499D01*
X192219723Y-110590179D01*
X192240372Y-110606818D01*
X192910591Y-111277037D01*
X192847007Y-111294075D01*
X192732993Y-111359901D01*
X192639901Y-111452993D01*
X192574075Y-111567007D01*
X192557037Y-111630591D01*
X191924728Y-110998282D01*
X191924727Y-110998282D01*
X191885380Y-111052439D01*
X191788904Y-111241782D01*
X191723242Y-111443869D01*
X191723242Y-111443872D01*
X191690000Y-111653753D01*
X191690000Y-111866246D01*
X191723242Y-112076127D01*
X191723242Y-112076130D01*
X191788904Y-112278217D01*
X191885375Y-112467550D01*
X191924728Y-112521716D01*
X192557037Y-111889408D01*
X192574075Y-111952993D01*
X192639901Y-112067007D01*
X192732993Y-112160099D01*
X192847007Y-112225925D01*
X192910590Y-112242962D01*
X192278282Y-112875269D01*
X192278282Y-112875270D01*
X192332452Y-112914626D01*
X192332451Y-112914626D01*
X192341495Y-112919234D01*
X192349508Y-112926802D01*
X192359824Y-112930687D01*
X192374459Y-112950366D01*
X192392292Y-112967208D01*
X192394941Y-112977907D01*
X192401519Y-112986752D01*
X192403191Y-113011221D01*
X192409087Y-113035029D01*
X192405531Y-113045462D01*
X192406283Y-113056460D01*
X192394461Y-113077948D01*
X192386550Y-113101164D01*
X192377036Y-113109621D01*
X192372605Y-113117677D01*
X192347636Y-113135757D01*
X192344284Y-113138738D01*
X192342872Y-113139502D01*
X192332184Y-113144949D01*
X192330306Y-113146313D01*
X192324391Y-113149519D01*
X192299568Y-113154837D01*
X192265308Y-113164500D01*
X191021701Y-113164500D01*
X190954662Y-113144815D01*
X190934020Y-113128181D01*
X186159727Y-108353888D01*
X186116013Y-108322128D01*
X186015132Y-108248833D01*
X185855881Y-108167691D01*
X185855875Y-108167688D01*
X185814194Y-108154146D01*
X185732692Y-108127664D01*
X185685897Y-108112459D01*
X185685895Y-108112458D01*
X185685894Y-108112458D01*
X185509370Y-108084500D01*
X185509366Y-108084500D01*
X158254692Y-108084500D01*
X158246006Y-108081949D01*
X158237045Y-108083238D01*
X158192211Y-108067059D01*
X158192159Y-108067162D01*
X158191343Y-108066746D01*
X158189901Y-108066226D01*
X158187825Y-108064953D01*
X158182796Y-108062391D01*
X158179054Y-108060485D01*
X158128259Y-108012512D01*
X158111463Y-107944692D01*
X158133999Y-107878556D01*
X158179054Y-107839515D01*
X158187816Y-107835051D01*
X158187817Y-107835049D01*
X158187825Y-107835046D01*
X158189901Y-107833774D01*
X158190843Y-107833508D01*
X158192159Y-107832838D01*
X158192292Y-107833099D01*
X158197496Y-107831631D01*
X158203181Y-107826706D01*
X158227211Y-107823250D01*
X158254692Y-107815500D01*
X190589370Y-107815500D01*
X190667824Y-107803073D01*
X190765897Y-107787541D01*
X190894193Y-107745853D01*
X190935881Y-107732309D01*
X191095132Y-107651167D01*
X191239728Y-107546111D01*
X191366111Y-107419728D01*
X191424670Y-107361169D01*
X191424683Y-107361154D01*
X193295130Y-105490708D01*
X193351699Y-105459032D01*
X193351608Y-105458752D01*
X193353020Y-105458293D01*
X193353876Y-105457814D01*
X193356240Y-105457246D01*
X193356243Y-105457246D01*
X193558412Y-105391557D01*
X193747816Y-105295051D01*
X193837020Y-105230241D01*
X193919786Y-105170109D01*
X193919788Y-105170106D01*
X193919792Y-105170104D01*
X194070104Y-105019792D01*
X194070106Y-105019788D01*
X194070109Y-105019786D01*
X194195048Y-104847820D01*
X194195047Y-104847820D01*
X194195051Y-104847816D01*
X194210015Y-104818446D01*
X194257989Y-104767651D01*
X194325810Y-104750856D01*
X194391945Y-104773393D01*
G37*
%TD.AperFunction*%
%TA.AperFunction,Conductor*%
G36*
X194379926Y-110418995D02*
G01*
X194429332Y-110468400D01*
X194444500Y-110527828D01*
X194444500Y-111026359D01*
X194424815Y-111093398D01*
X194372011Y-111139153D01*
X194302853Y-111149097D01*
X194239297Y-111120072D01*
X194210016Y-111082655D01*
X194194626Y-111052452D01*
X194155270Y-110998282D01*
X194155269Y-110998282D01*
X193522962Y-111630590D01*
X193505925Y-111567007D01*
X193440099Y-111452993D01*
X193347007Y-111359901D01*
X193232993Y-111294075D01*
X193169409Y-111277037D01*
X193839627Y-110606818D01*
X193900950Y-110573333D01*
X193927307Y-110570499D01*
X193937872Y-110570499D01*
X193997483Y-110564091D01*
X194132331Y-110513796D01*
X194246189Y-110428562D01*
X194311653Y-110404144D01*
X194379926Y-110418995D01*
G37*
%TD.AperFunction*%
%TA.AperFunction,Conductor*%
G36*
X194155270Y-102361717D02*
G01*
X194155270Y-102361716D01*
X194194622Y-102307554D01*
X194210015Y-102277345D01*
X194257989Y-102226549D01*
X194325810Y-102209754D01*
X194391945Y-102232291D01*
X194435397Y-102287006D01*
X194444500Y-102333640D01*
X194444500Y-103405257D01*
X194424815Y-103472296D01*
X194372011Y-103518051D01*
X194302853Y-103527995D01*
X194239297Y-103498970D01*
X194210016Y-103461553D01*
X194195050Y-103432182D01*
X194070109Y-103260213D01*
X193919786Y-103109890D01*
X193747817Y-102984949D01*
X193738504Y-102980204D01*
X193687707Y-102932230D01*
X193670912Y-102864409D01*
X193693449Y-102798274D01*
X193738507Y-102759232D01*
X193747555Y-102754622D01*
X193801716Y-102715270D01*
X193801717Y-102715270D01*
X193169408Y-102082962D01*
X193232993Y-102065925D01*
X193347007Y-102000099D01*
X193440099Y-101907007D01*
X193505925Y-101792993D01*
X193522962Y-101729409D01*
X194155270Y-102361717D01*
G37*
%TD.AperFunction*%
%TA.AperFunction,Conductor*%
G36*
X194379926Y-100258995D02*
G01*
X194429332Y-100308400D01*
X194444500Y-100367828D01*
X194444500Y-100866359D01*
X194424815Y-100933398D01*
X194372011Y-100979153D01*
X194302853Y-100989097D01*
X194239297Y-100960072D01*
X194210016Y-100922655D01*
X194194626Y-100892452D01*
X194155270Y-100838282D01*
X194155269Y-100838282D01*
X193522962Y-101470590D01*
X193505925Y-101407007D01*
X193440099Y-101292993D01*
X193347007Y-101199901D01*
X193232993Y-101134075D01*
X193169409Y-101117037D01*
X193839627Y-100446818D01*
X193900950Y-100413333D01*
X193927307Y-100410499D01*
X193937872Y-100410499D01*
X193997483Y-100404091D01*
X194132331Y-100353796D01*
X194171209Y-100324692D01*
X194246189Y-100268562D01*
X194311653Y-100244144D01*
X194379926Y-100258995D01*
G37*
%TD.AperFunction*%
%TA.AperFunction,Conductor*%
G36*
X126545338Y-92595185D02*
G01*
X126565979Y-92611818D01*
X133880271Y-99926111D01*
X133923987Y-99957872D01*
X134024868Y-100031167D01*
X134184119Y-100112309D01*
X134184121Y-100112310D01*
X134342670Y-100163825D01*
X134354103Y-100167540D01*
X134530634Y-100195500D01*
X138925308Y-100195500D01*
X138933993Y-100198050D01*
X138942955Y-100196762D01*
X138987792Y-100212941D01*
X138987844Y-100212840D01*
X138988652Y-100213252D01*
X138990099Y-100213774D01*
X138992180Y-100215049D01*
X139000946Y-100219516D01*
X139051742Y-100267491D01*
X139068536Y-100335312D01*
X139045998Y-100401447D01*
X139000946Y-100440484D01*
X138992180Y-100444950D01*
X138990099Y-100446226D01*
X138989153Y-100446492D01*
X138987844Y-100447160D01*
X138987711Y-100446899D01*
X138982503Y-100448368D01*
X138976819Y-100453294D01*
X138952788Y-100456749D01*
X138925308Y-100464500D01*
X107454692Y-100464500D01*
X107392290Y-100446899D01*
X107392157Y-100447161D01*
X107390843Y-100446491D01*
X107389901Y-100446226D01*
X107387824Y-100444953D01*
X107198414Y-100348444D01*
X107198413Y-100348443D01*
X107198412Y-100348443D01*
X106996243Y-100282754D01*
X106996241Y-100282753D01*
X106996240Y-100282753D01*
X106834957Y-100257208D01*
X106786287Y-100249500D01*
X106573713Y-100249500D01*
X106525042Y-100257208D01*
X106363760Y-100282753D01*
X106161585Y-100348444D01*
X105972179Y-100444951D01*
X105800213Y-100569890D01*
X105649890Y-100720213D01*
X105524949Y-100892182D01*
X105509984Y-100921553D01*
X105462009Y-100972348D01*
X105394188Y-100989143D01*
X105328054Y-100966605D01*
X105284603Y-100911889D01*
X105275500Y-100865257D01*
X105275500Y-97827203D01*
X105295185Y-97760164D01*
X105347989Y-97714409D01*
X105417147Y-97704465D01*
X105473812Y-97727937D01*
X105587910Y-97813352D01*
X105587913Y-97813354D01*
X105722620Y-97863596D01*
X105722627Y-97863598D01*
X105782155Y-97869999D01*
X105782172Y-97870000D01*
X106430000Y-97870000D01*
X106430000Y-96953012D01*
X106487007Y-96985925D01*
X106614174Y-97020000D01*
X106745826Y-97020000D01*
X106872993Y-96985925D01*
X106930000Y-96953012D01*
X106930000Y-97870000D01*
X107577828Y-97870000D01*
X107577844Y-97869999D01*
X107637372Y-97863598D01*
X107637379Y-97863596D01*
X107772086Y-97813354D01*
X107772093Y-97813350D01*
X107887187Y-97727190D01*
X107887190Y-97727187D01*
X107973350Y-97612093D01*
X107973354Y-97612086D01*
X108023596Y-97477379D01*
X108023598Y-97477372D01*
X108029999Y-97417844D01*
X108030000Y-97417827D01*
X108030000Y-96770000D01*
X107113012Y-96770000D01*
X107145925Y-96712993D01*
X107180000Y-96585826D01*
X107180000Y-96454174D01*
X107145925Y-96327007D01*
X107113012Y-96270000D01*
X108030000Y-96270000D01*
X108030000Y-95622172D01*
X108029999Y-95622155D01*
X108023598Y-95562627D01*
X108023596Y-95562620D01*
X107973354Y-95427913D01*
X107973350Y-95427906D01*
X107887190Y-95312812D01*
X107887187Y-95312809D01*
X107772093Y-95226649D01*
X107772088Y-95226646D01*
X107640528Y-95177577D01*
X107584595Y-95135705D01*
X107560178Y-95070241D01*
X107575030Y-95001968D01*
X107596175Y-94973720D01*
X107710104Y-94859792D01*
X107835051Y-94687816D01*
X107931557Y-94498412D01*
X107997246Y-94296243D01*
X108030500Y-94086287D01*
X108030500Y-93873713D01*
X107997246Y-93663757D01*
X107931557Y-93461588D01*
X107835051Y-93272184D01*
X107835049Y-93272181D01*
X107835048Y-93272179D01*
X107710109Y-93100213D01*
X107559786Y-92949890D01*
X107387820Y-92824951D01*
X107387115Y-92824591D01*
X107379054Y-92820485D01*
X107371072Y-92812945D01*
X107360793Y-92809083D01*
X107346118Y-92789379D01*
X107328259Y-92772512D01*
X107325619Y-92761853D01*
X107319060Y-92753046D01*
X107317367Y-92728535D01*
X107311463Y-92704692D01*
X107315004Y-92694299D01*
X107314248Y-92683342D01*
X107326075Y-92661808D01*
X107333999Y-92638556D01*
X107343480Y-92630121D01*
X107347885Y-92622102D01*
X107372746Y-92604086D01*
X107376192Y-92601021D01*
X107377611Y-92600250D01*
X107387816Y-92595051D01*
X107389666Y-92593706D01*
X107395535Y-92590521D01*
X107420334Y-92585190D01*
X107454692Y-92575500D01*
X126478299Y-92575500D01*
X126545338Y-92595185D01*
G37*
%TD.AperFunction*%
%TD*%
M02*
