<?xml version="1.0" standalone="no"?>
 <!DOCTYPE svg PUBLIC "-//W3C//DTD SVG 1.1//EN" 
 "http://www.w3.org/Graphics/SVG/1.1/DTD/svg11.dtd"> 
<svg
  xmlns:svg="http://www.w3.org/2000/svg"
  xmlns="http://www.w3.org/2000/svg"
  xmlns:xlink="http://www.w3.org/1999/xlink"
  version="1.1"
  width="198.3232mm" height="72.2884mm" viewBox="0.0000 0.0000 198.3232 72.2884">
<title>SVG Image created as board-F_Cu.svg date 2026/03/15 07:05:39 </title>
  <desc>Image generated by PCBNEW </desc>
<g style="fill:#000000; fill-opacity:1.0000;stroke:#000000; stroke-opacity:1.0000;
stroke-linecap:round; stroke-linejoin:round;"
 transform="translate(0 0) scale(1 1)">
</g>
<g style="fill:#000000; fill-opacity:1.0000; 
stroke:#000000; stroke-width:0.0212; stroke-opacity:1; 
stroke-linecap:round; stroke-linejoin:round;">
<rect x="-5.000000" y="-5.000000" width="208.331430" height="82.293250" rx="0.000000" />
<path style="fill:#FFFFFF; fill-opacity:1.0000; stroke:none;fill-rule:evenodd;"
d="M 62.2150,53.6632
62.2150,55.3633
60.5150,55.3633
60.5150,53.6632
Z" /> 
</g>
<g style="fill:#FFFFFF; fill-opacity:1.0000; stroke:none;">
<circle cx="61.3650" cy="51.9733" r="0.8500" /> 
</g>
<g style="fill:#FFFFFF; fill-opacity:1.0000; stroke:none;">
<circle cx="61.3650" cy="49.4333" r="0.8500" /> 
</g>
<g style="fill:#FFFFFF; fill-opacity:1.0000; stroke:none;">
<circle cx="61.3650" cy="46.8932" r="0.8500" /> 
</g>
<g style="fill:#FFFFFF; fill-opacity:1.0000; stroke:none;">
<circle cx="61.3650" cy="44.3532" r="0.8500" /> 
</g>
<g style="fill:#FFFFFF; fill-opacity:1.0000; stroke:none;">
<circle cx="61.3650" cy="41.8132" r="0.8500" /> 
</g>
<g style="fill:#FFFFFF; fill-opacity:1.0000; stroke:none;">
<circle cx="61.3650" cy="39.2732" r="0.8500" /> 
</g>
<g style="fill:#FFFFFF; fill-opacity:1.0000; stroke:none;">
<circle cx="61.3650" cy="36.7332" r="0.8500" /> 
</g>
<g style="fill:#FFFFFF; fill-opacity:1.0000; stroke:none;">
<circle cx="61.3650" cy="34.1932" r="0.8500" /> 
</g>
<g style="fill:#FFFFFF; fill-opacity:1.0000; stroke:none;">
<circle cx="61.3650" cy="31.6532" r="0.8500" /> 
</g>
<g style="fill:#FFFFFF; fill-opacity:1.0000; stroke:none;">
<circle cx="61.3650" cy="29.1132" r="0.8500" /> 
</g>
<g style="fill:#FFFFFF; fill-opacity:1.0000; stroke:none;">
<circle cx="61.3650" cy="26.5732" r="0.8500" /> 
</g>
<g style="fill:#FFFFFF; fill-opacity:1.0000; stroke:none;">
<circle cx="61.3650" cy="24.0332" r="0.8500" /> 
</g>
<g style="fill:#FFFFFF; fill-opacity:1.0000; stroke:none;">
<circle cx="61.3650" cy="21.4932" r="0.8500" /> 
</g>
<g style="fill:#FFFFFF; fill-opacity:1.0000; stroke:none;">
<circle cx="61.3650" cy="18.9533" r="0.8500" /> 
</g>
<g style="fill:#FFFFFF; fill-opacity:1.0000; stroke:none;">
<circle cx="61.3650" cy="16.4132" r="0.8500" /> 
</g>
<g style="fill:#FFFFFF; fill-opacity:1.0000; stroke:none;">
<circle cx="43.5850" cy="54.5132" r="0.8500" /> 
</g>
<g style="fill:#FFFFFF; fill-opacity:1.0000; stroke:none;">
<circle cx="43.5850" cy="51.9733" r="0.8500" /> 
</g>
<g style="fill:#FFFFFF; fill-opacity:1.0000; stroke:none;">
<circle cx="43.5850" cy="49.4333" r="0.8500" /> 
</g>
<g style="fill:#FFFFFF; fill-opacity:1.0000; stroke:none;">
<circle cx="43.5850" cy="46.8932" r="0.8500" /> 
</g>
<g style="fill:#FFFFFF; fill-opacity:1.0000; stroke:none;">
<circle cx="43.5850" cy="44.3532" r="0.8500" /> 
</g>
<g style="fill:#FFFFFF; fill-opacity:1.0000; stroke:none;">
<circle cx="43.5850" cy="41.8132" r="0.8500" /> 
</g>
<g style="fill:#FFFFFF; fill-opacity:1.0000; stroke:none;">
<circle cx="43.5850" cy="39.2732" r="0.8500" /> 
</g>
<g style="fill:#FFFFFF; fill-opacity:1.0000; stroke:none;">
<circle cx="43.5850" cy="36.7332" r="0.8500" /> 
</g>
<g style="fill:#FFFFFF; fill-opacity:1.0000; stroke:none;">
<circle cx="43.5850" cy="34.1932" r="0.8500" /> 
</g>
<g style="fill:#FFFFFF; fill-opacity:1.0000; stroke:none;">
<circle cx="43.5850" cy="31.6532" r="0.8500" /> 
</g>
<g style="fill:#FFFFFF; fill-opacity:1.0000; stroke:none;">
<circle cx="43.5850" cy="29.1132" r="0.8500" /> 
</g>
<g style="fill:#FFFFFF; fill-opacity:1.0000; stroke:none;">
<circle cx="43.5850" cy="26.5732" r="0.8500" /> 
</g>
<g style="fill:#FFFFFF; fill-opacity:1.0000; stroke:none;">
<circle cx="43.5850" cy="24.0332" r="0.8500" /> 
</g>
<g style="fill:#FFFFFF; fill-opacity:1.0000; stroke:none;">
<circle cx="43.5850" cy="21.4932" r="0.8500" /> 
</g>
<g style="fill:#FFFFFF; fill-opacity:1.0000; stroke:none;">
<circle cx="43.5850" cy="18.9533" r="0.8500" /> 
</g>
<g style="fill:#FFFFFF; fill-opacity:1.0000; stroke:none;">
<circle cx="43.5850" cy="16.4132" r="0.8500" /> 
<path style="fill:#FFFFFF; fill-opacity:1.0000; stroke:none;fill-rule:evenodd;"
d="M 11.4150,46.0433
11.4150,47.7432
9.7150,47.7432
9.7150,46.0433
Z" /> 
</g>
<g style="fill:#FFFFFF; fill-opacity:1.0000; stroke:none;">
<circle cx="10.5650" cy="44.3532" r="0.8500" /> 
</g>
<g style="fill:#FFFFFF; fill-opacity:1.0000; stroke:none;">
<circle cx="10.5650" cy="41.8132" r="0.8500" /> 
<path style="fill:#FFFFFF; fill-opacity:1.0000; stroke:none;fill-rule:evenodd;"
d="M 96.0750,19.8032
96.0750,18.1032
97.7750,18.1032
97.7750,19.8032
Z" /> 
</g>
<g style="fill:#FFFFFF; fill-opacity:1.0000; stroke:none;">
<circle cx="96.9250" cy="21.4932" r="0.8500" /> 
</g>
<g style="fill:#FFFFFF; fill-opacity:1.0000; stroke:none;">
<circle cx="96.9250" cy="24.0332" r="0.8500" /> 
<path style="fill:#FFFFFF; fill-opacity:1.0000; stroke:none;fill-rule:evenodd;"
d="M 11.4150,25.7233
11.4150,27.4232
9.7150,27.4232
9.7150,25.7233
Z" /> 
</g>
<g style="fill:#FFFFFF; fill-opacity:1.0000; stroke:none;">
<circle cx="10.5650" cy="24.0332" r="0.8500" /> 
</g>
<g style="fill:#FFFFFF; fill-opacity:1.0000; stroke:none;">
<circle cx="10.5650" cy="21.4932" r="0.8500" /> 
<path style="fill:#FFFFFF; fill-opacity:1.0000; stroke:none;fill-rule:evenodd;"
d="M 96.0750,50.2832
96.0750,48.5832
97.7750,48.5832
97.7750,50.2832
Z" /> 
</g>
<g style="fill:#FFFFFF; fill-opacity:1.0000; stroke:none;">
<circle cx="96.9250" cy="51.9733" r="0.8500" /> 
</g>
<g style="fill:#FFFFFF; fill-opacity:1.0000; stroke:none;">
<circle cx="96.9250" cy="54.5132" r="0.8500" /> 
<path style="fill:#FFFFFF; fill-opacity:1.0000; stroke:none;fill-rule:evenodd;"
d="M 90.9950,58.7432
92.6950,58.7432
92.6950,60.4432
90.9950,60.4432
Z" /> 
</g>
<g style="fill:#FFFFFF; fill-opacity:1.0000; stroke:none;">
<circle cx="89.3050" cy="59.5932" r="0.8500" /> 
</g>
<g style="fill:#FFFFFF; fill-opacity:1.0000; stroke:none;">
<circle cx="86.7650" cy="59.5932" r="0.8500" /> 
</g>
<g style="fill:#FFFFFF; fill-opacity:1.0000; stroke:none;">
<circle cx="84.2250" cy="59.5932" r="0.8500" /> 
<path style="fill:#FFFFFF; fill-opacity:1.0000; stroke:none;fill-rule:evenodd;"
d="M 96.0750,40.1232
96.0750,38.4232
97.7750,38.4232
97.7750,40.1232
Z" /> 
</g>
<g style="fill:#FFFFFF; fill-opacity:1.0000; stroke:none;">
<circle cx="96.9250" cy="41.8132" r="0.8500" /> 
</g>
<g style="fill:#FFFFFF; fill-opacity:1.0000; stroke:none;">
<circle cx="96.9250" cy="44.3532" r="0.8500" /> 
<path style="fill:#FFFFFF; fill-opacity:1.0000; stroke:none;fill-rule:evenodd;"
d="M 78.2950,51.1232
79.9950,51.1232
79.9950,52.8232
78.2950,52.8232
Z" /> 
</g>
<g style="fill:#FFFFFF; fill-opacity:1.0000; stroke:none;">
<circle cx="76.6050" cy="51.9733" r="0.8500" /> 
</g>
<g style="fill:#FFFFFF; fill-opacity:1.0000; stroke:none;">
<circle cx="74.0650" cy="51.9733" r="0.8500" /> 
</g>
<g style="fill:#FFFFFF; fill-opacity:1.0000; stroke:none;">
<circle cx="71.5250" cy="51.9733" r="0.8500" /> 
<path style="fill:#FFFFFF; fill-opacity:1.0000; stroke:none;fill-rule:evenodd;"
d="M 77.3950,13.0432
80.8950,13.0432
80.8950,16.5433
77.3950,16.5433
Z" /> 
<path style="fill:#FFFFFF; fill-opacity:1.0000; stroke:none;fill-rule:evenodd;"
d="M 80.1450,7.2932
80.2967,7.3087
80.4620,7.3635
80.6102,7.4549
80.7333,7.5781
80.8247,7.7263
80.8795,7.8916
80.8950,8.0433
80.8950,9.5433
80.8795,9.6949
80.8247,9.8602
80.7333,10.0084
80.6102,10.1316
80.4620,10.2230
80.2967,10.2778
80.1450,10.2932
78.1450,10.2932
77.9933,10.2778
77.8280,10.2230
77.6798,10.1316
77.5567,10.0084
77.4653,9.8602
77.4105,9.6949
77.3950,9.5433
77.3950,8.0433
77.4105,7.8916
77.4653,7.7263
77.5567,7.5781
77.6798,7.4549
77.8280,7.3635
77.9933,7.3087
78.1450,7.2932
Z" /> 
<path style="fill:#FFFFFF; fill-opacity:1.0000; stroke:none;fill-rule:evenodd;"
d="M 75.3200,10.0432
75.4381,10.0513
75.6217,10.0969
75.7912,10.1810
75.9387,10.2995
76.0573,10.4470
76.1413,10.6165
76.1870,10.8001
76.1950,10.9182
76.1950,12.6682
76.1870,12.7864
76.1413,12.9700
76.0573,13.1395
75.9387,13.2870
75.7912,13.4055
75.6217,13.4896
75.4381,13.5352
75.3200,13.5432
73.5700,13.5432
73.4519,13.5352
73.2683,13.4896
73.0988,13.4055
72.9513,13.2870
72.8327,13.1395
72.7487,12.9700
72.7030,12.7864
72.6950,12.6682
72.6950,10.9182
72.7030,10.8001
72.7487,10.6165
72.8327,10.4470
72.9513,10.2995
73.0988,10.1810
73.2683,10.0969
73.4519,10.0513
73.5700,10.0432
Z" /> 
<path style="fill:#FFFFFF; fill-opacity:1.0000; stroke:none;fill-rule:evenodd;"
d="M 96.0750,29.9632
96.0750,28.2632
97.7750,28.2632
97.7750,29.9632
Z" /> 
</g>
<g style="fill:#FFFFFF; fill-opacity:1.0000; stroke:none;">
<circle cx="96.9250" cy="31.6532" r="0.8500" /> 
</g>
<g style="fill:#FFFFFF; fill-opacity:1.0000; stroke:none;">
<circle cx="96.9250" cy="34.1932" r="0.8500" /> 
<path style="fill:#FFFFFF; fill-opacity:1.0000; stroke:none;fill-rule:evenodd;"
d="M 11.4150,35.8832
11.4150,37.5832
9.7150,37.5832
9.7150,35.8832
Z" /> 
</g>
<g style="fill:#FFFFFF; fill-opacity:1.0000; stroke:none;">
<circle cx="10.5650" cy="34.1932" r="0.8500" /> 
</g>
<g style="fill:#FFFFFF; fill-opacity:1.0000; stroke:none;">
<circle cx="10.5650" cy="31.6532" r="0.8500" /> 
<path style="fill:#FFFFFF; fill-opacity:1.0000; stroke:none;fill-rule:evenodd;"
d="M 11.4150,15.5633
11.4150,17.2632
9.7150,17.2632
9.7150,15.5633
Z" /> 
</g>
<g style="fill:#FFFFFF; fill-opacity:1.0000; stroke:none;">
<circle cx="10.5650" cy="13.8732" r="0.8500" /> 
</g>
<g style="fill:#FFFFFF; fill-opacity:1.0000; stroke:none;">
<circle cx="10.5650" cy="11.3332" r="0.8500" /> 
</g>
<g style="fill:#FFFFFF; fill-opacity:1.0000; stroke:none;">
<circle cx="15.6450" cy="36.7332" r="0.3000" /> 
</g>
<g style="fill:#FFFFFF; fill-opacity:1.0000; stroke:none;">
<circle cx="89.3050" cy="54.5132" r="0.3000" /> 
</g>
<g style="fill:#FFFFFF; fill-opacity:1.0000; stroke:none;">
<circle cx="89.3050" cy="54.5132" r="0.3000" /> 
</g>
<g style="fill:#FFFFFF; fill-opacity:1.0000; stroke:none;">
<circle cx="35.9650" cy="34.1932" r="0.3000" /> 
</g>
<g style="fill:#FFFFFF; fill-opacity:1.0000; stroke:none;">
<circle cx="76.6050" cy="36.7332" r="0.3000" /> 
</g>
<g style="fill:#FFFFFF; fill-opacity:1.0000; stroke:none;">
<circle cx="71.5250" cy="18.9533" r="0.3000" /> 
</g>
<g style="fill:none; 
stroke:#FFFFFF; stroke-width:1.2700; stroke-opacity:1; 
stroke-linecap:round; stroke-linejoin:round;">
<path d="M10.5650 41.8132
L18.1850 41.8132
" />
<path d="M18.1850 41.8132
L41.0450 64.6732
" />
<path d="M41.0450 64.6732
L58.8250 64.6732
" />
<path d="M58.8250 64.6732
L58.8250 24.0332
" />
<path d="M58.8250 24.0332
L61.3650 24.0332
" />
<path d="M10.5650 31.6532
L18.1850 31.6532
" />
<path d="M18.1850 31.6532
L18.1850 39.2732
" />
<path d="M18.1850 39.2732
L35.9650 57.0532
" />
<path d="M35.9650 57.0532
L46.1250 57.0532
" />
<path d="M46.1250 57.0532
L53.7450 49.4333
" />
<path d="M53.7450 49.4333
L53.7450 21.4932
" />
<path d="M53.7450 21.4932
L61.3650 21.4932
" />
<path d="M10.5650 36.7332
L15.6450 36.7332
" />
<path d="M48.6650 6.2532
L48.6650 18.9533
" />
<path d="M61.3650 18.9533
L48.6650 18.9533
" />
<path d="M48.6650 18.9533
L48.6650 46.8932
" />
<path d="M48.6650 46.8932
L43.5850 46.8932
" />
<path d="M8.0250 13.8732
L8.0250 6.2532
" />
<path d="M8.0250 6.2532
L48.6650 6.2532
" />
<path d="M8.0250 24.0332
L8.0250 13.8732
" />
<path d="M8.0250 13.8732
L10.5650 13.8732
" />
<path d="M8.0250 34.1932
L8.0250 24.0332
" />
<path d="M8.0250 24.0332
L10.5650 24.0332
" />
<path d="M8.0250 41.8132
L8.0250 34.1932
" />
<path d="M10.5650 44.3532
L8.0250 41.8132
" />
<path d="M8.0250 34.1932
L10.5650 34.1932
" />
<path d="M43.5850 34.1932
L35.9650 34.1932
" />
<path d="M96.9250 54.5132
L89.3050 54.5132
" />
<path d="M61.3650 26.5732
L94.3850 26.5732
" />
<path d="M94.3850 26.5732
L96.9250 24.0332
" />
<path d="M76.6050 51.9733
L76.6050 36.7332
" />
<path d="M66.4450 18.9533
L71.5250 18.9533
" />
<path d="M61.3650 18.9533
L66.4450 18.9533
" />
<path d="M94.3850 18.9533
L90.2250 14.7932
" />
<path d="M90.2250 14.7932
L79.1450 14.7932
" />
<path d="M10.5650 21.4932
L43.5850 21.4932
" />
<path d="M30.8850 11.3332
L38.5050 18.9533
" />
<path d="M38.5050 18.9533
L43.5850 18.9533
" />
<path d="M10.5650 11.3332
L30.8850 11.3332
" />
<path d="M96.9250 44.3532
L84.2250 31.6532
" />
<path d="M84.2250 31.6532
L61.3650 31.6532
" />
<path d="M94.3850 34.1932
L89.3050 29.1132
" />
<path d="M96.9250 34.1932
L94.3850 34.1932
" />
<path d="M89.3050 29.1132
L61.3650 29.1132
" />
<path d="M61.3650 41.8132
L63.9050 41.8132
" />
<path d="M63.9050 41.8132
L74.0650 51.9733
" />
<path d="M71.5250 51.9733
L63.9050 44.3532
" />
<path d="M63.9050 44.3532
L61.3650 44.3532
" />
<path d="M74.0650 59.5932
L66.4450 51.9733
" />
<path d="M66.4450 51.9733
L61.3650 51.9733
" />
<path d="M84.2250 59.5932
L74.0650 59.5932
" />
<path d="M99.4650 39.2732
L99.4650 49.4333
" />
<path d="M96.9250 49.4333
L99.4650 49.4333
" />
<path d="M99.4650 49.4333
L99.4650 59.5932
" />
<path d="M99.4650 59.5932
L91.8450 59.5932
" />
<path d="M99.4650 29.1132
L99.4650 39.2732
" />
<path d="M99.4650 39.2732
L96.9250 39.2732
" />
<path d="M99.4650 18.9533
L99.4650 29.1132
" />
<path d="M96.9250 18.9533
L99.4650 18.9533
" />
<path d="M99.4650 29.1132
L96.9250 29.1132
" />
<path d="M94.3850 18.9533
L96.9250 18.9533
" />
<path style="fill:#FFFFFF; fill-opacity:1.0000; stroke:none;fill-rule:evenodd;"
d="M 104.4880,3.7329
104.5338,3.7857
104.5450,3.8372
104.5450,71.0973
104.5253,71.1643
104.4725,71.2100
104.4210,71.2212
6.9985,71.2212
6.9315,71.2016
6.8857,71.1488
6.8745,71.0973
6.8745,42.5432
6.8942,42.4761
6.9470,42.4304
7.0161,42.4204
7.0797,42.4495
7.0988,42.4703
7.1589,42.5530
7.1589,42.5530
9.2143,44.6084
9.2460,44.6649
9.2462,44.6649
9.2467,44.6662
9.2472,44.6671
9.2478,44.6695
9.3134,44.8717
9.4100,45.0611
9.5349,45.2330
9.6488,45.3470
9.6823,45.4083
9.6773,45.4780
9.6354,45.5339
9.6045,45.5508
9.4729,45.5999
9.4729,45.5999
9.3578,45.6861
9.3578,45.6861
9.2716,45.8012
9.2716,45.8012
9.2214,45.9359
9.2214,45.9359
9.2150,45.9954
9.2150,46.6432
10.1320,46.6432
10.0991,46.7003
10.0650,46.8274
10.0650,46.9591
10.0991,47.0862
10.1320,47.1432
9.2150,47.1432
9.2150,47.7911
9.2214,47.8506
9.2214,47.8506
9.2716,47.9853
9.2716,47.9853
9.3578,48.1004
9.3578,48.1004
9.4729,48.1866
9.4729,48.1866
9.6076,48.2368
9.6076,48.2368
9.6672,48.2432
9.6672,48.2432
10.3150,48.2432
10.3150,47.3263
10.3720,47.3592
10.4992,47.3932
10.6308,47.3932
10.7580,47.3592
10.8150,47.3263
10.8150,48.2432
11.4628,48.2432
11.4628,48.2432
11.5224,48.2368
11.5224,48.2368
11.6571,48.1866
11.6571,48.1866
11.7722,48.1004
11.7722,48.1004
11.8583,47.9853
11.8584,47.9853
11.9086,47.8506
11.9086,47.8506
11.9150,47.7911
11.9150,47.7911
11.9150,47.1432
10.9980,47.1432
11.0309,47.0862
11.0650,46.9591
11.0650,46.8274
11.0309,46.7003
10.9980,46.6432
11.9150,46.6432
11.9150,45.9954
11.9150,45.9954
11.9086,45.9359
11.9086,45.9359
11.8584,45.8012
11.8583,45.8012
11.7722,45.6861
11.7722,45.6861
11.6571,45.5999
11.6571,45.5999
11.5255,45.5508
11.4696,45.5090
11.4452,45.4435
11.4600,45.3752
11.4812,45.3470
11.5951,45.2330
11.7201,45.0611
11.8166,44.8717
11.8822,44.6695
11.9155,44.4595
11.9155,44.2470
11.8822,44.0370
11.8166,43.8348
11.7201,43.6454
11.7200,43.6454
11.7200,43.6454
11.5951,43.4735
11.4448,43.3231
11.2728,43.1982
11.2721,43.1978
11.2641,43.1937
11.2561,43.1862
11.2458,43.1823
11.2311,43.1626
11.2133,43.1458
11.2106,43.1351
11.2041,43.1263
11.2024,43.1018
11.1965,43.0779
11.2000,43.0675
11.1992,43.0566
11.2111,43.0351
11.2190,43.0118
11.2285,43.0034
11.2329,42.9954
11.2577,42.9773
11.2612,42.9743
11.2626,42.9735
11.2728,42.9683
11.2747,42.9670
11.2805,42.9638
11.3053,42.9584
11.3397,42.9487
17.6633,42.9487
17.7303,42.9684
17.7510,42.9851
40.1789,65.4130
40.3053,65.5394
40.4017,65.6094
40.4499,65.6444
40.5327,65.6866
40.6091,65.7256
40.6508,65.7391
40.6508,65.7391
40.6508,65.7391
40.6829,65.7495
40.7791,65.7808
40.8548,65.7928
40.9556,65.8088
40.9556,65.8088
58.9144,65.8088
58.9144,65.8088
59.0909,65.7808
59.0909,65.7808
59.0909,65.7808
59.2609,65.7256
59.2609,65.7256
59.2609,65.7256
59.4201,65.6444
59.5647,65.5394
59.6911,65.4130
59.7962,65.2684
59.8773,65.1091
59.9325,64.9391
59.9605,64.7626
59.9605,55.8205
59.9802,55.7534
60.0330,55.7077
60.1021,55.6977
60.1588,55.7212
60.2729,55.8066
60.2729,55.8066
60.4076,55.8568
60.4076,55.8568
60.4672,55.8632
60.4672,55.8633
61.1150,55.8633
61.1150,54.9463
61.1720,54.9792
61.2992,55.0132
61.4308,55.0132
61.5580,54.9792
61.6150,54.9463
61.6150,55.8633
62.2628,55.8633
62.2628,55.8632
62.3224,55.8568
62.3224,55.8568
62.4571,55.8066
62.4571,55.8066
62.5722,55.7204
62.5722,55.7204
62.6583,55.6053
62.6584,55.6053
62.7086,55.4706
62.7086,55.4706
62.7150,55.4111
62.7150,55.4111
62.7150,54.7632
61.7980,54.7632
61.8309,54.7062
61.8650,54.5791
61.8650,54.4474
61.8309,54.3203
61.7980,54.2632
62.7150,54.2632
62.7150,53.6154
62.7150,53.6154
62.7086,53.5559
62.7086,53.5559
62.6584,53.4212
62.6583,53.4212
62.5729,53.3071
62.5485,53.2416
62.5634,53.1733
62.6128,53.1239
62.6722,53.1088
65.9233,53.1088
65.9903,53.1284
66.0110,53.1451
73.3253,60.4594
73.3690,60.4911
73.4699,60.5644
73.6291,60.6456
73.6291,60.6456
73.7877,60.6971
73.7991,60.7008
73.9756,60.7287
83.4503,60.7287
83.5127,60.7463
83.5128,60.7461
83.5142,60.7468
83.5151,60.7470
83.5172,60.7483
83.5172,60.7483
83.5172,60.7483
83.7066,60.8448
83.9088,60.9105
84.1187,60.9437
84.1187,60.9437
84.3313,60.9437
84.3313,60.9437
84.5412,60.9105
84.7434,60.8448
84.9328,60.7483
85.0191,60.6856
85.1048,60.6234
85.1048,60.6234
85.1048,60.6234
85.2551,60.4730
85.2551,60.4730
85.2551,60.4730
85.3409,60.3550
85.3801,60.3011
85.3848,60.2918
85.4328,60.2410
85.5006,60.2242
85.5667,60.2467
85.6058,60.2918
85.6104,60.3008
85.6497,60.3550
86.2820,59.7227
86.2991,59.7862
86.3649,59.9003
86.4580,59.9933
86.5720,60.0592
86.6356,60.0762
86.0033,60.7085
86.0033,60.7085
86.0574,60.7479
86.2468,60.8443
86.4489,60.9100
86.6588,60.9432
86.8712,60.9432
87.0811,60.9100
87.0811,60.9100
87.2832,60.8443
87.4726,60.7479
87.5267,60.7085
87.5267,60.7085
86.8944,60.0762
86.9580,60.0592
87.0720,59.9933
87.1651,59.9003
87.2309,59.7862
87.2480,59.7227
87.8803,60.3550
87.8803,60.3550
87.9196,60.3008
87.9245,60.2912
87.9725,60.2404
88.0403,60.2236
88.1064,60.2461
88.1455,60.2912
88.1504,60.3008
88.1897,60.3550
88.8220,59.7227
88.8391,59.7862
88.9049,59.9003
88.9980,59.9933
89.1120,60.0592
89.1756,60.0762
88.5433,60.7085
88.5433,60.7085
88.5974,60.7479
88.7868,60.8443
88.9889,60.9100
89.1988,60.9432
89.4112,60.9432
89.6211,60.9100
89.6211,60.9100
89.8232,60.8443
90.0126,60.7479
90.0667,60.7085
90.0667,60.7085
89.4344,60.0762
89.4980,60.0592
89.6120,59.9933
89.7051,59.9003
89.7709,59.7862
89.7880,59.7227
90.4582,60.3929
90.4917,60.4542
90.4945,60.4805
90.4945,60.4911
90.4945,60.4911
90.5009,60.5507
90.5512,60.6856
90.5512,60.6856
90.6375,60.8008
90.6375,60.8008
90.7527,60.8870
90.7527,60.8870
90.8875,60.9373
90.8875,60.9373
90.8944,60.9381
90.9471,60.9437
92.7429,60.9437
92.8025,60.9373
92.9373,60.8870
93.0525,60.8008
93.0693,60.7784
93.1252,60.7366
93.1685,60.7287
99.5544,60.7287
99.5544,60.7287
99.7309,60.7008
99.7309,60.7008
99.7309,60.7008
99.9009,60.6456
99.9009,60.6456
99.9009,60.6456
100.0601,60.5644
100.2047,60.4594
100.3311,60.3330
100.4362,60.1884
100.5173,60.0291
100.5725,59.8591
100.6005,59.6826
100.6005,49.3439
100.6005,39.1839
100.6005,29.0239
100.6005,18.8639
100.5725,18.6874
100.5725,18.6873
100.5725,18.6873
100.5173,18.5174
100.5173,18.5174
100.4753,18.4348
100.4362,18.3581
100.3311,18.2135
100.2047,18.0871
100.0601,17.9821
99.9009,17.9009
99.9009,17.9009
99.7309,17.8457
99.6132,17.8271
99.5544,17.8178
99.5544,17.8178
98.2485,17.8178
98.1815,17.7981
98.1493,17.7681
98.1325,17.7457
98.1325,17.7457
98.1325,17.7457
98.0850,17.7101
98.0173,17.6595
98.0173,17.6595
97.8825,17.6092
97.8825,17.6092
97.8229,17.6028
97.8229,17.6028
97.8229,17.6028
97.8229,17.6028
96.0271,17.6028
96.0271,17.6028
95.9675,17.6092
95.8327,17.6595
95.8327,17.6595
95.7175,17.7457
95.7174,17.7457
95.7007,17.7681
95.6448,17.8099
95.6015,17.8178
94.9067,17.8178
94.8397,17.7981
94.8190,17.7814
90.9647,13.9271
90.9647,13.9271
90.9464,13.9138
90.8201,13.8221
90.6609,13.7409
90.6609,13.7409
90.6192,13.7274
90.5525,13.7057
90.4909,13.6857
90.4909,13.6857
90.4909,13.6857
90.3144,13.6578
90.3144,13.6578
81.5195,13.6578
81.4525,13.6381
81.4067,13.5853
81.3955,13.5337
81.3955,12.9954
81.3955,12.9954
81.3953,12.9935
81.3891,12.9358
81.3773,12.9041
81.3388,12.8009
81.3388,12.8009
81.2525,12.6857
81.2525,12.6857
81.1373,12.5995
81.1373,12.5995
81.0025,12.5492
81.0025,12.5492
80.9429,12.5428
80.9429,12.5427
80.9429,12.5427
80.9429,12.5427
77.3471,12.5427
77.3471,12.5428
77.2875,12.5492
77.1527,12.5995
77.1527,12.5995
77.0375,12.6857
77.0375,12.6857
76.9512,12.8009
76.9512,12.8009
76.9336,12.8482
76.8917,12.9041
76.8262,12.9285
76.7580,12.9137
76.7086,12.8643
76.6936,12.7983
76.6955,12.7619
76.6955,12.7619
76.6955,10.8246
76.6955,10.8246
76.6938,10.7932
76.6927,10.7720
76.6482,10.5421
76.5656,10.3231
76.4471,10.1211
76.4471,10.1211
76.2961,9.9421
76.2961,9.9421
76.1171,9.7912
76.1171,9.7912
75.9152,9.6727
75.8248,9.6386
75.6961,9.5900
75.6961,9.5900
75.4662,9.5455
75.4137,9.5428
75.4136,9.5427
75.4136,9.5427
73.4764,9.5427
73.4764,9.5427
73.4763,9.5428
73.4238,9.5455
73.4238,9.5455
73.1939,9.5900
73.1939,9.5900
73.1939,9.5900
73.1477,9.6074
72.9748,9.6727
72.7729,9.7912
72.7729,9.7912
72.5939,9.9421
72.5939,9.9421
72.4429,10.1211
72.4429,10.1211
72.3244,10.3231
72.2752,10.4535
72.2418,10.5421
72.2418,10.5421
72.2418,10.5421
72.1973,10.7720
72.1973,10.7720
72.1945,10.8246
72.1945,10.8246
72.1945,12.7619
72.1945,12.7619
72.1973,12.8145
72.1973,12.8145
72.2323,12.9954
72.2418,13.0444
72.2874,13.1654
72.3244,13.2634
72.4429,13.4654
72.4429,13.4654
72.5939,13.6444
72.5939,13.6444
72.7729,13.7953
72.7729,13.7953
72.9748,13.9138
73.1939,13.9965
73.4238,14.0410
73.4764,14.0437
73.4764,14.0437
75.4136,14.0437
75.4136,14.0437
75.4662,14.0410
75.6961,13.9965
75.9152,13.9138
76.1171,13.7953
76.1816,13.7409
76.2961,13.6444
76.2961,13.6444
76.4471,13.4654
76.4471,13.4654
76.4471,13.4654
76.5656,13.2634
76.6482,13.0444
76.6488,13.0417
76.6493,13.0407
76.6497,13.0393
76.6500,13.0394
76.6808,12.9797
76.7413,12.9448
76.8111,12.9481
76.8680,12.9887
76.8939,13.0536
76.8945,13.0653
76.8945,16.5911
76.8945,16.5911
76.9009,16.6507
76.9512,16.7856
76.9512,16.7856
77.0375,16.9008
77.0375,16.9008
77.1527,16.9870
77.1527,16.9870
77.2875,17.0373
77.2875,17.0373
77.2944,17.0381
77.3471,17.0437
80.9429,17.0437
81.0025,17.0373
81.1373,16.9870
81.2525,16.9008
81.3388,16.7856
81.3891,16.6507
81.3955,16.5911
81.3955,16.0527
81.4152,15.9857
81.4680,15.9400
81.5195,15.9287
89.7033,15.9287
89.7703,15.9484
89.7910,15.9651
93.6453,19.8194
93.6641,19.8330
93.6890,19.8511
93.7394,19.8878
93.7899,19.9244
93.9491,20.0056
93.9491,20.0056
94.1077,20.0571
94.1191,20.0608
94.2956,20.0887
95.6015,20.0887
95.6685,20.1084
95.7007,20.1384
95.7174,20.1608
95.7175,20.1608
95.7175,20.1608
95.7316,20.1714
95.8327,20.2470
95.8327,20.2470
95.8403,20.2499
95.9675,20.2973
96.0271,20.3038
96.0377,20.3037
96.1047,20.3234
96.1254,20.3401
96.7956,21.0103
96.7320,21.0273
96.6180,21.0932
96.5249,21.1862
96.4591,21.3003
96.4420,21.3638
95.8097,20.7315
95.8097,20.7315
95.7704,20.7857
95.6739,20.9750
95.6082,21.1771
95.6082,21.1771
95.5750,21.3870
95.5750,21.5995
95.6082,21.8094
95.6082,21.8094
95.6739,22.0115
95.7704,22.2008
95.8097,22.2550
96.4420,21.6227
96.4591,21.6862
96.5249,21.8003
96.6180,21.8933
96.7320,21.9592
96.7956,21.9762
96.1633,22.6085
96.1633,22.6085
96.2175,22.6479
96.2175,22.6479
96.2265,22.6525
96.2773,22.7005
96.2941,22.7683
96.2715,22.8344
96.2265,22.8735
96.2172,22.8782
96.0452,23.0031
95.8949,23.1535
95.7700,23.3254
95.6734,23.5148
95.6078,23.7170
95.6072,23.7194
95.6067,23.7203
95.6062,23.7216
95.6060,23.7216
95.5743,23.7781
93.9510,25.4014
93.8897,25.4349
93.8633,25.4377
62.1397,25.4377
62.1254,25.4341
62.1136,25.4350
62.0874,25.4245
62.0805,25.4227
62.0747,25.4195
62.0728,25.4182
62.0626,25.4130
62.0612,25.4122
62.0375,25.3887
62.0133,25.3658
62.0129,25.3641
62.0117,25.3629
62.0045,25.3303
61.9965,25.2979
61.9970,25.2964
61.9966,25.2947
62.0082,25.2634
62.0190,25.2318
62.0204,25.2306
62.0209,25.2292
62.0294,25.2228
62.0641,25.1928
62.0728,25.1883
62.1620,25.1235
62.2448,25.0634
62.2448,25.0634
62.2448,25.0634
62.3951,24.9130
62.3951,24.9130
62.3951,24.9130
62.5200,24.7411
62.5200,24.7411
62.5201,24.7411
62.6166,24.5517
62.6822,24.3495
62.7155,24.1395
62.7155,23.9270
62.6822,23.7170
62.6166,23.5148
62.5201,23.3254
62.5200,23.3254
62.5200,23.3254
62.3951,23.1535
62.2448,23.0031
62.0728,22.8782
62.0721,22.8778
62.0641,22.8737
62.0133,22.8258
61.9965,22.7579
62.0190,22.6918
62.0641,22.6528
62.0728,22.6483
62.1276,22.6085
62.2448,22.5234
62.2448,22.5234
62.2448,22.5234
62.3951,22.3730
62.3951,22.3730
62.3951,22.3730
62.5200,22.2011
62.5200,22.2011
62.5201,22.2011
62.6166,22.0117
62.6822,21.8095
62.7155,21.5995
62.7155,21.3870
62.6822,21.1770
62.6166,20.9748
62.5201,20.7854
62.5200,20.7854
62.5200,20.7854
62.3951,20.6135
62.2448,20.4631
62.0728,20.3382
62.0721,20.3378
62.0641,20.3337
62.0561,20.3262
62.0458,20.3223
62.0311,20.3026
62.0133,20.2858
62.0106,20.2751
62.0041,20.2663
62.0024,20.2418
61.9965,20.2179
62.0000,20.2075
61.9992,20.1966
62.0111,20.1751
62.0190,20.1518
62.0285,20.1434
62.0329,20.1354
62.0577,20.1173
62.0612,20.1143
62.0626,20.1135
62.0728,20.1083
62.0747,20.1070
62.0805,20.1038
62.1053,20.0984
62.1397,20.0887
71.6144,20.0887
71.6144,20.0887
71.7909,20.0608
71.7909,20.0608
71.7909,20.0608
71.9609,20.0056
71.9609,20.0056
71.9609,20.0056
72.1201,19.9244
72.2647,19.8194
72.3911,19.6930
72.4962,19.5484
72.5773,19.3891
72.6325,19.2191
72.6605,19.0426
72.6605,18.8639
72.6325,18.6874
72.6325,18.6873
72.6325,18.6873
72.5773,18.5174
72.5773,18.5174
72.5353,18.4348
72.4962,18.3581
72.3911,18.2135
72.2647,18.0871
72.1201,17.9821
71.9609,17.9009
71.9609,17.9009
71.7909,17.8457
71.6732,17.8271
71.6144,17.8178
71.6144,17.8178
62.1397,17.8178
62.1254,17.8141
62.1137,17.8150
62.0875,17.8045
62.0806,17.8028
62.0747,17.7996
62.0728,17.7982
62.0621,17.7927
62.0607,17.7920
62.0370,17.7684
62.0127,17.7455
62.0123,17.7439
62.0112,17.7427
62.0039,17.7101
61.9959,17.6777
61.9964,17.6761
61.9961,17.6745
62.0077,17.6431
62.0184,17.6115
62.0198,17.6104
62.0203,17.6090
62.0287,17.6026
62.0635,17.5725
62.0726,17.5679
62.1267,17.5285
62.1267,17.5285
61.4944,16.8962
61.5580,16.8792
61.6720,16.8133
61.7651,16.7203
61.8309,16.6062
61.8480,16.5427
62.4803,17.1750
62.4803,17.1750
62.5196,17.1208
62.6161,16.9315
62.6818,16.7294
62.6818,16.7294
62.7150,16.5195
62.7150,16.3070
62.6818,16.0971
62.6818,16.0971
62.6161,15.8950
62.5196,15.7057
62.4803,15.6515
62.4803,15.6515
61.8480,16.2838
61.8309,16.2203
61.7651,16.1062
61.6720,16.0132
61.5580,15.9473
61.4944,15.9303
62.1267,15.2980
62.0725,15.2586
61.8832,15.1622
61.6811,15.0965
61.4712,15.0633
61.2588,15.0633
61.0489,15.0965
61.0489,15.0965
60.8468,15.1622
60.6574,15.2586
60.6033,15.2980
60.6033,15.2980
61.2356,15.9303
61.1720,15.9473
61.0580,16.0132
60.9649,16.1062
60.8991,16.2203
60.8820,16.2838
60.2497,15.6515
60.2497,15.6515
60.2104,15.7057
60.1139,15.8950
60.0482,16.0971
60.0482,16.0971
60.0150,16.3070
60.0150,16.5195
60.0482,16.7294
60.0482,16.7294
60.1139,16.9315
60.2104,17.1208
60.2497,17.1750
60.8820,16.5427
60.8991,16.6062
60.9649,16.7203
61.0580,16.8133
61.1720,16.8792
61.2356,16.8962
60.6033,17.5285
60.6033,17.5285
60.6575,17.5679
60.6575,17.5679
60.6665,17.5725
60.6745,17.5801
60.6848,17.5839
60.6995,17.6036
60.7173,17.6205
60.7199,17.6312
60.7265,17.6400
60.7282,17.6645
60.7341,17.6883
60.7305,17.6987
60.7313,17.7097
60.7195,17.7312
60.7115,17.7544
60.7020,17.7629
60.6976,17.7709
60.6726,17.7890
60.6693,17.7920
60.6679,17.7928
60.6572,17.7982
60.6553,17.7996
60.6494,17.8028
60.6246,17.8081
60.5903,17.8178
49.9245,17.8178
49.8575,17.7981
49.8117,17.7453
49.8005,17.6937
49.8005,7.9791
76.8950,7.9791
76.8950,8.5433
77.7120,8.5433
77.6791,8.6003
77.6450,8.7274
77.6450,8.8591
77.6791,8.9862
77.7120,9.0433
76.8950,9.0433
76.8950,9.6074
76.9054,9.7396
76.9604,9.9578
77.0534,10.1626
77.0534,10.1626
77.1816,10.3476
77.1816,10.3476
77.3407,10.5067
77.3407,10.5067
77.5256,10.6348
77.5256,10.6348
77.7305,10.7279
77.9487,10.7828
78.0808,10.7932
78.8950,10.7932
78.8950,10.7932
78.8950,9.2933
79.3950,9.2933
79.3950,10.7932
80.2092,10.7932
80.2092,10.7932
80.3413,10.7828
80.5595,10.7279
80.7644,10.6348
80.7644,10.6348
80.9493,10.5067
80.9493,10.5067
81.1084,10.3476
81.1084,10.3476
81.2366,10.1626
81.2366,10.1626
81.3296,9.9578
81.3846,9.7396
81.3950,9.6074
81.3950,9.6074
81.3950,9.0433
80.5780,9.0433
80.6109,8.9862
80.6450,8.8591
80.6450,8.7274
80.6109,8.6003
80.5780,8.5433
81.3950,8.5433
81.3950,7.9791
81.3950,7.9791
81.3846,7.8469
81.3296,7.6287
81.2366,7.4239
81.2366,7.4239
81.1084,7.2389
81.1084,7.2389
80.9493,7.0798
80.9493,7.0798
80.7644,6.9517
80.7644,6.9517
80.5595,6.8586
80.3413,6.8036
80.2092,6.7932
79.3950,6.7932
79.3950,8.2933
78.8950,8.2933
78.8950,6.7932
78.0808,6.7932
78.0808,6.7933
77.9487,6.8036
77.7305,6.8586
77.5256,6.9517
77.5256,6.9517
77.3407,7.0798
77.3407,7.0798
77.1816,7.2389
77.1816,7.2389
77.0534,7.4239
77.0534,7.4239
76.9604,7.6287
76.9054,7.8469
76.8950,7.9791
49.8005,7.9791
49.8005,6.1639
49.7725,5.9874
49.7725,5.9873
49.7725,5.9873
49.7173,5.8174
49.7173,5.8174
49.6362,5.6581
49.5912,5.5962
49.5311,5.5135
49.4047,5.3871
49.2601,5.2821
49.1009,5.2009
49.1009,5.2009
48.9309,5.1457
48.8132,5.1271
48.7544,5.1178
8.1144,5.1178
7.9356,5.1178
7.8768,5.1271
7.7591,5.1457
7.7591,5.1457
7.5891,5.2009
7.5891,5.2009
7.4299,5.2821
7.2853,5.3871
7.1589,5.5135
7.1589,5.5135
7.0988,5.5962
7.0435,5.6389
6.9739,5.6448
6.9121,5.6122
6.8777,5.5514
6.8745,5.5233
6.8745,3.8372
6.8942,3.7702
6.9470,3.7245
6.9985,3.7132
104.4210,3.7132
Z" /> 
<path style="fill:#FFFFFF; fill-opacity:1.0000; stroke:none;fill-rule:evenodd;"
d="M 83.7703,32.8084
83.7910,32.8251
95.5743,44.6084
95.6060,44.6649
95.6062,44.6649
95.6067,44.6662
95.6072,44.6671
95.6078,44.6695
95.6734,44.8717
95.7700,45.0611
95.8949,45.2330
96.0452,45.3834
96.2172,45.5083
96.2172,45.5083
96.2172,45.5083
96.4066,45.6048
96.6088,45.6705
96.8187,45.7037
96.8187,45.7037
97.0313,45.7037
97.0313,45.7037
97.2412,45.6705
97.4434,45.6048
97.6328,45.5083
97.7220,45.4435
97.8048,45.3834
97.8048,45.3834
97.8048,45.3834
97.9551,45.2330
97.9551,45.2330
97.9551,45.2330
98.0800,45.0611
98.0800,45.0611
98.0801,45.0611
98.0950,45.0317
98.1430,44.9809
98.2108,44.9641
98.2769,44.9866
98.3204,45.0414
98.3295,45.0880
98.3295,48.1254
98.3098,48.1925
98.2570,48.2382
98.1879,48.2482
98.1312,48.2247
98.0738,48.1817
98.0173,48.1395
98.0173,48.1395
98.0173,48.1395
97.8825,48.0892
97.8825,48.0892
97.8229,48.0828
97.8229,48.0827
97.8229,48.0827
97.8229,48.0827
96.0271,48.0827
96.0271,48.0828
95.9675,48.0892
95.8327,48.1395
95.8327,48.1395
95.7175,48.2257
95.7175,48.2257
95.6312,48.3409
95.6312,48.3409
95.5809,48.4758
95.5745,48.5354
95.5745,48.5354
95.5745,50.3311
95.5745,50.3311
95.5809,50.3907
95.6312,50.5256
95.6312,50.5256
95.7175,50.6408
95.7175,50.6408
95.8327,50.7270
95.8327,50.7270
95.8415,50.7303
95.9675,50.7773
96.0271,50.7837
96.0377,50.7837
96.1047,50.8034
96.1254,50.8201
96.7956,51.4903
96.7320,51.5073
96.6180,51.5732
96.5249,51.6662
96.4591,51.7803
96.4420,51.8438
95.8097,51.2115
95.8097,51.2115
95.7704,51.2657
95.6739,51.4550
95.6082,51.6571
95.6082,51.6571
95.5750,51.8670
95.5750,52.0795
95.6082,52.2894
95.6082,52.2894
95.6739,52.4915
95.7704,52.6808
95.8097,52.7350
96.4420,52.1027
96.4591,52.1662
96.5249,52.2803
96.6180,52.3733
96.7320,52.4392
96.7956,52.4562
96.1633,53.0885
96.1633,53.0885
96.2175,53.1279
96.2175,53.1279
96.2265,53.1325
96.2345,53.1401
96.2448,53.1439
96.2595,53.1636
96.2773,53.1805
96.2799,53.1912
96.2865,53.2000
96.2882,53.2245
96.2941,53.2483
96.2905,53.2587
96.2913,53.2697
96.2795,53.2912
96.2715,53.3144
96.2620,53.3229
96.2576,53.3309
96.2326,53.3490
96.2293,53.3520
96.2279,53.3528
96.2172,53.3582
96.2153,53.3596
96.2094,53.3628
96.1846,53.3681
96.1503,53.3777
89.2156,53.3777
89.1568,53.3871
89.0391,53.4057
89.0391,53.4057
88.8691,53.4609
88.8691,53.4609
88.7099,53.5421
88.5653,53.6471
88.4389,53.7735
88.3338,53.9181
88.2527,54.0774
88.2527,54.0774
88.1975,54.2473
88.1975,54.2474
88.1695,54.4239
88.1695,54.6026
88.1975,54.7791
88.1975,54.7792
88.2527,54.9491
88.2527,54.9491
88.3338,55.1084
88.4389,55.2530
88.5653,55.3794
88.7099,55.4844
88.8691,55.5656
88.8691,55.5656
88.9915,55.6053
89.0391,55.6208
89.2156,55.6487
96.1503,55.6487
96.2127,55.6663
96.2128,55.6661
96.2142,55.6668
96.2151,55.6670
96.2172,55.6683
96.2172,55.6683
96.2172,55.6683
96.4066,55.7648
96.6088,55.8305
96.8187,55.8637
96.8187,55.8637
97.0313,55.8637
97.0313,55.8637
97.2412,55.8305
97.4434,55.7648
97.6328,55.6683
97.7195,55.6053
97.8048,55.5434
97.8048,55.5434
97.8048,55.5434
97.9551,55.3930
97.9551,55.3930
97.9551,55.3930
98.0800,55.2211
98.0800,55.2211
98.0801,55.2211
98.0950,55.1917
98.1430,55.1409
98.2108,55.1241
98.2769,55.1466
98.3204,55.2014
98.3295,55.2480
98.3295,58.3337
98.3098,58.4008
98.2570,58.4465
98.2055,58.4577
93.1685,58.4577
93.1015,58.4381
93.0693,58.4081
93.0525,58.3857
93.0525,58.3857
93.0525,58.3857
92.9944,58.3422
92.9373,58.2995
92.9373,58.2995
92.8025,58.2492
92.8025,58.2492
92.7429,58.2428
92.7429,58.2428
92.7429,58.2428
92.7429,58.2428
90.9471,58.2428
90.9471,58.2428
90.8875,58.2492
90.7527,58.2995
90.7527,58.2995
90.6375,58.3857
90.6375,58.3857
90.5512,58.5009
90.5512,58.5009
90.5009,58.6358
90.4945,58.6954
90.4945,58.6954
90.4945,58.7059
90.4748,58.7730
90.4582,58.7936
89.7880,59.4638
89.7709,59.4003
89.7051,59.2862
89.6120,59.1932
89.4980,59.1273
89.4344,59.1103
90.0667,58.4780
90.0125,58.4386
89.8232,58.3422
89.6211,58.2765
89.4112,58.2432
89.1988,58.2432
88.9889,58.2765
88.9889,58.2765
88.7868,58.3422
88.5974,58.4386
88.5433,58.4780
88.5433,58.4780
89.1756,59.1103
89.1120,59.1273
88.9980,59.1932
88.9049,59.2862
88.8391,59.4003
88.8220,59.4638
88.1897,58.8315
88.1897,58.8315
88.1504,58.8857
88.1455,58.8953
88.0975,58.9461
88.0297,58.9629
87.9635,58.9403
87.9245,58.8953
87.9196,58.8857
87.8803,58.8315
87.8803,58.8315
87.2480,59.4638
87.2309,59.4003
87.1651,59.2862
87.0720,59.1932
86.9580,59.1273
86.8944,59.1103
87.5267,58.4780
87.4725,58.4386
87.2832,58.3422
87.0811,58.2765
86.8712,58.2432
86.6588,58.2432
86.4489,58.2765
86.4489,58.2765
86.2468,58.3422
86.0574,58.4386
86.0033,58.4780
86.0033,58.4780
86.6356,59.1103
86.5720,59.1273
86.4580,59.1932
86.3649,59.2862
86.2991,59.4003
86.2820,59.4638
85.6497,58.8315
85.6497,58.8315
85.6104,58.8857
85.6104,58.8857
85.6058,58.8948
85.5578,58.9455
85.4900,58.9623
85.4238,58.9398
85.3848,58.8947
85.3801,58.8854
85.3800,58.8854
85.3800,58.8854
85.2551,58.7135
85.1048,58.5631
84.9328,58.4382
84.7434,58.3417
84.7434,58.3417
84.7434,58.3417
84.5412,58.2760
84.5412,58.2760
84.5412,58.2760
84.3800,58.2505
84.3313,58.2428
84.1187,58.2428
84.0700,58.2505
83.9088,58.2760
83.7066,58.3417
83.5172,58.4382
83.5151,58.4395
83.5142,58.4397
83.5128,58.4404
83.5127,58.4401
83.4503,58.4577
74.5867,58.4577
74.5197,58.4381
74.4990,58.4214
67.1847,51.1071
67.1659,51.0935
67.1565,51.0866
67.0401,51.0021
66.8809,50.9209
66.8809,50.9209
66.8392,50.9074
66.7584,50.8812
66.7109,50.8657
66.7109,50.8657
66.7109,50.8657
66.5344,50.8377
66.5344,50.8377
62.1397,50.8377
62.1254,50.8341
62.1136,50.8350
62.0874,50.8245
62.0805,50.8227
62.0747,50.8195
62.0728,50.8182
62.0626,50.8130
62.0612,50.8122
62.0375,50.7887
62.0133,50.7658
62.0129,50.7641
62.0117,50.7629
62.0045,50.7303
61.9965,50.6979
61.9970,50.6964
61.9966,50.6947
62.0082,50.6634
62.0190,50.6318
62.0204,50.6306
62.0209,50.6292
62.0294,50.6228
62.0641,50.5928
62.0728,50.5883
62.1591,50.5256
62.2448,50.4634
62.2448,50.4634
62.2448,50.4634
62.3951,50.3130
62.3951,50.3130
62.3951,50.3130
62.5200,50.1411
62.5200,50.1411
62.5201,50.1411
62.6166,49.9517
62.6822,49.7495
62.7155,49.5395
62.7155,49.3270
62.6822,49.1170
62.6166,48.9148
62.5201,48.7254
62.5200,48.7254
62.5200,48.7254
62.3951,48.5535
62.2448,48.4031
62.0728,48.2782
62.0646,48.2740
62.0641,48.2737
62.0133,48.2258
61.9965,48.1579
62.0190,48.0918
62.0641,48.0528
62.0728,48.0483
62.1595,47.9853
62.2448,47.9234
62.2448,47.9234
62.2448,47.9234
62.3951,47.7730
62.3951,47.7730
62.3951,47.7730
62.5200,47.6011
62.5200,47.6011
62.5201,47.6011
62.6166,47.4117
62.6822,47.2095
62.7155,46.9995
62.7155,46.7870
62.6822,46.5770
62.6166,46.3748
62.5201,46.1854
62.5200,46.1854
62.5200,46.1854
62.3951,46.0135
62.2448,45.8631
62.0728,45.7382
62.0721,45.7378
62.0641,45.7337
62.0561,45.7262
62.0458,45.7223
62.0311,45.7026
62.0133,45.6858
62.0106,45.6751
62.0041,45.6663
62.0024,45.6418
61.9965,45.6179
62.0000,45.6075
61.9992,45.5966
62.0111,45.5751
62.0190,45.5518
62.0285,45.5434
62.0329,45.5354
62.0577,45.5173
62.0612,45.5143
62.0626,45.5135
62.0728,45.5083
62.0747,45.5070
62.0805,45.5038
62.1053,45.4984
62.1397,45.4887
63.3833,45.4887
63.4503,45.5084
63.4710,45.5251
70.1743,52.2284
70.2060,52.2849
70.2062,52.2849
70.2067,52.2862
70.2072,52.2871
70.2078,52.2895
70.2734,52.4917
70.3700,52.6811
70.4949,52.8530
70.6452,53.0034
70.8172,53.1283
70.8172,53.1283
70.8172,53.1283
71.0066,53.2248
71.2088,53.2905
71.4187,53.3237
71.4187,53.3237
71.6313,53.3237
71.6313,53.3237
71.8412,53.2905
72.0434,53.2248
72.2328,53.1283
72.3195,53.0653
72.4048,53.0034
72.4048,53.0034
72.4048,53.0034
72.5551,52.8530
72.5551,52.8530
72.5551,52.8530
72.6800,52.6811
72.6800,52.6811
72.6801,52.6811
72.6845,52.6723
72.7325,52.6215
72.8003,52.6047
72.8664,52.6272
72.9055,52.6723
72.9100,52.6811
73.0349,52.8530
73.1852,53.0034
73.3572,53.1283
73.3572,53.1283
73.3572,53.1283
73.5466,53.2248
73.7488,53.2905
73.9587,53.3237
73.9587,53.3237
74.1713,53.3237
74.1713,53.3237
74.3812,53.2905
74.5834,53.2248
74.7728,53.1283
74.8595,53.0653
74.9448,53.0034
74.9448,53.0034
74.9448,53.0034
75.0951,52.8530
75.0951,52.8530
75.0951,52.8530
75.2200,52.6811
75.2200,52.6811
75.2201,52.6811
75.2245,52.6723
75.2725,52.6215
75.3403,52.6047
75.4064,52.6272
75.4455,52.6723
75.4500,52.6811
75.5749,52.8530
75.7252,53.0034
75.8972,53.1283
75.8972,53.1283
75.8972,53.1283
76.0866,53.2248
76.2888,53.2905
76.4987,53.3237
76.4987,53.3237
76.7113,53.3237
76.7113,53.3237
76.9212,53.2905
77.1234,53.2248
77.3128,53.1283
77.3995,53.0653
77.4848,53.0034
77.4848,53.0034
77.4848,53.0034
77.5987,52.8894
77.6600,52.8559
77.7297,52.8609
77.7857,52.9028
77.8026,52.9338
77.8516,53.0653
77.8516,53.0653
77.9378,53.1804
77.9378,53.1804
78.0529,53.2666
78.0529,53.2666
78.1876,53.3168
78.1876,53.3168
78.2472,53.3232
78.2472,53.3232
78.8950,53.3232
78.8950,52.4063
78.9520,52.4392
79.0792,52.4733
79.2108,52.4733
79.3380,52.4392
79.3950,52.4063
79.3950,53.3232
80.0428,53.3232
80.0428,53.3232
80.1024,53.3168
80.1024,53.3168
80.2371,53.2666
80.2371,53.2666
80.3522,53.1804
80.3522,53.1804
80.4383,53.0653
80.4384,53.0653
80.4886,52.9306
80.4886,52.9306
80.4950,52.8711
80.4950,52.8711
80.4950,52.2233
79.5780,52.2233
79.6109,52.1662
79.6450,52.0391
79.6450,51.9074
79.6109,51.7803
79.5780,51.7233
80.4950,51.7233
80.4950,51.0754
80.4950,51.0754
80.4886,51.0159
80.4886,51.0159
80.4384,50.8812
80.4383,50.8812
80.3522,50.7661
80.3522,50.7661
80.2371,50.6799
80.2371,50.6799
80.1024,50.6297
80.1024,50.6297
80.0428,50.6232
79.3950,50.6232
79.3950,51.5402
79.3380,51.5073
79.2108,51.4733
79.0792,51.4733
78.9520,51.5073
78.8950,51.5402
78.8950,50.6232
78.2472,50.6232
78.1876,50.6297
78.1876,50.6297
78.0529,50.6799
78.0529,50.6799
77.9388,50.7653
77.8733,50.7897
77.8051,50.7749
77.7557,50.7255
77.7405,50.6660
77.7405,36.6439
77.7241,36.5403
77.7125,36.4674
77.7125,36.4673
77.7125,36.4673
77.6573,36.2974
77.6573,36.2974
77.6420,36.2673
77.5762,36.1381
77.4711,35.9935
77.3447,35.8671
77.2001,35.7621
77.0409,35.6809
77.0409,35.6809
76.8709,35.6257
76.7532,35.6071
76.6944,35.5977
76.5156,35.5977
76.4568,35.6071
76.3391,35.6257
76.3391,35.6257
76.1691,35.6809
76.1691,35.6809
76.0099,35.7621
75.8653,35.8671
75.7389,35.9935
75.6338,36.1381
75.5527,36.2974
75.5527,36.2974
75.4975,36.4673
75.4975,36.4674
75.4695,36.6439
75.4695,51.1986
75.4659,51.2129
75.4667,51.2246
75.4562,51.2509
75.4545,51.2577
75.4513,51.2636
75.4499,51.2654
75.4447,51.2756
75.4440,51.2771
75.4204,51.3007
75.3975,51.3250
75.3959,51.3254
75.3947,51.3266
75.3621,51.3338
75.3297,51.3418
75.3281,51.3412
75.3265,51.3416
75.2952,51.3300
75.2636,51.3192
75.2624,51.3179
75.2609,51.3173
75.2545,51.3088
75.2245,51.2742
75.2201,51.2654
75.0951,51.0935
74.9448,50.9431
74.7728,50.8182
74.5834,50.7217
74.5834,50.7217
74.5834,50.7217
74.3812,50.6560
74.3812,50.6560
74.3812,50.6560
74.3788,50.6554
74.3780,50.6549
74.3766,50.6545
74.3767,50.6542
74.3201,50.6225
64.6447,40.9471
64.6259,40.9335
64.6165,40.9266
64.5001,40.8421
64.3409,40.7609
64.3409,40.7609
64.2992,40.7474
64.2325,40.7257
64.1709,40.7057
64.1709,40.7057
64.1709,40.7057
63.9944,40.6777
63.9944,40.6777
62.1397,40.6777
62.1254,40.6741
62.1136,40.6750
62.0874,40.6645
62.0805,40.6627
62.0747,40.6595
62.0728,40.6582
62.0626,40.6530
62.0612,40.6522
62.0375,40.6287
62.0133,40.6058
62.0129,40.6041
62.0117,40.6029
62.0045,40.5703
61.9965,40.5379
61.9970,40.5364
61.9966,40.5347
62.0082,40.5034
62.0190,40.4718
62.0204,40.4706
62.0209,40.4692
62.0294,40.4628
62.0641,40.4328
62.0728,40.4283
62.1591,40.3656
62.2448,40.3034
62.2448,40.3034
62.2448,40.3034
62.3951,40.1530
62.3951,40.1530
62.3951,40.1530
62.5200,39.9811
62.5200,39.9811
62.5201,39.9811
62.6166,39.7917
62.6822,39.5895
62.7155,39.3795
62.7155,39.1670
62.6822,38.9570
62.6166,38.7548
62.5201,38.5654
62.5200,38.5654
62.5200,38.5654
62.3951,38.3935
62.2448,38.2431
62.0728,38.1182
62.0721,38.1178
62.0641,38.1137
62.0133,38.0658
61.9965,37.9979
62.0190,37.9318
62.0641,37.8928
62.0728,37.8883
62.1595,37.8253
62.2448,37.7634
62.2448,37.7634
62.2448,37.7634
62.3951,37.6130
62.3951,37.6130
62.3951,37.6130
62.5200,37.4411
62.5200,37.4411
62.5201,37.4411
62.6166,37.2517
62.6822,37.0495
62.7155,36.8395
62.7155,36.6270
62.6822,36.4170
62.6166,36.2148
62.5201,36.0254
62.5200,36.0254
62.5200,36.0254
62.3951,35.8535
62.2448,35.7031
62.0728,35.5782
62.0721,35.5778
62.0641,35.5737
62.0133,35.5258
61.9965,35.4579
62.0190,35.3918
62.0641,35.3528
62.0728,35.3483
62.0997,35.3287
62.2448,35.2234
62.2448,35.2234
62.2448,35.2234
62.3951,35.0730
62.3951,35.0730
62.3951,35.0730
62.5200,34.9011
62.5200,34.9011
62.5201,34.9011
62.6166,34.7117
62.6822,34.5095
62.7155,34.2995
62.7155,34.0870
62.6822,33.8770
62.6166,33.6748
62.5201,33.4854
62.5200,33.4854
62.5200,33.4854
62.3951,33.3135
62.2448,33.1631
62.0728,33.0382
62.0721,33.0378
62.0641,33.0337
62.0561,33.0262
62.0458,33.0223
62.0311,33.0026
62.0133,32.9858
62.0106,32.9751
62.0041,32.9663
62.0024,32.9418
61.9965,32.9179
62.0000,32.9075
61.9992,32.8966
62.0111,32.8751
62.0190,32.8518
62.0285,32.8434
62.0329,32.8354
62.0577,32.8173
62.0612,32.8143
62.0626,32.8135
62.0728,32.8083
62.0747,32.8070
62.0805,32.8038
62.1053,32.7984
62.1397,32.7888
83.7033,32.7888
Z" /> 
<path style="fill:#FFFFFF; fill-opacity:1.0000; stroke:none;fill-rule:evenodd;"
d="M 42.8727,22.6463
42.8728,22.6461
42.8742,22.6468
42.8751,22.6470
42.8772,22.6483
42.8859,22.6528
42.9367,22.7007
42.9535,22.7686
42.9310,22.8347
42.8859,22.8737
42.8772,22.8782
42.7052,23.0031
42.5549,23.1535
42.4300,23.3254
42.3334,23.5148
42.2678,23.7170
42.2345,23.9270
42.2345,24.1395
42.2678,24.3495
42.3334,24.5517
42.4300,24.7411
42.5549,24.9130
42.7052,25.0634
42.8772,25.1883
42.8859,25.1928
42.9367,25.2407
42.9535,25.3086
42.9310,25.3747
42.8859,25.4137
42.8772,25.4182
42.7052,25.5431
42.5549,25.6935
42.4300,25.8654
42.3334,26.0548
42.2678,26.2570
42.2663,26.2662
42.2345,26.4670
42.2345,26.6795
42.2445,26.7429
42.2678,26.8895
42.3334,27.0917
42.4300,27.2811
42.5549,27.4530
42.7052,27.6034
42.8772,27.7283
42.8859,27.7328
42.9367,27.7807
42.9535,27.8486
42.9310,27.9147
42.8859,27.9537
42.8772,27.9582
42.7052,28.0831
42.5549,28.2335
42.4300,28.4054
42.3334,28.5948
42.2678,28.7970
42.2345,29.0070
42.2345,29.2195
42.2678,29.4295
42.3334,29.6317
42.4300,29.8211
42.5549,29.9930
42.7052,30.1434
42.8772,30.2683
42.8859,30.2728
42.9367,30.3207
42.9535,30.3886
42.9310,30.4547
42.8859,30.4937
42.8772,30.4982
42.7052,30.6231
42.5549,30.7735
42.4300,30.9454
42.3334,31.1348
42.2678,31.3370
42.2345,31.5470
42.2345,31.7595
42.2678,31.9695
42.3334,32.1717
42.4300,32.3611
42.5549,32.5330
42.7052,32.6834
42.8772,32.8083
42.8859,32.8128
42.8939,32.8203
42.9042,32.8242
42.9189,32.8439
42.9367,32.8607
42.9394,32.8714
42.9459,32.8802
42.9476,32.9047
42.9535,32.9286
42.9500,32.9390
42.9508,32.9499
42.9389,32.9714
42.9310,32.9947
42.9215,33.0031
42.9171,33.0111
42.8923,33.0292
42.8888,33.0322
42.8874,33.0330
42.8772,33.0382
42.8753,33.0395
42.8695,33.0427
42.8447,33.0481
42.8103,33.0577
35.8756,33.0577
35.8168,33.0671
35.6991,33.0857
35.6991,33.0857
35.5291,33.1409
35.5291,33.1409
35.3699,33.2221
35.2253,33.3271
35.0989,33.4535
34.9938,33.5981
34.9127,33.7574
34.9127,33.7574
34.8575,33.9273
34.8575,33.9274
34.8295,34.1039
34.8295,34.2826
34.8575,34.4591
34.8575,34.4592
34.9127,34.6291
34.9127,34.6291
34.9938,34.7884
35.0989,34.9330
35.2253,35.0594
35.3699,35.1644
35.5291,35.2456
35.5291,35.2456
35.6459,35.2835
35.6991,35.3008
35.8756,35.3287
42.8103,35.3287
42.8246,35.3324
42.8364,35.3315
42.8627,35.3420
42.8695,35.3438
42.8753,35.3470
42.8772,35.3483
42.8874,35.3535
42.8888,35.3543
42.9125,35.3778
42.9367,35.4007
42.9371,35.4024
42.9383,35.4036
42.9455,35.4361
42.9535,35.4686
42.9530,35.4702
42.9534,35.4718
42.9418,35.5031
42.9310,35.5347
42.9296,35.5359
42.9291,35.5373
42.9206,35.5437
42.8859,35.5737
42.8772,35.5782
42.7052,35.7031
42.5549,35.8535
42.4300,36.0254
42.3334,36.2148
42.2678,36.4170
42.2598,36.4674
42.2345,36.6270
42.2345,36.8395
42.2445,36.9029
42.2678,37.0495
42.3334,37.2517
42.4300,37.4411
42.5549,37.6130
42.7052,37.7634
42.8772,37.8883
42.8859,37.8928
42.9367,37.9407
42.9535,38.0086
42.9310,38.0747
42.8859,38.1137
42.8772,38.1182
42.7052,38.2431
42.5549,38.3935
42.4300,38.5654
42.3334,38.7548
42.2678,38.9570
42.2345,39.1670
42.2345,39.3795
42.2678,39.5895
42.3066,39.7091
42.3334,39.7917
42.4300,39.9811
42.5549,40.1530
42.7052,40.3034
42.8772,40.4283
42.8859,40.4328
42.9367,40.4807
42.9535,40.5486
42.9310,40.6147
42.8859,40.6537
42.8772,40.6582
42.7052,40.7831
42.5549,40.9335
42.4300,41.1054
42.3334,41.2948
42.2678,41.4970
42.2345,41.7070
42.2345,41.9195
42.2678,42.1295
42.3334,42.3317
42.4300,42.5211
42.5549,42.6930
42.7052,42.8434
42.8772,42.9683
42.8859,42.9728
42.9367,43.0207
42.9535,43.0886
42.9310,43.1547
42.8859,43.1937
42.8772,43.1982
42.7052,43.3231
42.5549,43.4735
42.4300,43.6454
42.3334,43.8348
42.2678,44.0370
42.2345,44.2470
42.2345,44.4595
42.2678,44.6695
42.3334,44.8717
42.4300,45.0611
42.5549,45.2330
42.7052,45.3834
42.8772,45.5083
42.8859,45.5128
42.9367,45.5607
42.9535,45.6286
42.9310,45.6947
42.8859,45.7337
42.8772,45.7382
42.7052,45.8631
42.5549,46.0135
42.4300,46.1854
42.3334,46.3748
42.2678,46.5770
42.2345,46.7870
42.2345,46.9995
42.2678,47.2095
42.3334,47.4117
42.4300,47.6011
42.5549,47.7730
42.7052,47.9234
42.8772,48.0483
42.8772,48.0483
42.8772,48.0483
42.8865,48.0530
42.9373,48.1010
42.9541,48.1688
42.9316,48.2350
42.8865,48.2740
42.8774,48.2786
42.8774,48.2786
42.8233,48.3180
42.8233,48.3180
43.4556,48.9503
43.3920,48.9673
43.2780,49.0332
43.1849,49.1262
43.1191,49.2403
43.1020,49.3038
42.4697,48.6715
42.4697,48.6715
42.4304,48.7257
42.3339,48.9150
42.2682,49.1171
42.2682,49.1171
42.2350,49.3270
42.2350,49.5395
42.2682,49.7494
42.2682,49.7494
42.3339,49.9515
42.4304,50.1408
42.4697,50.1950
43.1020,49.5627
43.1191,49.6262
43.1849,49.7403
43.2780,49.8333
43.3920,49.8992
43.4556,49.9162
42.8233,50.5485
42.8233,50.5485
42.8775,50.5879
42.8775,50.5879
42.8865,50.5925
42.9373,50.6405
42.9541,50.7083
42.9316,50.7744
42.8865,50.8135
42.8772,50.8182
42.7052,50.9431
42.5549,51.0935
42.4300,51.2654
42.3334,51.4548
42.2678,51.6570
42.2345,51.8670
42.2345,52.0795
42.2678,52.2895
42.3334,52.4917
42.4300,52.6811
42.5549,52.8530
42.7052,53.0034
42.8772,53.1283
42.8859,53.1328
42.9367,53.1807
42.9535,53.2486
42.9310,53.3147
42.8859,53.3537
42.8772,53.3582
42.7052,53.4831
42.5549,53.6335
42.4300,53.8054
42.3334,53.9948
42.2678,54.1970
42.2598,54.2474
42.2345,54.4070
42.2345,54.6195
42.2445,54.6829
42.2678,54.8295
42.3334,55.0317
42.4300,55.2211
42.5549,55.3930
42.7052,55.5434
42.8772,55.6683
42.8772,55.6683
42.8772,55.6683
42.9066,55.6833
42.9573,55.7312
42.9741,55.7991
42.9516,55.8652
42.8969,55.9086
42.8503,55.9177
36.4867,55.9177
36.4197,55.8981
36.3990,55.8814
19.3568,38.8392
19.3233,38.7779
19.3205,38.7515
19.3205,31.5639
19.3041,31.4603
19.2925,31.3874
19.2925,31.3873
19.2925,31.3873
19.2373,31.2174
19.2373,31.2174
19.2220,31.1873
19.1562,31.0581
19.0511,30.9135
18.9247,30.7871
18.7801,30.6821
18.6209,30.6009
18.6209,30.6009
18.4509,30.5457
18.3332,30.5271
18.2744,30.5177
18.2744,30.5177
11.3397,30.5177
11.2773,30.5001
11.2772,30.5004
11.2758,30.4997
11.2749,30.4995
11.2728,30.4982
11.0834,30.4017
11.0834,30.4017
11.0834,30.4017
10.8812,30.3360
10.8812,30.3360
10.8812,30.3360
10.7200,30.3105
10.6713,30.3027
10.4587,30.3027
10.4100,30.3105
10.2488,30.3360
10.0466,30.4017
9.8572,30.4982
9.6852,30.6231
9.5349,30.7735
9.4099,30.9454
9.3950,30.9748
9.3470,31.0256
9.2792,31.0424
9.2131,31.0199
9.1696,30.9651
9.1605,30.9185
9.1605,27.8805
9.1802,27.8134
9.2330,27.7677
9.3021,27.7577
9.3588,27.7812
9.4729,27.8666
9.4729,27.8666
9.6076,27.9168
9.6076,27.9168
9.6672,27.9232
9.6672,27.9232
10.3150,27.9232
10.3150,27.0063
10.3720,27.0392
10.4992,27.0732
10.6308,27.0732
10.7580,27.0392
10.8150,27.0063
10.8150,27.9232
11.4628,27.9232
11.4628,27.9232
11.5224,27.9168
11.5224,27.9168
11.6571,27.8666
11.6571,27.8666
11.7722,27.7804
11.7722,27.7804
11.8583,27.6653
11.8584,27.6653
11.9086,27.5306
11.9086,27.5306
11.9150,27.4711
11.9150,27.4711
11.9150,26.8232
10.9980,26.8232
11.0309,26.7662
11.0650,26.6391
11.0650,26.5074
11.0309,26.3803
10.9980,26.3232
11.9150,26.3232
11.9150,25.6754
11.9150,25.6754
11.9086,25.6159
11.9086,25.6159
11.8584,25.4812
11.8583,25.4812
11.7722,25.3661
11.7722,25.3661
11.6571,25.2799
11.6571,25.2799
11.5255,25.2308
11.4696,25.1890
11.4452,25.1235
11.4600,25.0552
11.4812,25.0270
11.5951,24.9130
11.7201,24.7411
11.8166,24.5517
11.8822,24.3495
11.9155,24.1395
11.9155,23.9270
11.8822,23.7170
11.8166,23.5148
11.7201,23.3254
11.7200,23.3254
11.7200,23.3254
11.5951,23.1535
11.4448,23.0031
11.2728,22.8782
11.2721,22.8778
11.2641,22.8737
11.2561,22.8662
11.2458,22.8623
11.2311,22.8426
11.2133,22.8258
11.2106,22.8151
11.2041,22.8063
11.2024,22.7818
11.1965,22.7579
11.2000,22.7475
11.1992,22.7366
11.2111,22.7151
11.2190,22.6918
11.2285,22.6834
11.2329,22.6754
11.2577,22.6573
11.2612,22.6543
11.2626,22.6535
11.2728,22.6483
11.2747,22.6470
11.2805,22.6438
11.3053,22.6384
11.3397,22.6288
42.8103,22.6288
Z" /> 
<path style="fill:#FFFFFF; fill-opacity:1.0000; stroke:none;fill-rule:evenodd;"
d="M 60.6527,20.1063
60.6528,20.1061
60.6542,20.1068
60.6551,20.1070
60.6572,20.1083
60.6659,20.1128
60.6739,20.1203
60.6842,20.1242
60.6989,20.1439
60.7167,20.1607
60.7194,20.1714
60.7259,20.1802
60.7276,20.2047
60.7335,20.2286
60.7300,20.2390
60.7308,20.2499
60.7189,20.2714
60.7110,20.2947
60.7015,20.3031
60.6971,20.3111
60.6723,20.3292
60.6688,20.3322
60.6674,20.3330
60.6572,20.3382
60.6553,20.3395
60.6495,20.3427
60.6247,20.3481
60.5903,20.3577
53.8344,20.3577
53.6556,20.3577
53.5968,20.3671
53.4791,20.3857
53.4791,20.3857
53.3091,20.4409
53.3091,20.4409
53.1499,20.5221
53.0053,20.6271
52.8789,20.7535
52.7738,20.8981
52.6927,21.0574
52.6927,21.0574
52.6375,21.2273
52.6375,21.2274
52.6095,21.4039
52.6095,48.9115
52.5898,48.9786
52.5732,48.9992
45.6910,55.8814
45.6297,55.9149
45.6033,55.9177
44.3197,55.9177
44.2527,55.8981
44.2069,55.8453
44.1970,55.7761
44.2260,55.7125
44.2634,55.6833
44.2928,55.6683
44.3795,55.6053
44.4648,55.5434
44.4648,55.5434
44.4648,55.5434
44.6151,55.3930
44.6151,55.3930
44.6151,55.3930
44.7400,55.2211
44.7400,55.2211
44.7401,55.2211
44.8366,55.0317
44.9022,54.8295
44.9355,54.6195
44.9355,54.4070
44.9022,54.1970
44.8366,53.9948
44.7401,53.8054
44.7400,53.8054
44.7400,53.8054
44.6151,53.6335
44.4648,53.4831
44.2928,53.3582
44.2921,53.3578
44.2841,53.3537
44.2333,53.3058
44.2165,53.2379
44.2390,53.1718
44.2841,53.1328
44.2928,53.1283
44.3795,53.0653
44.4648,53.0034
44.4648,53.0034
44.4648,53.0034
44.6151,52.8530
44.6151,52.8530
44.6151,52.8530
44.7400,52.6811
44.7400,52.6811
44.7401,52.6811
44.8366,52.4917
44.9022,52.2895
44.9355,52.0795
44.9355,51.8670
44.9022,51.6570
44.8366,51.4548
44.7401,51.2654
44.7400,51.2654
44.7400,51.2654
44.6151,51.0935
44.4648,50.9431
44.2928,50.8182
44.2835,50.8135
44.2327,50.7655
44.2159,50.6977
44.2384,50.6315
44.2835,50.5925
44.2926,50.5879
44.3467,50.5485
44.3467,50.5485
43.7144,49.9162
43.7780,49.8992
43.8920,49.8333
43.9851,49.7403
44.0509,49.6262
44.0680,49.5627
44.7003,50.1950
44.7003,50.1950
44.7396,50.1408
44.8361,49.9515
44.9018,49.7494
44.9018,49.7494
44.9350,49.5395
44.9350,49.3270
44.9018,49.1171
44.9018,49.1171
44.8361,48.9150
44.7396,48.7257
44.7003,48.6715
44.7003,48.6715
44.0680,49.3038
44.0509,49.2403
43.9851,49.1262
43.8920,49.0332
43.7780,48.9673
43.7144,48.9503
44.3467,48.3180
44.2925,48.2786
44.2925,48.2786
44.2835,48.2740
44.2755,48.2664
44.2652,48.2626
44.2505,48.2429
44.2327,48.2260
44.2301,48.2153
44.2235,48.2065
44.2218,48.1820
44.2159,48.1582
44.2195,48.1478
44.2187,48.1368
44.2305,48.1153
44.2385,48.0921
44.2480,48.0836
44.2524,48.0756
44.2774,48.0575
44.2807,48.0545
44.2821,48.0538
44.2928,48.0483
44.2947,48.0469
44.3006,48.0437
44.3254,48.0384
44.3597,48.0287
48.7544,48.0287
48.7544,48.0287
48.9309,48.0008
48.9309,48.0008
48.9309,48.0008
49.1009,47.9456
49.1009,47.9456
49.1009,47.9456
49.2601,47.8644
49.4047,47.7594
49.5311,47.6330
49.6362,47.4884
49.7173,47.3291
49.7725,47.1591
49.8005,46.9826
49.8005,20.2127
49.8202,20.1457
49.8730,20.1000
49.9245,20.0887
60.5903,20.0887
Z" /> 
<path style="fill:#FFFFFF; fill-opacity:1.0000; stroke:none;fill-rule:evenodd;"
d="M 98.0403,52.7350
98.0403,52.7350
98.0796,52.6808
98.0950,52.6506
98.1430,52.5998
98.2108,52.5830
98.2769,52.6055
98.3204,52.6603
98.3295,52.7069
98.3295,53.7785
98.3098,53.8455
98.2570,53.8913
98.1879,53.9012
98.1243,53.8722
98.0950,53.8348
98.0800,53.8054
97.9551,53.6335
97.8048,53.4831
97.6328,53.3582
97.6235,53.3535
97.5727,53.3055
97.5559,53.2377
97.5784,53.1715
97.6235,53.1325
97.6326,53.1279
97.6867,53.0885
97.6867,53.0885
97.0544,52.4562
97.1180,52.4392
97.2320,52.3733
97.3251,52.2803
97.3909,52.1662
97.4080,52.1027
Z" /> 
<path style="fill:#FFFFFF; fill-opacity:1.0000; stroke:none;fill-rule:evenodd;"
d="M 98.2649,50.6322
98.3143,50.6816
98.3295,50.7411
98.3295,51.2396
98.3098,51.3066
98.2570,51.3524
98.1879,51.3623
98.1243,51.3333
98.0950,51.2959
98.0796,51.2657
98.0403,51.2115
98.0403,51.2115
97.4080,51.8438
97.3909,51.7803
97.3251,51.6662
97.2320,51.5732
97.1180,51.5073
97.0544,51.4903
97.7246,50.8201
97.7859,50.7866
97.8123,50.7837
97.8229,50.7837
97.8825,50.7773
98.0173,50.7270
98.0803,50.6799
98.1312,50.6418
98.1967,50.6174
Z" /> 
<path style="fill:#FFFFFF; fill-opacity:1.0000; stroke:none;fill-rule:evenodd;"
d="M 47.4725,7.4084
47.5183,7.4612
47.5295,7.5127
47.5295,45.6337
47.5098,45.7008
47.4570,45.7465
47.4055,45.7578
44.3597,45.7578
44.2973,45.7401
44.2972,45.7404
44.2958,45.7397
44.2949,45.7395
44.2928,45.7382
44.2878,45.7356
44.2841,45.7337
44.2333,45.6858
44.2165,45.6179
44.2390,45.5518
44.2841,45.5128
44.2928,45.5083
44.3820,45.4435
44.4648,45.3834
44.4648,45.3834
44.4648,45.3834
44.6151,45.2330
44.6151,45.2330
44.6151,45.2330
44.7400,45.0611
44.7400,45.0611
44.7401,45.0611
44.8366,44.8717
44.9022,44.6695
44.9355,44.4595
44.9355,44.2470
44.9022,44.0370
44.8366,43.8348
44.7401,43.6454
44.7400,43.6454
44.7400,43.6454
44.6151,43.4735
44.4648,43.3231
44.2928,43.1982
44.2921,43.1978
44.2841,43.1937
44.2333,43.1458
44.2165,43.0779
44.2390,43.0118
44.2841,42.9728
44.2928,42.9683
44.3476,42.9285
44.4648,42.8434
44.4648,42.8434
44.4648,42.8434
44.6151,42.6930
44.6151,42.6930
44.6151,42.6930
44.7400,42.5211
44.7400,42.5211
44.7401,42.5211
44.8366,42.3317
44.9022,42.1295
44.9355,41.9195
44.9355,41.7070
44.9022,41.4970
44.8366,41.2948
44.7401,41.1054
44.7400,41.1054
44.7400,41.1054
44.6151,40.9335
44.4648,40.7831
44.2928,40.6582
44.2921,40.6578
44.2841,40.6537
44.2333,40.6058
44.2165,40.5379
44.2390,40.4718
44.2841,40.4328
44.2928,40.4283
44.3791,40.3656
44.4648,40.3034
44.4648,40.3034
44.4648,40.3034
44.6151,40.1530
44.6151,40.1530
44.6151,40.1530
44.7400,39.9811
44.7400,39.9811
44.7401,39.9811
44.8366,39.7917
44.9022,39.5895
44.9355,39.3795
44.9355,39.1670
44.9022,38.9570
44.8366,38.7548
44.7401,38.5654
44.7400,38.5654
44.7400,38.5654
44.6151,38.3935
44.4648,38.2431
44.2928,38.1182
44.2921,38.1178
44.2841,38.1137
44.2333,38.0658
44.2165,37.9979
44.2390,37.9318
44.2841,37.8928
44.2928,37.8883
44.3795,37.8253
44.4648,37.7634
44.4648,37.7634
44.4648,37.7634
44.6151,37.6130
44.6151,37.6130
44.6151,37.6130
44.7400,37.4411
44.7400,37.4411
44.7401,37.4411
44.8366,37.2517
44.9022,37.0495
44.9355,36.8395
44.9355,36.6270
44.9022,36.4170
44.8366,36.2148
44.7401,36.0254
44.7400,36.0254
44.7400,36.0254
44.6151,35.8535
44.4648,35.7031
44.2928,35.5782
44.2921,35.5778
44.2841,35.5737
44.2333,35.5258
44.2165,35.4579
44.2390,35.3918
44.2841,35.3528
44.2928,35.3483
44.3197,35.3287
44.4648,35.2234
44.4648,35.2234
44.4648,35.2234
44.6151,35.0730
44.6151,35.0730
44.6151,35.0730
44.7400,34.9011
44.7400,34.9011
44.7401,34.9011
44.8366,34.7117
44.9022,34.5095
44.9355,34.2995
44.9355,34.0870
44.9022,33.8770
44.8366,33.6748
44.7401,33.4854
44.7400,33.4854
44.7400,33.4854
44.6151,33.3135
44.4648,33.1631
44.2928,33.0382
44.2921,33.0378
44.2841,33.0337
44.2333,32.9858
44.2165,32.9179
44.2390,32.8518
44.2841,32.8128
44.2928,32.8083
44.3476,32.7685
44.4648,32.6834
44.4648,32.6834
44.4648,32.6834
44.6151,32.5330
44.6151,32.5330
44.6151,32.5330
44.7400,32.3611
44.7400,32.3611
44.7401,32.3611
44.8366,32.1717
44.9022,31.9695
44.9355,31.7595
44.9355,31.5470
44.9022,31.3370
44.8366,31.1348
44.7401,30.9454
44.7400,30.9454
44.7400,30.9454
44.6151,30.7735
44.4648,30.6231
44.2928,30.4982
44.2921,30.4978
44.2841,30.4937
44.2333,30.4458
44.2165,30.3779
44.2390,30.3118
44.2841,30.2728
44.2928,30.2683
44.3791,30.2056
44.4648,30.1434
44.4648,30.1434
44.4648,30.1434
44.6151,29.9930
44.6151,29.9930
44.6151,29.9930
44.7400,29.8211
44.7400,29.8211
44.7401,29.8211
44.8366,29.6317
44.9022,29.4295
44.9355,29.2195
44.9355,29.0070
44.9022,28.7970
44.8366,28.5948
44.7401,28.4054
44.7400,28.4054
44.7400,28.4054
44.6151,28.2335
44.4648,28.0831
44.2928,27.9582
44.2921,27.9578
44.2841,27.9537
44.2333,27.9058
44.2165,27.8379
44.2390,27.7718
44.2841,27.7328
44.2928,27.7283
44.3197,27.7087
44.4648,27.6034
44.4648,27.6034
44.4648,27.6034
44.6151,27.4530
44.6151,27.4530
44.6151,27.4530
44.7400,27.2811
44.7400,27.2811
44.7401,27.2811
44.8366,27.0917
44.9022,26.8895
44.9355,26.6795
44.9355,26.4670
44.9022,26.2570
44.8366,26.0548
44.7401,25.8654
44.7400,25.8654
44.7400,25.8654
44.6151,25.6935
44.4648,25.5431
44.2928,25.4182
44.2921,25.4178
44.2841,25.4137
44.2333,25.3658
44.2165,25.2979
44.2390,25.2318
44.2841,25.1928
44.2928,25.1883
44.3820,25.1235
44.4648,25.0634
44.4648,25.0634
44.4648,25.0634
44.6151,24.9130
44.6151,24.9130
44.6151,24.9130
44.7400,24.7411
44.7400,24.7411
44.7401,24.7411
44.8366,24.5517
44.9022,24.3495
44.9355,24.1395
44.9355,23.9270
44.9022,23.7170
44.8366,23.5148
44.7401,23.3254
44.7400,23.3254
44.7400,23.3254
44.6151,23.1535
44.4648,23.0031
44.2928,22.8782
44.2921,22.8778
44.2841,22.8737
44.2333,22.8258
44.2165,22.7579
44.2390,22.6918
44.2841,22.6528
44.2928,22.6483
44.3476,22.6085
44.4648,22.5234
44.4648,22.5234
44.4648,22.5234
44.6151,22.3730
44.6151,22.3730
44.6151,22.3730
44.7400,22.2011
44.7400,22.2011
44.7401,22.2011
44.8366,22.0117
44.9022,21.8095
44.9355,21.5995
44.9355,21.3870
44.9022,21.1770
44.8366,20.9748
44.7401,20.7854
44.7400,20.7854
44.7400,20.7854
44.6151,20.6135
44.4648,20.4631
44.2928,20.3382
44.2921,20.3378
44.2841,20.3337
44.2333,20.2858
44.2165,20.2179
44.2390,20.1518
44.2841,20.1128
44.2928,20.1083
44.3582,20.0608
44.4648,19.9834
44.4648,19.9834
44.4648,19.9834
44.6151,19.8330
44.6151,19.8330
44.6151,19.8330
44.7400,19.6611
44.7400,19.6611
44.7401,19.6611
44.8366,19.4717
44.9022,19.2695
44.9355,19.0595
44.9355,18.8470
44.9022,18.6370
44.8366,18.4348
44.7401,18.2454
44.7400,18.2454
44.7400,18.2454
44.6151,18.0735
44.4648,17.9231
44.2928,17.7982
44.2835,17.7935
44.2327,17.7455
44.2159,17.6777
44.2384,17.6115
44.2835,17.5725
44.2926,17.5679
44.3467,17.5285
44.3467,17.5285
43.7144,16.8962
43.7780,16.8792
43.8920,16.8133
43.9851,16.7203
44.0509,16.6062
44.0680,16.5427
44.7003,17.1750
44.7003,17.1750
44.7396,17.1208
44.8361,16.9315
44.9018,16.7294
44.9018,16.7294
44.9350,16.5195
44.9350,16.3070
44.9018,16.0971
44.9018,16.0971
44.8361,15.8950
44.7396,15.7057
44.7003,15.6515
44.7003,15.6515
44.0680,16.2838
44.0509,16.2203
43.9851,16.1062
43.8920,16.0132
43.7780,15.9473
43.7144,15.9303
44.3467,15.2980
44.2925,15.2586
44.1032,15.1622
43.9011,15.0965
43.6912,15.0633
43.4788,15.0633
43.2689,15.0965
43.2689,15.0965
43.0668,15.1622
42.8774,15.2586
42.8233,15.2980
42.8233,15.2980
43.4556,15.9303
43.3920,15.9473
43.2780,16.0132
43.1849,16.1062
43.1191,16.2203
43.1020,16.2838
42.4697,15.6515
42.4697,15.6515
42.4304,15.7057
42.3339,15.8950
42.2682,16.0971
42.2682,16.0971
42.2350,16.3070
42.2350,16.5195
42.2682,16.7294
42.2682,16.7294
42.3339,16.9315
42.4304,17.1208
42.4697,17.1750
43.1020,16.5427
43.1191,16.6062
43.1849,16.7203
43.2780,16.8133
43.3920,16.8792
43.4556,16.8962
42.8233,17.5285
42.8233,17.5285
42.8775,17.5679
42.8775,17.5679
42.8865,17.5725
42.8945,17.5801
42.9048,17.5839
42.9195,17.6036
42.9373,17.6205
42.9399,17.6312
42.9465,17.6400
42.9482,17.6645
42.9541,17.6883
42.9505,17.6987
42.9513,17.7097
42.9395,17.7312
42.9316,17.7544
42.9220,17.7629
42.9176,17.7709
42.8926,17.7890
42.8893,17.7920
42.8879,17.7928
42.8772,17.7982
42.8753,17.7996
42.8694,17.8028
42.8446,17.8081
42.8103,17.8178
39.0267,17.8178
38.9597,17.7981
38.9390,17.7814
36.5905,15.4329
31.6247,10.4671
31.6059,10.4535
31.5965,10.4466
31.4801,10.3621
31.3209,10.2809
31.3209,10.2809
31.2792,10.2674
31.2125,10.2457
31.1509,10.2257
31.1509,10.2257
31.1509,10.2257
30.9744,10.1977
30.9744,10.1977
11.3397,10.1977
11.2773,10.1801
11.2772,10.1804
11.2758,10.1797
11.2749,10.1795
11.2728,10.1782
11.0834,10.0817
11.0834,10.0817
11.0834,10.0817
10.8812,10.0160
10.8812,10.0160
10.8812,10.0160
10.7200,9.9905
10.6713,9.9827
10.4587,9.9827
10.4100,9.9905
10.2488,10.0160
10.0466,10.0817
9.8572,10.1782
9.6852,10.3031
9.5349,10.4535
9.4099,10.6254
9.3950,10.6548
9.3470,10.7056
9.2792,10.7224
9.2131,10.6999
9.1696,10.6451
9.1605,10.5985
9.1605,7.5127
9.1802,7.4457
9.2330,7.4000
9.2845,7.3887
47.4055,7.3887
Z" /> 
<path style="fill:#FFFFFF; fill-opacity:1.0000; stroke:none;fill-rule:evenodd;"
d="M 98.0403,42.5750
98.0403,42.5750
98.0796,42.5208
98.0950,42.4906
98.1430,42.4398
98.2108,42.4230
98.2769,42.4455
98.3204,42.5003
98.3295,42.5469
98.3295,43.6185
98.3098,43.6855
98.2570,43.7313
98.1879,43.7412
98.1243,43.7122
98.0950,43.6748
98.0800,43.6454
97.9551,43.4735
97.8048,43.3231
97.6328,43.1982
97.6235,43.1935
97.5727,43.1455
97.5559,43.0777
97.5784,43.0115
97.6235,42.9725
97.6326,42.9679
97.6867,42.9285
97.6867,42.9285
97.0544,42.2962
97.1180,42.2792
97.2320,42.2133
97.3251,42.1203
97.3909,42.0062
97.4080,41.9427
Z" /> 
<path style="fill:#FFFFFF; fill-opacity:1.0000; stroke:none;fill-rule:evenodd;"
d="M 88.8503,30.2684
88.8710,30.2851
93.5189,34.9330
93.6453,35.0594
93.7417,35.1294
93.7899,35.1644
93.8341,35.1870
93.9491,35.2456
93.9908,35.2591
93.9908,35.2591
93.9908,35.2591
94.0229,35.2695
94.1191,35.3008
94.1948,35.3128
94.2956,35.3287
94.2956,35.3287
96.1503,35.3287
96.2127,35.3464
96.2128,35.3461
96.2142,35.3468
96.2151,35.3470
96.2172,35.3483
96.2172,35.3483
96.2172,35.3483
96.4066,35.4448
96.6088,35.5105
96.8187,35.5437
96.8187,35.5437
97.0313,35.5437
97.0313,35.5437
97.2412,35.5105
97.4434,35.4448
97.6328,35.3483
97.6597,35.3287
97.8048,35.2234
97.8048,35.2234
97.8048,35.2234
97.9551,35.0730
97.9551,35.0730
97.9551,35.0730
98.0800,34.9011
98.0800,34.9011
98.0801,34.9011
98.0950,34.8717
98.1430,34.8209
98.2108,34.8041
98.2769,34.8266
98.3204,34.8814
98.3295,34.9280
98.3295,37.9654
98.3098,38.0325
98.2570,38.0782
98.1879,38.0882
98.1312,38.0647
98.0803,38.0266
98.0173,37.9795
98.0173,37.9795
98.0173,37.9795
97.8825,37.9292
97.8825,37.9292
97.8229,37.9228
97.8229,37.9228
97.8229,37.9228
97.8229,37.9228
96.0271,37.9228
96.0271,37.9228
95.9675,37.9292
95.8327,37.9795
95.8327,37.9795
95.7175,38.0657
95.7175,38.0657
95.6312,38.1809
95.6312,38.1809
95.5809,38.3158
95.5745,38.3754
95.5745,38.3754
95.5745,40.1711
95.5745,40.1711
95.5809,40.2307
95.6312,40.3656
95.6312,40.3656
95.7175,40.4808
95.7175,40.4808
95.8327,40.5670
95.8327,40.5670
95.8415,40.5703
95.9675,40.6173
96.0271,40.6238
96.0377,40.6237
96.1047,40.6434
96.1254,40.6601
96.7956,41.3303
96.7320,41.3473
96.6180,41.4132
96.5249,41.5062
96.4591,41.6203
96.4420,41.6838
95.8097,41.0515
95.8097,41.0515
95.7704,41.1057
95.7704,41.1057
95.6834,41.2763
95.6355,41.3271
95.5676,41.3439
95.5015,41.3214
95.4853,41.3077
84.9647,30.7871
84.9459,30.7735
84.9365,30.7666
84.8201,30.6821
84.6609,30.6009
84.6609,30.6009
84.6192,30.5874
84.5525,30.5657
84.4909,30.5457
84.4909,30.5457
84.4909,30.5457
84.3144,30.5177
84.3144,30.5177
62.1397,30.5177
62.1310,30.5152
62.1220,30.5165
62.0772,30.5003
62.0772,30.5004
62.0763,30.5000
62.0749,30.4995
62.0728,30.4982
62.0678,30.4956
62.0641,30.4937
62.0133,30.4458
61.9965,30.3779
62.0190,30.3118
62.0641,30.2728
62.0728,30.2683
62.0728,30.2683
62.0728,30.2683
62.0749,30.2670
62.0758,30.2668
62.0772,30.2661
62.0773,30.2663
62.0825,30.2649
62.0882,30.2600
62.1122,30.2565
62.1397,30.2487
88.7833,30.2487
Z" /> 
<path style="fill:#FFFFFF; fill-opacity:1.0000; stroke:none;fill-rule:evenodd;"
d="M 98.2649,40.4722
98.3143,40.5217
98.3295,40.5811
98.3295,41.0796
98.3098,41.1466
98.2570,41.1924
98.1879,41.2023
98.1243,41.1733
98.0950,41.1359
98.0796,41.1057
98.0403,41.0515
98.0403,41.0515
97.4080,41.6838
97.3909,41.6203
97.3251,41.5062
97.2320,41.4132
97.1180,41.3473
97.0544,41.3303
97.7246,40.6601
97.7859,40.6266
97.8123,40.6237
97.8229,40.6237
97.8825,40.6173
98.0173,40.5670
98.1312,40.4818
98.1967,40.4574
Z" /> 
<path style="fill:#FFFFFF; fill-opacity:1.0000; stroke:none;fill-rule:evenodd;"
d="M 16.9925,32.8084
17.0383,32.8612
17.0495,32.9127
17.0495,39.3626
17.0775,39.5391
17.0938,39.5895
17.1327,39.7091
17.1747,39.7917
17.2138,39.8684
17.3153,40.0080
17.3189,40.0130
17.7720,40.4661
17.8055,40.5274
17.8005,40.5971
17.7586,40.6530
17.6931,40.6774
17.6843,40.6777
11.3397,40.6777
11.2773,40.6601
11.2772,40.6604
11.2758,40.6597
11.2749,40.6595
11.2728,40.6582
11.0834,40.5617
11.0834,40.5617
11.0834,40.5617
10.8812,40.4960
10.8812,40.4960
10.8812,40.4960
10.6922,40.4661
10.6713,40.4627
10.4587,40.4627
10.4378,40.4661
10.2488,40.4960
10.0466,40.5617
9.8572,40.6582
9.6852,40.7831
9.5349,40.9335
9.4099,41.1054
9.3950,41.1348
9.3470,41.1856
9.2792,41.2024
9.2131,41.1799
9.1696,41.1251
9.1605,41.0785
9.1605,38.0405
9.1802,37.9734
9.2330,37.9277
9.3021,37.9177
9.3588,37.9412
9.4729,38.0266
9.4729,38.0266
9.6076,38.0768
9.6076,38.0768
9.6672,38.0832
9.6672,38.0832
10.3150,38.0832
10.3150,37.1663
10.3720,37.1992
10.4992,37.2332
10.6308,37.2332
10.7580,37.1992
10.8150,37.1663
10.8150,38.0832
11.4628,38.0832
11.4628,38.0832
11.5224,38.0768
11.5224,38.0768
11.6571,38.0266
11.6571,38.0266
11.7722,37.9404
11.7722,37.9404
11.8583,37.8253
11.8584,37.8253
11.9086,37.6906
11.9086,37.6906
11.9150,37.6311
11.9150,37.6311
11.9150,36.9832
10.9980,36.9832
11.0309,36.9262
11.0650,36.7991
11.0650,36.6674
11.0309,36.5403
10.9980,36.4832
11.9150,36.4832
11.9150,35.8354
11.9150,35.8354
11.9086,35.7759
11.9086,35.7759
11.8584,35.6412
11.8583,35.6412
11.7722,35.5261
11.7722,35.5261
11.6571,35.4399
11.6571,35.4399
11.5255,35.3908
11.4696,35.3490
11.4452,35.2835
11.4600,35.2152
11.4812,35.1870
11.5951,35.0730
11.7201,34.9011
11.8166,34.7117
11.8822,34.5095
11.9155,34.2995
11.9155,34.0870
11.8822,33.8770
11.8166,33.6748
11.7201,33.4854
11.7200,33.4854
11.7200,33.4854
11.5951,33.3135
11.4448,33.1631
11.2728,33.0382
11.2721,33.0378
11.2641,33.0337
11.2561,33.0262
11.2458,33.0223
11.2311,33.0026
11.2133,32.9858
11.2106,32.9751
11.2041,32.9663
11.2024,32.9418
11.1965,32.9179
11.2000,32.9075
11.1992,32.8966
11.2111,32.8751
11.2190,32.8518
11.2285,32.8434
11.2329,32.8354
11.2577,32.8173
11.2612,32.8143
11.2626,32.8135
11.2728,32.8083
11.2747,32.8070
11.2805,32.8038
11.3053,32.7984
11.3397,32.7888
16.9255,32.7888
Z" /> 
<path style="fill:#FFFFFF; fill-opacity:1.0000; stroke:none;fill-rule:evenodd;"
d="M 98.0403,32.4150
98.0403,32.4150
98.0796,32.3608
98.0950,32.3306
98.1430,32.2798
98.2108,32.2630
98.2769,32.2855
98.3204,32.3403
98.3295,32.3869
98.3295,33.4585
98.3098,33.5255
98.2570,33.5713
98.1879,33.5812
98.1243,33.5522
98.0950,33.5148
98.0800,33.4854
97.9551,33.3135
97.8048,33.1631
97.6328,33.0382
97.6235,33.0335
97.5727,32.9855
97.5559,32.9177
97.5784,32.8515
97.6235,32.8125
97.6326,32.8079
97.6867,32.7685
97.6867,32.7685
97.0544,32.1362
97.1180,32.1192
97.2320,32.0533
97.3251,31.9603
97.3909,31.8462
97.4080,31.7827
Z" /> 
<path style="fill:#FFFFFF; fill-opacity:1.0000; stroke:none;fill-rule:evenodd;"
d="M 98.2769,24.6666
98.3204,24.7214
98.3295,24.7680
98.3295,27.8054
98.3098,27.8725
98.2570,27.9182
98.1879,27.9282
98.1312,27.9047
98.0803,27.8666
98.0173,27.8195
98.0173,27.8195
98.0173,27.8195
97.8825,27.7692
97.8825,27.7692
97.8229,27.7628
97.8229,27.7628
97.8229,27.7628
97.8229,27.7628
96.0271,27.7628
96.0271,27.7628
95.9675,27.7692
95.8327,27.8195
95.8327,27.8195
95.7175,27.9057
95.7175,27.9057
95.6312,28.0209
95.6312,28.0209
95.5809,28.1558
95.5745,28.2154
95.5745,28.2154
95.5745,30.0111
95.5745,30.0111
95.5809,30.0707
95.6312,30.2056
95.6312,30.2056
95.7175,30.3208
95.7175,30.3208
95.8327,30.4070
95.8327,30.4070
95.8703,30.4211
95.9675,30.4573
96.0271,30.4637
96.0377,30.4637
96.1047,30.4834
96.1254,30.5001
96.7956,31.1703
96.7320,31.1873
96.6180,31.2532
96.5249,31.3462
96.4591,31.4603
96.4420,31.5238
95.8097,30.8915
95.8097,30.8915
95.7704,30.9457
95.6739,31.1350
95.6082,31.3371
95.6082,31.3371
95.5750,31.5470
95.5750,31.7595
95.6082,31.9694
95.6082,31.9694
95.6739,32.1715
95.7704,32.3608
95.8097,32.4150
96.4420,31.7827
96.4591,31.8462
96.5249,31.9603
96.6180,32.0533
96.7320,32.1192
96.7956,32.1362
96.1633,32.7685
96.1633,32.7685
96.2175,32.8079
96.2175,32.8079
96.2265,32.8125
96.2345,32.8201
96.2448,32.8239
96.2595,32.8436
96.2773,32.8605
96.2799,32.8712
96.2865,32.8800
96.2882,32.9045
96.2941,32.9283
96.2905,32.9387
96.2913,32.9497
96.2795,32.9712
96.2715,32.9944
96.2620,33.0029
96.2576,33.0109
96.2326,33.0290
96.2293,33.0320
96.2279,33.0328
96.2172,33.0382
96.2153,33.0396
96.2094,33.0428
96.1846,33.0481
96.1503,33.0577
94.9067,33.0577
94.8397,33.0381
94.8190,33.0214
90.0447,28.2471
90.0010,28.2154
89.9001,28.1421
89.7409,28.0609
89.7409,28.0609
89.6992,28.0474
89.6177,28.0209
89.5709,28.0057
89.5709,28.0057
89.5709,28.0057
89.3944,27.9778
89.3944,27.9778
62.1397,27.9778
62.1310,27.9752
62.1220,27.9765
62.0772,27.9603
62.0772,27.9604
62.0763,27.9600
62.0749,27.9595
62.0728,27.9582
62.0678,27.9556
62.0641,27.9537
62.0133,27.9058
61.9965,27.8379
62.0190,27.7718
62.0641,27.7328
62.0728,27.7283
62.0728,27.7283
62.0728,27.7283
62.0749,27.7270
62.0758,27.7268
62.0772,27.7261
62.0773,27.7263
62.0825,27.7249
62.0882,27.7200
62.1122,27.7165
62.1397,27.7087
94.4744,27.7087
94.5528,27.6963
94.6509,27.6808
94.7792,27.6391
94.8209,27.6256
94.9801,27.5444
95.1247,27.4394
95.2511,27.3130
95.3097,27.2544
95.3097,27.2544
97.1801,25.3840
97.2367,25.3523
97.2366,25.3520
97.2380,25.3515
97.2389,25.3511
97.2412,25.3505
97.2412,25.3505
97.4434,25.2848
97.6328,25.1883
97.7220,25.1235
97.8048,25.0634
97.8048,25.0634
97.8048,25.0634
97.9551,24.9130
97.9551,24.9130
97.9551,24.9130
98.0800,24.7411
98.0800,24.7411
98.0801,24.7411
98.0950,24.7117
98.1430,24.6609
98.2108,24.6441
Z" /> 
<path style="fill:#FFFFFF; fill-opacity:1.0000; stroke:none;fill-rule:evenodd;"
d="M 98.2649,30.3122
98.3143,30.3616
98.3295,30.4211
98.3295,30.9196
98.3098,30.9866
98.2570,31.0324
98.1879,31.0423
98.1243,31.0133
98.0950,30.9759
98.0796,30.9457
98.0403,30.8915
98.0403,30.8915
97.4080,31.5238
97.3909,31.4603
97.3251,31.3462
97.2320,31.2532
97.1180,31.1873
97.0544,31.1703
97.7246,30.5001
97.7859,30.4666
97.8123,30.4637
97.8229,30.4637
97.8825,30.4573
98.0173,30.4070
98.1312,30.3218
98.1967,30.2974
Z" /> 
<path style="fill:#FFFFFF; fill-opacity:1.0000; stroke:none;fill-rule:evenodd;"
d="M 98.0403,22.2550
98.0403,22.2550
98.0796,22.2008
98.0950,22.1706
98.1430,22.1198
98.2108,22.1030
98.2769,22.1255
98.3204,22.1803
98.3295,22.2269
98.3295,23.2985
98.3098,23.3655
98.2570,23.4113
98.1879,23.4212
98.1243,23.3922
98.0950,23.3548
98.0800,23.3254
97.9551,23.1535
97.8048,23.0031
97.6328,22.8782
97.6235,22.8735
97.5727,22.8255
97.5559,22.7577
97.5784,22.6915
97.6235,22.6525
97.6326,22.6479
97.6867,22.6085
97.6867,22.6085
97.0544,21.9762
97.1180,21.9592
97.2320,21.8933
97.3251,21.8003
97.3909,21.6862
97.4080,21.6227
Z" /> 
<path style="fill:#FFFFFF; fill-opacity:1.0000; stroke:none;fill-rule:evenodd;"
d="M 98.2649,20.1522
98.3143,20.2017
98.3295,20.2611
98.3295,20.7596
98.3098,20.8266
98.2570,20.8724
98.1879,20.8823
98.1243,20.8533
98.0950,20.8159
98.0796,20.7857
98.0403,20.7315
98.0403,20.7315
97.4080,21.3638
97.3909,21.3003
97.3251,21.1862
97.2320,21.0932
97.1180,21.0273
97.0544,21.0103
97.7246,20.3401
97.7859,20.3066
97.8123,20.3037
97.8229,20.3037
97.8825,20.2973
98.0173,20.2470
98.0562,20.2179
98.1312,20.1618
98.1967,20.1374
Z" /> 
<path style="fill:#FFFFFF; fill-opacity:1.0000; stroke:none;fill-rule:evenodd;"
d="M 30.4303,12.4884
30.4510,12.5051
37.7653,19.8194
37.8090,19.8511
37.8095,19.8515
37.8095,19.8515
37.8724,19.8972
37.9099,19.9244
38.0691,20.0056
38.0691,20.0056
38.2277,20.0571
38.2391,20.0608
38.4156,20.0887
42.8103,20.0887
42.8190,20.0913
42.8280,20.0900
42.8728,20.1062
42.8728,20.1061
42.8737,20.1065
42.8751,20.1070
42.8772,20.1083
42.8859,20.1128
42.9367,20.1607
42.9535,20.2286
42.9310,20.2947
42.8859,20.3337
42.8772,20.3382
42.8751,20.3395
42.8742,20.3397
42.8728,20.3404
42.8727,20.3401
42.8675,20.3416
42.8618,20.3465
42.8378,20.3500
42.8103,20.3577
11.3397,20.3577
11.2773,20.3401
11.2772,20.3404
11.2758,20.3397
11.2749,20.3395
11.2728,20.3382
11.0834,20.2417
11.0834,20.2417
11.0834,20.2417
10.8812,20.1760
10.8812,20.1760
10.8812,20.1760
10.7200,20.1505
10.6713,20.1427
10.4587,20.1427
10.4100,20.1505
10.2488,20.1760
10.0466,20.2417
9.8572,20.3382
9.6852,20.4631
9.5349,20.6135
9.4099,20.7854
9.3950,20.8148
9.3470,20.8656
9.2792,20.8824
9.2131,20.8599
9.1696,20.8051
9.1605,20.7585
9.1605,17.7205
9.1802,17.6534
9.2330,17.6077
9.3021,17.5977
9.3588,17.6212
9.4729,17.7066
9.4729,17.7066
9.6076,17.7568
9.6076,17.7568
9.6672,17.7632
9.6672,17.7632
10.3150,17.7632
10.3150,16.8463
10.3720,16.8792
10.4992,16.9132
10.6308,16.9132
10.7580,16.8792
10.8150,16.8463
10.8150,17.7632
11.4628,17.7632
11.4628,17.7632
11.5224,17.7568
11.5224,17.7568
11.6571,17.7066
11.6571,17.7066
11.7722,17.6204
11.7722,17.6204
11.8583,17.5053
11.8584,17.5053
11.9086,17.3706
11.9086,17.3706
11.9150,17.3111
11.9150,17.3111
11.9150,16.6632
10.9980,16.6632
11.0309,16.6062
11.0650,16.4791
11.0650,16.3474
11.0309,16.2203
10.9980,16.1632
11.9150,16.1632
11.9150,15.5154
11.9150,15.5154
11.9086,15.4559
11.9086,15.4559
11.8584,15.3212
11.8583,15.3212
11.7722,15.2061
11.7722,15.2061
11.6571,15.1199
11.6571,15.1199
11.5255,15.0708
11.4696,15.0290
11.4452,14.9635
11.4600,14.8952
11.4812,14.8670
11.5951,14.7530
11.7201,14.5811
11.8166,14.3917
11.8822,14.1895
11.9155,13.9795
11.9155,13.7670
11.8822,13.5570
11.8166,13.3548
11.7201,13.1654
11.7200,13.1654
11.7200,13.1654
11.5951,12.9935
11.4448,12.8431
11.2728,12.7182
11.2721,12.7178
11.2641,12.7137
11.2561,12.7062
11.2458,12.7023
11.2311,12.6826
11.2133,12.6658
11.2106,12.6551
11.2041,12.6463
11.2024,12.6218
11.1965,12.5979
11.2000,12.5875
11.1992,12.5766
11.2111,12.5551
11.2190,12.5318
11.2285,12.5234
11.2329,12.5154
11.2577,12.4973
11.2612,12.4943
11.2626,12.4935
11.2728,12.4883
11.2747,12.4870
11.2805,12.4838
11.3053,12.4784
11.3397,12.4688
30.3633,12.4688
Z" /> 
</g> 
</svg>
