%TF.GenerationSoftware,KiCad,Pcbnew,9.0.7*%
%TF.CreationDate,2026-03-15T08:07:51-05:00*%
%TF.ProjectId,board,626f6172-642e-46b6-9963-61645f706362,rev?*%
%TF.SameCoordinates,Original*%
%TF.FileFunction,Soldermask,Top*%
%TF.FilePolarity,Negative*%
%FSLAX46Y46*%
G04 Gerber Fmt 4.6, Leading zero omitted, Abs format (unit mm)*
G04 Created by KiCad (PCBNEW 9.0.7) date 2026-03-15 08:07:51*
%MOMM*%
%LPD*%
G01*
G04 APERTURE LIST*
G04 Aperture macros list*
%AMRoundRect*
0 Rectangle with rounded corners*
0 $1 Rounding radius*
0 $2 $3 $4 $5 $6 $7 $8 $9 X,Y pos of 4 corners*
0 Add a 4 corners polygon primitive as box body*
4,1,4,$2,$3,$4,$5,$6,$7,$8,$9,$2,$3,0*
0 Add four circle primitives for the rounded corners*
1,1,$1+$1,$2,$3*
1,1,$1+$1,$4,$5*
1,1,$1+$1,$6,$7*
1,1,$1+$1,$8,$9*
0 Add four rect primitives between the rounded corners*
20,1,$1+$1,$2,$3,$4,$5,0*
20,1,$1+$1,$4,$5,$6,$7,0*
20,1,$1+$1,$6,$7,$8,$9,0*
20,1,$1+$1,$8,$9,$2,$3,0*%
G04 Aperture macros list end*
%ADD10RoundRect,0.875000X-0.875000X0.875000X-0.875000X-0.875000X0.875000X-0.875000X0.875000X0.875000X0*%
%ADD11RoundRect,0.750000X-1.000000X0.750000X-1.000000X-0.750000X1.000000X-0.750000X1.000000X0.750000X0*%
%ADD12R,3.500000X3.500000*%
%ADD13C,1.700000*%
%ADD14R,1.700000X1.700000*%
G04 APERTURE END LIST*
D10*
%TO.C,J9*%
X162940000Y-68120000D03*
D11*
X167640000Y-65120000D03*
D12*
X167640000Y-71120000D03*
%TD*%
D13*
%TO.C,U1*%
X138675000Y-66040000D03*
X138675000Y-68580000D03*
X138675000Y-71120000D03*
X138675000Y-73660000D03*
X138675000Y-76200000D03*
X138675000Y-78740000D03*
X138675000Y-81280000D03*
X138675000Y-83820000D03*
X138675000Y-86360000D03*
X138675000Y-88900000D03*
X138675000Y-91440000D03*
X138675000Y-93980000D03*
X138675000Y-96520000D03*
X138675000Y-99060000D03*
X138675000Y-101600000D03*
X138675000Y-104140000D03*
X156455000Y-66040000D03*
X156455000Y-68580000D03*
X156455000Y-71120000D03*
X156455000Y-73660000D03*
X156455000Y-76200000D03*
X156455000Y-78740000D03*
X156455000Y-81280000D03*
X156455000Y-83820000D03*
X156455000Y-86360000D03*
X156455000Y-88900000D03*
X156455000Y-91440000D03*
X156455000Y-93980000D03*
X156455000Y-96520000D03*
X156455000Y-99060000D03*
X156455000Y-101600000D03*
D14*
X156455000Y-104140000D03*
%TD*%
%TO.C,J11*%
X132080000Y-106680000D03*
D13*
X132080000Y-104140000D03*
X132080000Y-101600000D03*
%TD*%
D14*
%TO.C,J10*%
X175260000Y-93980000D03*
D13*
X175260000Y-96520000D03*
X175260000Y-99060000D03*
%TD*%
D14*
%TO.C,J8*%
X175260000Y-73660000D03*
D13*
X175260000Y-76200000D03*
X175260000Y-78740000D03*
%TD*%
D14*
%TO.C,J7*%
X175260000Y-63500000D03*
D13*
X175260000Y-66040000D03*
X175260000Y-68580000D03*
%TD*%
D14*
%TO.C,J6*%
X175260000Y-83820000D03*
D13*
X175260000Y-86360000D03*
X175260000Y-88900000D03*
%TD*%
D14*
%TO.C,J5*%
X167640000Y-76200000D03*
D13*
X167640000Y-78740000D03*
X167640000Y-81280000D03*
X167640000Y-83820000D03*
%TD*%
D14*
%TO.C,J4*%
X170180000Y-101600000D03*
D13*
X167640000Y-101600000D03*
X165100000Y-101600000D03*
X162560000Y-101600000D03*
%TD*%
D14*
%TO.C,J3*%
X132080000Y-96520000D03*
D13*
X132080000Y-93980000D03*
X132080000Y-91440000D03*
%TD*%
D14*
%TO.C,J2*%
X132080000Y-86360000D03*
D13*
X132080000Y-83820000D03*
X132080000Y-81280000D03*
%TD*%
D14*
%TO.C,J1*%
X132080000Y-76200000D03*
D13*
X132080000Y-73660000D03*
X132080000Y-71120000D03*
%TD*%
M02*
