M48
; DRILL file {KiCad 9.0.7} date 2026-03-15T08:16:51-0500
; FORMAT={-:-/ absolute / metric / decimal}
; #@! TF.CreationDate,2026-03-15T08:16:51-05:00
; #@! TF.GenerationSoftware,Kicad,Pcbnew,9.0.7
; #@! TF.FileFunction,Plated,1,2,PTH
FMAT,2
METRIC
; #@! TA.AperFunction,Plated,PTH,ViaDrill
T1C0.300
; #@! TA.AperFunction,Plated,PTH,ComponentDrill
T2C1.000
%
G90
G05
T1
X142.24Y-109.22
X143.51Y-99.06
X149.86Y-85.09
T2
X132.08Y-71.12
X132.08Y-73.66
X132.08Y-76.2
X132.08Y-81.28
X132.08Y-83.82
X132.08Y-86.36
X132.08Y-91.44
X132.08Y-93.98
X132.08Y-96.52
X132.08Y-101.6
X132.08Y-104.14
X132.08Y-106.68
X138.675Y-66.04
X138.675Y-68.58
X138.675Y-71.12
X138.675Y-73.66
X138.675Y-76.2
X138.675Y-78.74
X138.675Y-81.28
X138.675Y-83.82
X138.675Y-86.36
X138.675Y-88.9
X138.675Y-91.44
X138.675Y-93.98
X138.675Y-96.52
X138.675Y-99.06
X138.675Y-101.6
X138.675Y-104.14
X156.455Y-66.04
X156.455Y-68.58
X156.455Y-71.12
X156.455Y-73.66
X156.455Y-76.2
X156.455Y-78.74
X156.455Y-81.28
X156.455Y-83.82
X156.455Y-86.36
X156.455Y-88.9
X156.455Y-91.44
X156.455Y-93.98
X156.455Y-96.52
X156.455Y-99.06
X156.455Y-101.6
X156.455Y-104.14
X162.56Y-101.6
X165.1Y-101.6
X167.64Y-76.2
X167.64Y-78.74
X167.64Y-81.28
X167.64Y-83.82
X167.64Y-101.6
X170.18Y-101.6
X175.26Y-63.5
X175.26Y-66.04
X175.26Y-68.58
X175.26Y-73.66
X175.26Y-76.2
X175.26Y-78.74
X175.26Y-83.82
X175.26Y-86.36
X175.26Y-88.9
X175.26Y-93.98
X175.26Y-96.52
X175.26Y-99.06
T2
G00X162.94Y-67.12
M15
G01X162.94Y-69.12
M16
G05
G00X168.64Y-65.12
M15
G01X166.64Y-65.12
M16
G05
G00X168.64Y-71.12
M15
G01X166.64Y-71.12
M16
G05
M30
